<?xml version="1.0" encoding="UTF-8"?>
<svg width="244px" height="139px" viewBox="0 0 244 139" version="1.1" xmlns="http://www.w3.org/2000/svg" xmlns:xlink="http://www.w3.org/1999/xlink">
    <!-- Generator: Sketch 48.2 (47327) - http://www.bohemiancoding.com/sketch -->
    <title>giv_logo</title>
    <desc>Created with Sketch.</desc>
    <defs></defs>
    <g id="Home" stroke="none" stroke-width="1" fill="none" fill-rule="evenodd" transform="translate(-257.000000, -1720.000000)">
        <g id="giv_logo" transform="translate(257.000000, 1720.000000)" fill="#FEFEFE">
            <path d="M227.697267,43.729971 C212.026168,43.0214234 202.391998,68.0619607 197.362738,95.402682 C193.308055,68.3863872 184.224112,44.0543975 169.04679,44.114092 C159.160865,44.1530232 153.269928,49.152436 151.367491,59.2232843 C147.458151,50.1873566 141.178552,45.6583623 132.518959,45.6583623 C124.508868,45.6583623 118.446633,50.2840357 114.327714,59.5321383 C112.621231,63.3785393 111.330013,67.7849004 110.444329,72.7401912 C104.80904,59.5665276 93.6104849,49.8051821 78.9697645,50.1685399 C58.4309698,50.6778895 54.5385003,66.8323841 54.5385003,72.0238574 C54.5385003,77.2159796 56.3825407,81.6885237 60.0764612,85.436299 C63.7677862,89.1873185 68.2669333,91.0605573 73.5752002,91.0605573 C78.7666735,91.0605573 83.2372711,89.1873185 86.9876418,85.436299 C87.8888987,84.5350421 88.6798506,83.5903121 89.3650394,82.6047043 C89.3241616,83.7771817 85.0495177,91.2947933 77.4157615,93.6644046 C64.4678987,97.6840493 49.7279037,91.53422 44.6739873,78.6032274 C37.0428265,59.0798878 54.1693029,33.0920251 82.1634193,34.0743886 C102.77813,34.7978598 107.868382,6.81282734 86.1259649,1.96200188 C42.1252925,-7.85384719 2.10987549,19.6679041 0.0562555602,73.1833578 C-1.61454107,116.720749 34.3578725,141.573119 67.7666676,138.773318 C91.8988106,136.750194 105.616213,124.614047 111.32028,109.938937 C112.532338,114.547091 114.220653,118.812651 116.387174,122.734968 C121.191931,131.070783 126.568327,135.237718 132.518959,135.237718 C138.353445,135.237718 143.672743,131.127234 148.478148,122.906265 C153.115501,114.8819 155.657059,105.370363 156.117095,94.3820361 C158.288158,99.8135851 161.111317,105.251623 164.584628,110.698095 C174.538683,126.373087 185.349223,134.207988 197.019495,134.207988 C208.573621,134.207988 219.384162,126.20179 229.453064,110.182906 C239.063875,95.1963467 243.868632,80.5543286 243.868632,66.2516606 C243.868632,51.4934978 239.697156,44.2724121 227.697267,43.729971" id="Fill-1"></path>
            <path d="M132.730225,42.2478608 C137.455173,42.2478608 141.524131,40.542675 144.937098,37.1284102 C148.348118,33.7180385 150.0559,29.6477833 150.0559,24.9221864 C150.0559,20.1972385 148.348118,16.1023268 144.937098,12.6368026 C141.524131,9.17127844 137.455173,7.43948963 132.730225,7.43948963 C128.005277,7.43948963 123.934373,9.17127844 120.524001,12.6368026 C117.111034,16.1023268 115.4052,20.1972385 115.4052,24.9221864 C115.4052,29.6477833 117.083134,33.7180385 120.444841,37.1284102 C123.804602,40.542675 127.899514,42.2478608 132.730225,42.2478608" id="Fill-4"></path>
        </g>
    </g>
</svg>