<?xml version="1.0" encoding="UTF-8"?>
<svg width="239px" height="109px" viewBox="0 0 239 109" version="1.1" xmlns="http://www.w3.org/2000/svg" xmlns:xlink="http://www.w3.org/1999/xlink">
    <!-- Generator: Sketch 48.2 (47327) - http://www.bohemiancoding.com/sketch -->
    <title>Fill 1</title>
    <desc>Created with Sketch.</desc>
    <defs></defs>
    <g id="Home" stroke="none" stroke-width="1" fill="none" fill-rule="evenodd" transform="translate(-927.000000, -1318.000000)">
        <path d="M1129.92154,1375.543 C1125.66354,1370.913 1126.38854,1361.355 1132.29854,1355.025 C1137.51554,1349.437 1144.17554,1351.424 1144.17554,1351.424 C1141.75754,1364.425 1144.47154,1372.549 1144.47154,1372.549 C1141.67154,1376.946 1133.94854,1379.924 1129.92154,1375.543 M1078.20254,1385.26 C1071.21154,1395.729 1063.76054,1391.589 1062.19054,1385.082 C1060.61854,1378.574 1062.45654,1370.577 1068.13354,1366.146 C1073.47054,1361.98 1078.85154,1365.908 1078.85154,1365.908 C1076.49854,1378.664 1078.20254,1385.26 1078.20254,1385.26 M1036.17154,1373.417 C1039.32454,1368.485 1046.05954,1366.977 1044.76354,1374.659 C1043.58954,1381.615 1032.94354,1384.732 1032.94354,1384.732 C1032.94354,1384.732 1033.01954,1378.349 1036.17154,1373.417 M960.090539,1417.205 C940.065539,1416.797 933.474539,1394.543 945.061539,1381.862 C960.369539,1365.109 984.609539,1380.574 991.365539,1384.496 C985.884539,1406.053 975.345539,1417.516 960.090539,1417.205 M1160.69854,1361.395 C1160.69854,1361.395 1163.54054,1362.547 1161.04154,1368.966 C1158.07354,1376.587 1148.06654,1375.109 1149.66454,1362.624 C1151.62554,1347.304 1156.76754,1332.162 1158.10154,1325.983 C1159.43454,1319.804 1147.94854,1318 1147.94854,1318 C1147.94854,1318 1149.65854,1319.558 1148.88454,1324.233 C1148.10854,1328.907 1145.11354,1342.201 1145.11354,1342.201 C1145.11354,1342.201 1132.81254,1339.522 1125.55754,1352.65 C1118.57454,1365.286 1123.70454,1373.465 1123.70454,1373.465 C1123.70454,1373.465 1116.97954,1387.757 1114.75554,1377.796 C1112.75454,1368.83 1122.44154,1351.807 1119.52554,1347.814 C1116.22054,1343.284 1111.13254,1344.157 1111.13254,1344.157 C1111.13254,1344.157 1112.48454,1347.352 1109.94154,1351.87 L1099.77454,1353.094 C1099.77454,1353.094 1101.34554,1351.197 1100.27254,1350.733 C1099.00154,1350.185 1093.94154,1350.548 1091.15454,1350.873 C1088.55454,1351.176 1092.23854,1357.828 1096.54854,1361.051 C1096.54854,1361.051 1096.67454,1377.696 1092.81754,1385.957 C1089.24254,1393.613 1085.16854,1390.136 1084.92954,1383.065 C1084.68954,1375.994 1091.48254,1361.746 1088.43054,1358.728 C1085.37754,1355.709 1080.36454,1354.135 1080.36454,1354.135 C1080.36454,1354.135 1081.04054,1355.733 1080.87954,1356.634 C1080.87954,1356.634 1074.78354,1352.332 1065.88054,1358.853 C1056.97654,1365.374 1055.64254,1377.457 1057.59154,1386.085 C1057.59154,1386.085 1052.04454,1396.257 1042.81254,1397.81 C1034.53554,1399.202 1033.15554,1388.856 1033.15554,1388.856 C1033.15554,1388.856 1045.90154,1385.539 1050.50254,1374.983 C1055.10254,1364.431 1048.02454,1359.475 1039.94454,1361.932 C1031.69854,1364.44 1026.49554,1376.191 1027.13154,1386.37 C1023.33954,1387.155 1020.02554,1387.526 1017.06354,1387.584 C1017.98254,1382.9 1019.21854,1377.362 1020.80354,1371.467 C1024.80154,1356.6 1026.23854,1353.766 1022.50954,1351.652 C1018.78054,1349.538 1014.25954,1349.137 1014.25954,1349.137 C1014.25954,1349.137 1015.58554,1350.441 1014.98454,1352.7 C1014.50654,1354.494 1010.83354,1374.764 1009.42154,1386.931 C1006.01254,1386.229 1003.13554,1385.026 1000.48754,1383.557 C1005.48554,1363.919 1010.51054,1336.558 1010.30754,1333.241 C1010.06354,1329.24 1000.80554,1328.135 1000.80554,1328.135 C1001.41254,1329.399 997.919539,1348.989 993.176539,1376.013 C993.028539,1376.855 992.874539,1377.686 992.713539,1378.503 C989.056539,1375.984 968.826539,1362.327 952.303539,1366.421 C935.780539,1370.516 924.406539,1384.916 927.511539,1401.218 C930.301539,1415.87 941.601539,1427.493 959.541539,1426.349 C977.714539,1425.189 991.689539,1412.671 997.437539,1394.47 C998.024539,1392.613 998.627539,1390.531 999.237539,1388.301 C1002.28254,1389.884 1005.62254,1390.816 1008.98954,1391.31 C1008.90054,1392.51 1008.85554,1393.533 1008.87254,1394.31 C1009.03754,1402.072 1008.60154,1403.048 1010.81054,1404.115 C1013.01954,1405.181 1015.45654,1405.414 1015.45654,1405.414 C1015.45654,1405.414 1014.96554,1403.536 1014.98954,1401.243 C1015.00154,1400.147 1015.41854,1396.689 1016.28554,1391.757 C1020.57954,1391.684 1024.58254,1391.082 1027.68254,1390.388 C1028.64954,1394.414 1031.47554,1401.349 1039.53354,1402.131 C1050.29454,1403.176 1058.84154,1388.781 1058.84154,1388.781 C1058.84154,1388.781 1061.90354,1395.575 1068.46654,1395.049 C1076.06854,1394.439 1079.24954,1387.533 1079.24954,1387.533 C1079.24954,1387.533 1083.56954,1396.716 1090.15554,1393.277 C1098.60154,1388.867 1100.28754,1361.497 1100.28754,1361.497 C1100.28754,1361.497 1102.75754,1361.684 1108.58354,1359.616 C1108.58354,1359.616 1105.11254,1377.349 1111.25154,1383.553 C1117.39054,1389.757 1123.01654,1381.653 1125.22254,1376.336 C1125.22254,1376.336 1133.15354,1387.034 1145.83154,1375.221 C1148.76954,1381.621 1163.60654,1381.246 1165.31854,1370.343 C1166.67254,1361.729 1160.69854,1361.395 1160.69854,1361.395" id="Fill-1" fill="#FEFEFE"></path>
    </g>
</svg>