<?xml version="1.0" encoding="UTF-8"?>
<svg width="253px" height="104px" viewBox="0 0 253 104" version="1.1" xmlns="http://www.w3.org/2000/svg" xmlns:xlink="http://www.w3.org/1999/xlink">
    <!-- Generator: Sketch 48.2 (47327) - http://www.bohemiancoding.com/sketch -->
    <title>Page 1</title>
    <desc>Created with Sketch.</desc>
    <defs>
        <polygon id="path-1" points="1.40409675e-15 26.9067814 1.40409675e-15 0.060531421 27.1877585 0.060531421 27.1877585 26.9067814"></polygon>
    </defs>
    <g id="Home" stroke="none" stroke-width="1" fill="none" fill-rule="evenodd" transform="translate(-247.000000, -1315.000000)">
        <g id="Page-1" transform="translate(246.949680, 1314.981178)">
            <path d="M221.057833,79.6443329 C220.175927,79.6319416 219.283753,79.7300099 218.40751,79.9367677 C215.887827,80.5308423 213.734572,82.0783392 212.344268,84.2960288 C210.951485,86.5154885 210.509647,89.1176625 211.099473,91.6221222 C211.705585,94.1903086 213.268305,96.3711783 215.500156,97.7618367 C217.021454,98.7092405 218.764026,99.2236567 220.539877,99.2498554 C221.359119,99.2615387 222.185442,99.1709051 222.996542,98.9793709 C225.623144,98.3598057 227.855349,96.7999174 229.282828,94.5857683 C230.717387,92.3599359 231.172325,89.7127992 230.564089,87.1336376 C229.955144,84.5495194 228.362331,82.3867057 226.079144,81.0417181 C224.571299,80.1530845 222.834747,79.6705317 221.057833,79.6443329 M220.474734,103.711433 C217.88743,103.673905 215.351461,102.925825 213.140852,101.548974 C209.901411,99.5313151 207.63451,96.3690541 206.756143,92.6463521 C205.890522,88.971091 206.532392,85.1637741 208.564212,81.924687 C210.58187,78.7068422 213.714038,76.4587055 217.383281,75.5937924 C218.616746,75.3024197 219.874995,75.1643452 221.12333,75.1827551 C223.672753,75.2202831 226.169424,75.9166744 228.343567,77.1965192 C231.686033,79.1646124 234.01666,82.3300597 234.907418,86.1097617 C235.796405,89.8795507 235.131169,93.7484701 233.033499,97.0031348 C230.977604,100.193011 227.776753,102.437607 224.020771,103.3227 C222.852448,103.597787 221.659343,103.729135 220.474734,103.711433" id="Fill-1" fill="#FEFEFE"></path>
            <path d="M245.327726,64.3280783 C245.327726,64.3280783 241.082465,65.8263641 236.302962,66.0387864 C236.20808,66.043743 236.112844,66.0451591 236.018316,66.043743 C232.318272,65.9888672 228.889067,61.7351092 227.445303,60.2240781 C220.957924,53.4343512 215.163042,41.941947 215.163042,41.941947 C215.163042,41.941947 219.965558,56.5806805 220.906235,59.6870036 C221.84585,62.7922646 223.72685,65.9191218 220.956862,67.4043082 C218.553303,68.6919418 215.507166,69.5848238 214.009588,69.5625195 C213.781588,69.5589791 213.590054,69.5349046 213.441713,69.4871095 C212.31729,69.1284698 211.111439,67.5413206 211.111439,67.5413206 C211.111439,67.5413206 208.374731,64.7546932 201.048284,47.3491584 C193.721482,29.9429155 191.947047,18.8881014 193.818488,16.6796168 C195.688867,14.4704242 202.851395,13.0939272 207.087452,12.0955421 C209.229731,11.5903309 211.143657,11.278424 212.601936,11.2996663 C214.23511,11.3233868 215.297576,11.7652253 215.473533,12.8223806 C215.90829,15.4348217 215.605235,18.2331324 215.605235,18.2331324 C215.605235,18.2331324 217.882402,10.6273495 226.403372,6.39837416 C228.930136,5.14437411 231.470353,4.42921881 233.820807,4.46356042 C239.264838,4.54357285 243.691012,8.64261649 244.574335,19.3759647 C245.599273,31.8182509 238.612701,37.953717 229.069626,37.8138723 C227.147558,37.7859033 225.122111,37.5033816 223.036477,36.966307 C223.036477,36.966307 226.627477,44.4039222 237.177788,52.1070654 C246.507379,59.3361526 252.57664,61.9949726 245.327726,64.3280783 M249.908969,56.2039848 C248.58841,54.9953015 246.862124,53.7338667 244.67736,52.1375126 C243.245279,51.0913324 241.622018,49.9060156 239.91131,48.580146 L239.861037,48.5404938 L239.809701,48.5036739 C236.737366,46.2608478 234.313627,44.0491769 232.441831,42.0863942 C237.054937,41.4944439 241.062639,39.5525494 243.954062,36.4582635 C246.681565,33.5406423 249.774081,28.1454682 249.021751,19.0095361 C248.52964,13.0362191 246.972938,8.36929971 244.394838,5.1404797 C241.760093,1.84049821 238.126608,0.0639391329 233.886304,0.00198260877 C230.900353,-0.0419180141 227.71508,0.765286986 224.418639,2.40129326 C221.276204,3.96118152 218.836179,5.91475924 216.960489,7.88002018 C215.929533,7.28346736 214.539582,6.8649953 212.667787,6.83773443 C210.940793,6.81259778 208.780812,7.11175928 206.063576,7.75221272 C205.550222,7.87329347 204.992967,7.99968478 204.407389,8.1328028 C197.736973,9.64949851 192.828246,10.9435048 190.413358,13.7963372 C189.042171,15.4135795 187.712407,18.4073187 189.62173,27.2564806 C190.911134,33.2297976 193.439668,40.7764562 196.935433,49.0804007 C203.377495,64.3861404 206.531259,69.0286313 207.64683,70.355563 C208.32729,71.2282649 209.956216,73.0593457 212.085042,73.7383892 C212.655396,73.9210724 213.26434,74.0141843 213.944092,74.0240973 C216.690713,74.0648116 220.596806,72.6596376 223.0648,71.3376624 C225.191856,70.1966003 226.510645,68.2986064 226.805912,66.0168361 C229.031744,68.1484946 232.149043,70.4490288 235.953173,70.5049667 C236.135502,70.507799 236.319956,70.5049667 236.501223,70.4968239 C241.585906,70.270594 246.093509,68.7832834 246.739981,68.5613021 C248.302702,68.057861 252.294826,66.7380101 252.919702,62.8605938 C253.467043,59.4607737 250.882217,57.0943886 249.908969,56.2039848" id="Fill-3" fill="#FEFEFE"></path>
            <g id="Group-7" transform="translate(0.000000, 76.806618)">
                <mask id="mask-2" fill="white">
                    <use xlink:href="#path-1"></use>
                </mask>
                <g id="Clip-6"></g>
                <path d="M16.8737354,4.89626479 C16.0969776,4.60666229 15.2759652,4.41229582 14.4333565,4.31741383 C12.0131576,4.04657531 9.61526311,4.7358859 7.68151148,6.26107851 C5.74386544,7.78733322 4.53022564,9.95297927 4.25832501,12.3593707 C3.98394612,14.8266565 4.67927534,17.2549982 6.21615117,19.1926442 C7.26445556,20.5132033 8.64520096,21.5222095 10.2107538,22.106371 C10.934052,22.3768555 11.6948781,22.5574145 12.4734061,22.6445077 C14.9976919,22.9259674 17.4695802,22.2522344 19.4351952,20.7394331 C21.4103692,19.2209672 22.6512698,17.0213336 22.928127,14.5423645 C23.2071084,12.0598551 22.4809779,9.6389482 20.8821455,7.72360651 C19.8271144,6.46040149 18.4417666,5.48255052 16.8737354,4.89626479 M8.74079102,26.0390172 C6.46079094,25.1872035 4.44879707,23.720427 2.92608272,21.8029611 C0.695293816,18.9887188 -0.314420509,15.4695882 0.0856416182,11.8920415 C0.482871447,8.36193573 2.25624419,5.19082381 5.08216976,2.96215912 C7.88826925,0.750134191 11.3758905,-0.250375165 14.9010397,0.145084478 C16.0863565,0.275724234 17.2447665,0.552935425 18.3458225,0.963972708 C20.591835,1.80410318 22.5843568,3.21104733 24.1067171,5.03398529 C26.4440712,7.83442018 27.5097234,11.3790414 27.1029346,15.0079236 C26.6972079,18.6311411 24.8817047,21.8486319 21.9948847,24.0695078 C19.1618784,26.2450669 15.6147789,27.2215017 12.0060769,26.8175451 C10.8830706,26.6918619 9.78484697,26.4302284 8.74079102,26.0390172" id="Fill-5" fill="#FEFEFE" mask="url(#mask-2)"></path>
            </g>
            <path d="M82.5936405,81.5362373 C81.8020131,81.2894734 80.9721497,81.1400696 80.1252926,81.0915665 C77.6937645,80.9527839 75.3372924,81.77061 73.4892178,83.3998896 C71.6379568,85.0288151 70.5436276,87.2574798 70.4034288,89.6748464 C70.2635841,92.1531073 71.0902612,94.5407347 72.7305159,96.3919957 C73.8489197,97.6530765 75.2824166,98.5852566 76.8773546,99.0837411 C77.6144602,99.3142194 78.3837832,99.453002 79.1658515,99.4972567 C81.7018206,99.6413499 84.1337027,98.8341449 86.0139947,97.2161945 C87.9034916,95.5925795 89.0226035,93.3288651 89.1642184,90.8385669 C89.3076035,88.3443743 88.4508333,85.9666599 86.7500382,84.1408896 C85.62774,82.9378709 84.1914107,82.0368461 82.5936405,81.5362373 M75.6237085,103.090381 C73.3008699,102.364251 71.21205,101.008996 69.5870189,99.177207 C67.2064722,96.4886479 66.0066398,93.0293496 66.2116274,89.4351631 C66.4159069,85.8891257 68.0136772,82.6259641 70.7142736,80.2471876 C73.396106,77.8857589 76.8235409,76.6965477 80.3649758,76.899057 C81.5559572,76.965616 82.7278206,77.1791005 83.8494107,77.5299515 C86.1379077,78.2461689 88.2040693,79.5426534 89.8230818,81.2795603 C92.3094856,83.9486474 93.566672,87.43025 93.35779,91.0757719 C93.1499701,94.7159832 91.5125477,98.0272939 88.7510569,100.401822 C86.0405475,102.728555 82.5522181,103.896524 78.9268764,103.689766 C77.7985596,103.625685 76.6872365,103.424238 75.6237085,103.090381" id="Fill-8" fill="#FEFEFE"></path>
            <path d="M96.6724994,15.999936 C95.3335304,13.768085 92.6347042,12.9782278 90.5009215,12.6036564 C88.3692631,12.2290849 84.1201076,11.7291843 83.5568343,11.6923644 C77.13389,11.2742464 72.3586351,11.127675 69.4155232,13.0543459 C67.7458834,14.1469049 65.7459268,16.4899236 65.0966224,24.9846941 C64.6618646,30.7169118 64.9234982,38.201968 65.8517839,46.6298254 C67.5649703,62.1610869 69.1655729,67.1937268 69.8173555,68.6905965 C70.1979456,69.6585344 71.1761506,71.7470003 72.9151817,72.9301929 C73.3807408,73.2467022 73.9036538,73.4938203 74.5157843,73.6832302 C76.9830701,74.4553855 80.8831448,74.2369445 83.4626604,73.7037644 C85.6863686,73.2431619 88.8790768,73.1036712 89.0036979,68.6442176 C90.0165985,32.1897068 98.9886113,19.8543399 96.6724994,15.999936 M85.2087723,62.9605031 C85.025735,66.2760622 85.5118282,68.9936524 82.6147411,69.5916213 C80.1014305,70.1095779 77.11548,70.0993108 75.7687222,69.6780064 C75.5655048,69.6139257 75.3980452,69.540994 75.2769644,69.4581493 C74.3596538,68.8329195 73.696542,67.0779567 73.696542,67.0779567 C73.696542,67.0779567 71.9741506,63.8328509 70.0241133,46.1688689 C68.0772623,28.5041788 69.4357033,18.0583088 71.7153494,16.5656876 C73.9946414,15.0741285 80.8247286,15.7506938 84.9135052,15.9850665 C86.9814369,16.1018988 88.7902134,16.3345013 90.1012135,16.7437684 C91.5683439,17.2029547 92.167375,18.7044268 91.8798968,20.073843 C89.2522321,32.5908311 86.5349959,39.0321854 85.2087723,62.9605031" id="Fill-10" fill="#FEFEFE"></path>
            <path d="M148.629913,81.7028827 C147.852801,81.4132802 147.032143,81.2189137 146.189534,81.1240317 C143.769335,80.8531932 141.371087,81.5425038 139.437335,83.0676964 C137.500043,84.5939511 136.286403,86.7595972 136.014503,89.1659886 C135.740124,91.6332744 136.435099,94.0616161 137.972329,95.9992621 C139.020633,97.3198212 140.401025,98.3288274 141.966932,98.912989 C142.69023,99.1834734 143.451056,99.3640324 144.22923,99.4511256 C146.75387,99.7325853 149.225758,99.0588523 151.191019,97.546051 C153.166547,96.0275851 154.407448,93.8279515 154.684659,91.3489824 C154.963286,88.866473 154.237156,86.4455661 152.638323,84.5302244 C151.583292,83.2670194 150.197944,82.2891684 148.629913,81.7028827 M140.496969,102.845635 C138.216969,101.993821 136.204621,100.527045 134.682261,98.609579 C132.451472,95.7953367 131.441757,92.2762061 131.841819,88.6986594 C132.239049,85.1685536 134.012422,81.9974417 136.838348,79.768777 C139.644447,77.5567521 143.132068,76.5562427 146.657218,76.9517024 C147.842888,77.0823421 149.000944,77.3595533 150.102,77.7705906 C152.348013,78.6107211 154.340535,80.0176652 155.862541,81.8406032 C158.200249,84.6410381 159.265901,88.1856593 158.859112,91.8145415 C158.453032,95.437759 156.637883,98.6552498 153.751063,100.876126 C150.917702,103.051685 147.370957,104.02812 143.762255,103.624163 C142.639248,103.49848 141.541025,103.236846 140.496969,102.845635" id="Fill-12" fill="#FEFEFE"></path>
            <path d="M160.368798,47.2557987 C154.481512,55.6886127 152.890469,66.8262716 151.299425,69.2135449 C150.581792,70.2894642 149.292388,70.581899 148.102469,70.581899 C146.686673,70.581899 145.412139,70.1676754 145.412139,70.1676754 C141.442673,69.1091039 140.391182,68.5309611 140.479692,63.326259 C140.553686,58.9641657 142.565325,46.9148608 143.214984,43.127016 C144.540145,37.0280157 147.137717,28.5442204 151.617705,26.2387296 C151.617705,26.2387296 143.154443,28.0889284 139.721344,40.9769476 C137.622257,40.3899538 135.071772,39.6365624 133.319996,38.9819475 C125.863617,36.1974443 126.826598,33.4363075 128.785132,27.5260091 C131.629114,18.9434374 140.448891,12.8033688 149.390456,12.8033688 C154.705264,12.8033688 160.065034,14.9743254 164.234531,20.0922884 C171.853414,29.4438291 167.33873,37.2715934 160.368798,47.2557987 M167.31855,17.5800398 C164.936233,14.6560459 162.113494,12.4174682 158.928929,10.9262632 C155.951829,9.53206435 152.742835,8.82540593 149.390456,8.82540593 C138.613915,8.82540593 128.359934,16.1642447 125.009325,26.2744874 L124.976045,26.3746799 C123.876759,29.6916552 122.927232,32.5558168 123.679207,35.4546741 C124.741319,39.5498233 128.645642,41.4821588 131.927921,42.7081899 C133.87371,43.4350284 136.581741,44.5463514 138.968307,44.7053142 C138.708443,46.8228111 136.569704,59.2877557 136.502791,63.2582838 C136.449685,66.3603585 136.74035,68.8297685 138.327853,70.7982158 C139.945804,72.8048991 142.352195,73.4680109 144.307189,73.9902159 C144.812754,74.1435141 146.339363,74.5598619 148.102469,74.5598619 C151.942357,74.5598619 153.827251,72.5917687 154.608966,71.4191972 C155.478835,70.1149239 156.040692,68.2271971 156.891444,65.3701162 C158.245991,60.8200291 160.100792,54.5886189 163.630544,49.5329665 C167.141885,44.5028048 170.396904,39.5576121 171.640991,34.3631771 C173.070594,28.3944626 171.656569,22.9047605 167.31855,17.5800398" id="Fill-14" fill="#FEFEFE"></path>
        </g>
    </g>
</svg>