<?xml version="1.0" encoding="UTF-8"?>
<svg id="Layer_2" data-name="Layer 2" xmlns="http://www.w3.org/2000/svg" viewBox="0 0 164.69 78.91">
  <defs>
    <style>
      .cls-1 {
        fill: #fff;
        stroke-width: 0px;
      }
    </style>
  </defs>
  <g id="Layer_1-2" data-name="Layer 1">
    <g>
      <path class="cls-1" d="M163.66,61.56c-2.17-.51-3.61-1.2-4.32-2.07-.71-.87-1.6-3.11-2.67-6.71l-.76-2.41-4.87-16.16L141.13,1.29c-.25-.86-.55-1.29-.92-1.29s-.69.45-.98,1.34l-11.4,32.86-6.24,18-1,2.94c-.51,1.37-1.15,2.68-1.92,3.95-.78,1.26-1.4,1.98-1.85,2.16l-1.27.49c-.37.14-.57.45-.58.91,0,.02,0,.05,0,.08,0,.56.31.84.93.84.11,0,.75-.1,1.91-.29.37-.05.88-.07,1.54-.07,1.43,0,2.7.03,3.79.09l3.29.22c.53.03.91.05,1.16.05.66,0,.98-.25.96-.76,0-.05-.01-.11-.02-.16-.08-.45-.43-.75-1.05-.91-1.58-.45-2.64-.98-3.19-1.61-.54-.62-.81-1.63-.81-3.02,0-1.46.51-3.68,1.54-6.67l2.28-6.53c.68-2.01,1.23-3.2,1.65-3.56.41-.36,1.46-.54,3.16-.54h12.42c1.28,0,2.06.13,2.34.38.28.25.65,1.2,1.14,2.83l1.72,5.88c1.4,4.69,2.11,7.82,2.11,9.4,0,1.72-.57,2.73-1.73,3.03l-1.07.31c-.57.16-.86.48-.86.96v.04c.02.61.31.92.89.92.23,0,.58-.06,1.06-.18.8-.18,2.79-.27,5.96-.27s5.16.06,6.34.2c.66.05,1.1.08,1.3.08.61,0,.93-.24.96-.73h0c.02-.56-.32-.92-1.03-1.1ZM145.26,34.21c.01.08.02.15.02.21,0,.74-.57,1.11-1.72,1.11h-10.37l-.92-.04c-1.06,0-1.58-.39-1.58-1.16,0-.04,0-.08,0-.13.04-.3.18-.81.44-1.51l6.69-19.24c.2-.59.39-.87.55-.84.32.03.62.52.89,1.46l.27.93,5.39,17.59.17.8c.08.33.13.61.16.81h0Z"/>
      <path class="cls-1" d="M125.94,73.11c-.23.03-.55.19-.96.48-1.42.99-3.09,1.48-5,1.48-1.26,0-2.89-.84-4.91-2.52l-2.08-1.77-.52-.44-3.19-2.75c-.92-.72-2.53-1.85-4.84-3.38,2.66-.59,5.17-1.55,8.13-3.7,3.63-2.65,6.46-6.5,8.54-11.46,1.89-4.51,2.93-9.46,3.1-14.84.02-.54.02-1.08.02-1.62,0-9.34-2.25-16.93-6.74-22.79-4.49-5.86-10.31-8.79-17.45-8.79-8.05,0-14.29,3.51-18.74,10.53-3.73,5.92-5.59,13.11-5.59,21.55,0,.38,0,.75.01,1.12.23,10.08,3.62,18.41,10.15,24.98-.93.49-1.79,1.32-2.57,2.47l-1.17-.32c-2.24-.59-4.31-2.19-6.21-4.78l-16.44-22.36h0l-1.44-1.95c-.57-.81-.85-1.43-.82-1.88.02-.36.28-.83.79-1.43l11.73-13.83c5.84-6.83,9.8-10.59,11.85-11.27,1.12-.35,1.67-.76,1.65-1.23-.04-.58-.38-.87-1-.87-.18,0-.53.06-1.06.18-.46.09-1.41.14-2.86.14l-2.58.04-3.17-.12c-1.19,0-2.27-.05-3.23-.16-.41-.06-.72-.08-.93-.08-.71,0-1.07.3-1.07.9,0,.54.52.91,1.56,1.11,1.65.39,2.47,1.27,2.47,2.63,0,1.58-1.13,3.68-3.39,6.3l-14.73,17.19-.51.54-.55.49c-.21,0-.31-.31-.31-.94V12.45c0-3.05.19-5.09.57-6.12.38-1.04,1.3-1.95,2.74-2.76.55-.28.83-.62.83-1.02,0-.57-.27-.84-.83-.81-.18,0-.74.08-1.66.23-.5.04-1.1.06-1.79.06l-2.58.11-1.28.06c-2.5,0-4.34-.1-5.52-.31-.48-.1-.89-.15-1.24-.15-.62,0-.93.3-.93.91,0,.43.3.74.89.91l1.69.45c1.49.41,2.5,1.26,3.03,2.53.53,1.28.79,3.51.79,6.71v20.95h0v17.18c0,3.74-.28,6.4-.85,7.98-.12.35-.27.65-.43.93-.4-.25-.71-.52-.96-.81-.71-.88-1.6-3.12-2.67-6.71l-.75-2.41-4.87-16.16L26.16,1.3c-.25-.86-.56-1.3-.91-1.3s-.69.45-.99,1.34l-11.39,32.86-6.24,18-1,2.95c-.51,1.36-1.14,2.68-1.93,3.94-.77,1.26-1.39,1.98-1.85,2.16l-1.27.49c-.37.14-.57.45-.58.91v.07c0,.56.3.84.92.84.11,0,.75-.1,1.91-.29.36-.05.87-.07,1.54-.07,1.44,0,2.7.03,3.8.09l3.28.22c.53.03.91.05,1.16.05.66,0,.98-.25.96-.76,0-.05,0-.11-.02-.16-.08-.45-.43-.75-1.05-.91-1.59-.45-2.64-.98-3.19-1.6-.54-.63-.81-1.63-.81-3.02,0-1.46.51-3.68,1.54-6.67l2.28-6.54c.69-2.01,1.23-3.2,1.65-3.56.41-.36,1.46-.54,3.16-.54h12.43c1.28,0,2.05.13,2.33.38.27.25.65,1.2,1.13,2.83l1.73,5.88c1.4,4.69,2.1,7.82,2.1,9.4,0,1.72-.57,2.73-1.73,3.03l-1.07.31c-.58.15-.86.47-.86.96v.04c.02.61.31.91.89.91.23,0,.58-.06,1.06-.18.8-.18,2.79-.27,5.97-.27,1.65,0,3.14-.02,4.36-.02.89.04,9.96.41,10.68.52.91.12,1.54.19,1.86.23.57.02.85-.26.83-.87,0-.12-.03-.22-.07-.32-.14-.31-.45-.52-.96-.64-2.54-.53-4.16-1.35-4.87-2.45-.71-1.1-1.06-3.36-1.06-6.78v-16.32c0-.68.21-1.03.63-1.03.28,0,.56.16.84.49l.69.98,18.42,24.66.59.83c.49.89,1.33,1.16,2.02,1.16.37,0,.89-.03,1.57-.09.61-.06,1.61-.09,2.98-.09,1.25,0,2.13.02,2.65.08l-.1.2c-1.07,2.23-1.65,4.5-1.75,6.79,0,.12,0,.23,0,.33.03.73.31,1.09.85,1.09.35,0,.6-.36.75-1.09h0c.03-.16.06-.33.08-.52.25-2.09.96-3.86,2.12-5.32,1.16-1.46,2.45-2.2,3.84-2.2,1.6,0,4.12,1.18,7.54,3.53l5.76,3.97c.15.11.4.28.73.54.97.71,2.68,2.01,5.16,3.88,3.72,2.83,6.95,4.24,9.7,4.24,2.03,0,4.15-.59,6.36-1.77,2.2-1.18,3.28-2.3,3.23-3.38-.02-.47-.22-.69-.62-.65ZM28.59,35.53h-10.37l-.93-.04c-1.06,0-1.58-.39-1.58-1.16,0-.04,0-.08,0-.13.04-.3.18-.8.44-1.51l6.69-19.24c.2-.59.39-.87.55-.84.32.03.61.52.89,1.46l.28.94,5.39,17.59.17.8c.08.33.13.6.16.8h0c0,.08.02.16.02.22,0,.74-.57,1.11-1.72,1.11ZM81.34,34.2c-.14-1.63-.2-3.33-.2-5.09,0-7.55,1.56-13.68,4.68-18.39,3.13-4.71,7.19-7.07,12.19-7.07,5.92,0,10.95,3.23,15.1,9.69,3.73,5.83,5.78,12.77,6.15,20.85.04.89.06,1.79.06,2.71,0,7.46-1.56,13.49-4.67,18.1-3.11,4.61-7.19,6.91-12.24,6.91s-9.35-2.33-13.33-7c-4.45-5.26-7.03-12.17-7.75-20.72Z"/>
    </g>
  </g>
</svg>