<?xml version="1.0" encoding="UTF-8"?>
<svg id="Layer_2" data-name="Layer 2" xmlns="http://www.w3.org/2000/svg" viewBox="0 0 166.3 109.01">
  <defs>
    <style>
      .cls-1 {
        fill: #fff;
        stroke-width: 0px;
      }
    </style>
  </defs>
  <g id="Layer_1-2" data-name="Layer 1">
    <g>
      <path class="cls-1" d="M48.37,50.46c1.77-2.09,3.81-4.09,3.95-7.06.19-4.79.19-9.62.19-14.4-.12-1,.4-1.97,1.3-2.42,1.49-.84,2.83-1.91,4.28-2.79.41-.18.88-.19,1.3-.05,1.21.56,2.37,1.25,3.76,2.05.11-.62.19-1.24.23-1.86.05-2.65.09-5.34.09-7.99-.09-.66.27-1.31.88-1.58,8.83-4.74,17.66-9.5,26.49-14.27.15-.05.31-.08.47-.09.07.29.11.59.09.88-.05,1.81-.14,3.62-.14,5.44.06.79-.42,1.51-1.16,1.77-6.46,3.39-12.82,6.83-19.28,10.18-1.35.52-2.19,1.86-2.09,3.3,0,7.2-.14,14.4-.23,21.61.02.82.08,1.65.19,2.46.19-.01.38-.05.56-.09,1.58-1.63,3.02-3.35,3.02-5.81,0-4.83.14-9.67.09-14.5-.13-1.04.44-2.04,1.39-2.46,2.04-1.07,4.04-2.32,5.99-3.58.61-.48,1.46-.5,2.09-.05,1.21.74,2.51,1.35,3.72,2.18.47.35.79.86.88,1.44.05,2.32-.05,4.65-.09,6.97,0,.72-.41,1.38-1.07,1.67-2.14,1.21-4.23,2.56-6.41,3.76-.78.37-1.24,1.19-1.16,2.04,0,3.16,0,3.35,3.07,4.37,2.09.7,4.23,1.07,6.46,1.63-.4.33-.77.69-1.11,1.07-1.11,1.12-2.28,2.23-3.35,3.39-.33.49-1.01.63-1.5.29-.03-.02-.05-.04-.08-.06-2.09-1.21-4.18-2.32-6.27-3.53-.6-.5-1.49-.42-1.98.18-.04.05-.07.09-.11.15-1.11,1.3-2.32,2.51-3.39,3.81-.33.62-1.09.86-1.72.53-.08-.04-.16-.1-.24-.16-1.07-.65-2.23-1.12-3.3-1.72-.57-.44-1.4-.34-1.84.24-.02.03-.04.06-.06.09-1.07,1.16-2.28,2.23-3.3,3.44-.6.74-1.11.7-1.86.23-1.16-.7-2.37-1.26-3.58-1.95-.45-.4-1.13-.36-1.53.09-.08.09-.14.18-.18.29-.93,1.3-1.95,2.51-2.83,3.81-.6.93-1.11,1.16-2.14.56-1.32-.76-2.68-1.43-4.09-2-.71-.22-1.15-.94-1.02-1.67.09-4.74.14-9.43.28-14.17.11-.86-.36-1.7-1.16-2.05-.84-.42-1.63-.88-2.46-1.35s-1.21-.19-1.21.74c-.14,3.62-.32,7.25-.37,10.92-.09,3.81,0,7.67-.05,11.48v1.53c-.34-.07-.66-.18-.98-.33-1.16-.56-2.28-1.16-3.39-1.72-1.67-.88-1.58-.84-1.49-2.7.28-5.67.47-11.38.6-17.05-.08-.53-.38-1.01-.84-1.3-1.02-.55-2.08-1.03-3.16-1.44,1.2-.78,2.35-1.63,3.44-2.55,1.12-1.07,2.14-1.3,3.44-.33.85.73,2.14.64,2.87-.21.02-.02.04-.04.05-.06t.09-.05c1.81-2.32,3.76-1.95,5.9-.42,1.05.72,2.17,1.33,3.35,1.81.88.33,1.4,1.26,1.21,2.18-.09,4.97-.14,9.9-.19,14.87,0,.79.14,1.58.19,2.37.17-.03.34-.03.51,0ZM58.41,47.67c.14.05.32.09.46.14,1.86-1.86,3.81-3.81,4.18-6.55.26-3,.34-6.01.23-9.01-.03-.44-.25-.85-.6-1.11-1.07-.65-2.18-1.16-3.3-1.72-.84-.42-1.11-.05-1.16.79-.05,4.23-.14,8.41-.14,12.64.04,1.63.23,3.25.32,4.83ZM78.02,32.76c2.7-.37,3.67-1.63,3.76-4.97.09-2.97-.93-4.41-3.76-4.97v9.94Z"/>
      <path class="cls-1" d="M90.42,55.81c-.74.37-1.35.6-1.86.93-1.58.93-3.11,1.86-4.74,2.74-.46.2-.97.22-1.44.05-1.58-.74-3.07-1.58-4.83-2.51,6.32-3.11,12.45-6.18,18.73-9.29-.14,4.6-.28,9.01-.46,13.71.65-.28,1.12-.42,1.53-.65,1.21-.79,2.37-1.63,3.58-2.37.28-.19.88-.32,1.12-.14,2.14,1.35,4.18,2.74,6.41,4.23-2.18,1.44-4.23,2.79-6.65,4.37,1.49.79,2.56,1.44,3.67,1.95.69.27,1.12.98,1.02,1.72-.05,3.95,0,7.9-.05,11.85-.11.79.42,1.52,1.21,1.67,1.3.37,2.56.88,4.04,1.39-1.81,1.39-3.44,2.74-5.16,4-.28.11-.59.07-.84-.09-1.53-.74-3.11-1.44-4.55-2.28-.42-.33-.67-.82-.7-1.35-.05-3.76,0-7.53.05-11.24.1-.91-.38-1.79-1.21-2.18-1.12-.6-2.18-1.25-3.25-1.86-.14.05-.28.14-.42.19v21.37c-1.63-.74-2.88-1.3-4.09-1.95-.74-.53-1.78-.35-2.3.39,0,0-.01.02-.02.03-.84,1.02-1.81,1.9-2.7,2.88-.3.48-.92.63-1.4.34-.03-.02-.06-.04-.08-.06-1.16-.6-2.37-1.12-3.53-1.72-.61-.39-1.42-.25-1.86.32-1.16,1.26-2.42,2.42-3.58,3.62-.26.4-.8.52-1.2.26-.04-.02-.07-.05-.1-.08-.93-.56-1.9-1.02-2.83-1.58-.66-.59-1.68-.53-2.27.13-.05.06-.1.13-.15.19-.98,1.12-2.18,2.14-3.16,3.25-.37.62-1.17.81-1.78.45-.06-.04-.12-.08-.17-.12-1.07-.6-2.23-1.07-3.35-1.63-.58-.37-1.34-.28-1.81.23-1.25,1.12-2.56,2.14-3.81,3.25-.37.41-1,.47-1.44.14-1.25-.74-2.56-1.44-3.86-2.09-.63-.24-1.02-.86-.98-1.53.05-2.79.09-5.58.05-8.36,0-.93.56-1.16,1.16-1.53,2.74-1.49,5.48-3.02,8.22-4.55.68-.23,1.14-.86,1.16-1.58,0-.88-.6-1.21-1.21-1.53-2.14-.98-4.32-1.95-6.46-2.93-.41-.16-.82-.35-1.21-.56,1.86-1.16,3.53-2.28,5.25-3.3.38-.15.81-.12,1.16.09,2.6,1.53,5.2,3.07,7.71,4.69.42.4.65.95.65,1.53-.05,5.02-.19,10.08-.28,15.1,0,.56.11,1.11.32,1.63,1.67-1.67,3.95-2.79,3.76-5.71-.09-1.63.09-3.25.05-4.88-.09-.86.4-1.68,1.21-2,2.23-1.12,4.41-2.28,6.6-3.44.79-.42,1.55-.89,2.28-1.39,1.07-.74,1.02-1.77-.09-2.37-1.95-.98-3.9-1.86-5.9-2.74-.74-.32-1.58-.6-2.65-1.02,2-1.25,3.72-2.37,5.53-3.44.23-.14.7.05.98.19,2.51,1.49,5.02,3.02,7.57,4.55.62.34.97,1.02.88,1.72-.09,4.51-.14,8.97-.19,13.48,0,.6.09,1.21.19,2.14,1.9-1.67,3.9-3.02,4-5.39.32-9.29.46-18.59.7-27.88-.03-.48-.1-.96-.19-1.44ZM80.25,80.29c-.88.46-1.63.93-2.42,1.3-1.67.79-2.65,1.9-2.51,3.9.14,2.42.05,4.88.05,7.34.19.05.32.14.51.19l2.7-2.56c1.11-.94,1.75-2.31,1.77-3.76,0-1.77.09-3.53.14-5.34-.1-.35-.18-.7-.24-1.06ZM55.16,96.93c.14.05.23.14.37.19,1.07-.79,2.08-1.66,3.02-2.6.59-.59.97-1.36,1.07-2.18.19-2.28.19-4.55.23-6.83-.04-.41-.12-.81-.23-1.21-1.49.98-2.88,1.81-4.18,2.74-.23.14-.28.6-.28.98-.09,2.6-.14,5.25-.19,7.85.05.37.14.74.19,1.07ZM95.86,68.4c2.09-1.3,3.9-2.42,5.71-3.53v-.42c-1.81-.88-3.62-1.77-5.71-2.79v6.74Z"/>
      <path class="cls-1" d="M26.67,62.96c-2.37-1.49-4.51-2.74-6.6-4.14-.28-.19-.28-.84-.23-1.25.14-3.72.37-7.43.51-11.15,0-.51-.05-.98-.09-1.81-.93.51-1.67.88-2.32,1.3-3.81,2.37-3.25,1.16-3.35,5.86-.14,4.74-.14,9.43-.19,14.17,0,.37-.05.74-.09,1.39-.65-.42-1.16-.7-1.67-1.02-1.26-.79-2.46-1.58-3.76-2.28-.68-.33-1.04-1.08-.88-1.81.42-5.72.84-11.43,1.12-17.15.19-4.14.19-8.27.28-12.41-.02-.58-.06-1.15-.14-1.72-.98.79-1.67,1.35-2.32,1.95-1.9,1.63-1.3,1.39-3.35.37-1.16-.56-2.28-1.16-3.58-1.81.34-.3.7-.58,1.07-.84,5.62-3.76,11.38-7.53,17.15-11.24.46-.29,1.02-.36,1.53-.19,2.28.98,4.46,2.14,6.74,3.16.58.2.95.78.88,1.39-.23,12.59-.42,25.14-.65,37.73-.04.49-.06.99-.05,1.49ZM14.82,45.26c2-1.25,3.76-2.32,5.44-3.44.23-.14.28-.6.28-.93.14-3.49.28-6.97.33-10.41.09-3.39.05-3.39-2.97-4.83-.74-.37-1.39-.37-1.86.28-.37.47-.59,1.03-.65,1.63-.23,4.79-.42,9.57-.56,14.36-.05.97,0,1.95,0,3.34h0Z"/>
      <path class="cls-1" d="M31.32,70.86c-1.35.98-2.51,1.72-3.53,2.56-.51.59-1.41.65-2,.13-.02-.01-.03-.03-.05-.04-1.39-.93-2.93-1.72-4.51-2.65.31-.23.64-.45.98-.65,6.37-3.81,12.75-7.59,19.14-11.34.39-.2.85-.22,1.25-.05,1.72.74,3.39,1.53,5.02,2.37.35.23.59.6.65,1.02-.05,7.43-.19,14.87-.32,22.26-.08.58-.4,1.11-.88,1.44-2.79,1.81-5.62,3.53-8.5,5.25-.85.38-1.38,1.25-1.3,2.18.05,4.74.05,9.43.05,14.17v1.49c-1.63-1.02-3.02-2.04-4.55-2.83-1.77-.88-2.23-2-2.14-4.04.47-9.85.6-19.7.84-29.55,0-.42-.1-.88-.14-1.72ZM37.31,88.8c.14.09.23.14.37.23,1.24-.77,2.43-1.6,3.58-2.51.51-.47.81-1.12.84-1.81.14-5.95.19-11.9.28-17.84,0-.32-.05-.84-.23-.93-.74-.46-1.72-1.21-2.37-1.02-1.22.22-2.11,1.27-2.14,2.51-.09,6.6-.23,13.2-.37,19.84-.05.51-.04,1.03.05,1.53h0Z"/>
      <path class="cls-1" d="M96.09,43.63c-2.09-.93-3.9-1.67-5.71-2.56-.28-.14-.42-.79-.42-1.16.09-3.9.28-7.81.42-11.71.05-1.67-.05-3.35.05-4.97.18-1.15-.49-2.26-1.58-2.65-.65-.33-1.26-.7-2-1.12,1.72-1.07,3.3-2.09,4.97-3.07.39-.11.81-.06,1.16.14.79.42,1.53.88,2.28,1.35.51.38,1.23.32,1.67-.14.98-.79,2-2,3.07-2.09,1.02-.09,2.14,1.07,3.25,1.58.98.47,2,.84,2.93,1.21.14-.14.23-.23.23-.28-.19-1.72.88-2.46,2.18-3.25,1.58-.98,3.02-2.14,4.55-3.16.42-.19.88-.29,1.35-.28.14,0,.28.14.42.19,2.46,1.11,4.93,2.28,7.57,3.49-1.53,1.11-2.93,2.18-4.32,3.21q-1.44,1.07-2.88,0c-.93-.7-1.91-1.34-2.93-1.91-.28,2.78-.38,5.57-.28,8.36,3.3-1.72,6.32-3.25,9.43-4.83.05.47.09.79.09,1.12,0,3.81-.05,7.57-.05,11.38.05.74-.31,1.45-.93,1.86-2.6,1.9-5.2,3.9-7.81,5.85-.28.19-.88.37-1.12.23-2.42-1.53-4.79-3.16-7.3-4.83,1.63-1.49,3.16-2.88,4.69-4.28,2.18,1.81,4.32,3.58,6.46,5.3.11-.09.24-.17.37-.23.6-3.72.42-7.48.42-11.52-3.58,1.39-6.55,3.49-9.94,5.2v-9.9c-.09-.05-.19-.14-.28-.19-.74.6-1.53,1.21-2.28,1.86-.88.74-1.72,1.95-2.7,2.05-.88.09-1.86-1.02-2.79-1.63-.42-.29-.85-.55-1.3-.79-.93-.51-1.26-.33-1.3.74-.05,2.46-.14,4.97-.09,7.44.05,4.23.19,8.41.32,12.64.09.44.13.9.1,1.35Z"/>
      <path class="cls-1" d="M155.43,2.7c1.95,1.12,3.86,2.18,5.76,3.21.93.47.6,1.21.6,1.9-.09,5.2-.14,10.45-.28,15.66-.12.91.46,1.77,1.35,2,1.11.33,2.18.7,3.44,1.07-.15.21-.32.39-.51.56-1.53,1.11-3.02,2.28-4.6,3.35-.39.2-.85.22-1.26.05-1.11-.51-2.18-1.16-3.3-1.67-.67-.24-1.06-.93-.93-1.63.09-5.2.19-10.45.23-15.66,0-1.16-2.28-3.44-3.44-3.35-.23,0-.56.6-.6.98-.14,2.32-.28,4.65-.28,6.97-.05,4.83-.05,9.66-.05,14.5,0,.33-.05.65-.09,1.21-1.95-.98-3.81-1.81-5.58-2.83-.33-.19-.37-1.11-.37-1.67.09-2.37.33-4.69.42-7.06.14-2.97.19-5.95.33-8.92.17-.9-.35-1.79-1.21-2.09-.88-.32-1.77-.79-2.83-1.3,1.21-.8,2.38-1.66,3.48-2.6,1.11-1.02,2.14-1.21,3.35-.28,1.26.98,2.42.79,3.62-.23.83-.75,1.81-1.4,2.74-2.15Z"/>
      <path class="cls-1" d="M125.46,21.89c0-2.46.05-5.39,0-8.32-.06-.77.37-1.49,1.07-1.81,2.56-1.44,5.07-2.97,7.62-4.41.41-.2.88-.22,1.3-.05,1.9.88,3.72,1.91,5.62,2.79.59.21.97.77.93,1.39-.09,5.67-.19,11.38-.28,17.05-.02.48-.24.93-.6,1.26-2.88,2.09-5.76,4.18-8.69,6.18-.42.22-.92.24-1.35.05-1.72-.93-3.39-2-5.11-2.97-.6-.28-.94-.93-.84-1.58.09-3.07.18-6.04.32-9.57ZM131.17,21.89h-.19v9.62c0,1.21.37,1.39,1.3.79.92-.58,1.78-1.24,2.6-1.95.58-.53.97-1.23,1.11-2,.23-4.69.33-9.34.42-14.03-.08-.54-.41-1.02-.88-1.3-1-.58-2.04-1.1-3.11-1.53-1.02-.47-1.21-.37-1.21.79-.04,3.21-.04,6.41-.04,9.62Z"/>
      <path class="cls-1" d="M20.54,101.34c.1-1.5.09-3.01-.05-4.51-.51-2.18.71-4.39,2.83-5.11,1.33-.72,2.61-1.54,3.81-2.46v2.74c-.05,1.58-.09,3.16-.23,4.74-.03.37-.19.72-.47.98-1.81,1.21-3.62,2.37-5.44,3.53-.09.09-.23.05-.46.09Z"/>
    </g>
  </g>
</svg>