<?xml version="1.0" encoding="UTF-8"?>
<svg id="Layer_2" data-name="Layer 2" xmlns="http://www.w3.org/2000/svg" viewBox="0 0 210 123.55">
  <defs>
    <style>
      .cls-1 {
        fill: #fff;
        stroke-width: 0px;
      }
    </style>
  </defs>
  <g id="Layer_1-2" data-name="Layer 1">
    <g>
      <path class="cls-1" d="M166.31,115.85c-.62.29-1.41.36-2.45.36h-.46v-4.91c0-.84.1-1.06,1.47-1.06,1.28,0,3.27.9,3.27,2.92,0,1.03-.49,2.01-1.83,2.69M146.72,122.2c-3.27,0-4.93-3.34-4.93-6.12,0-3.68,2.36-6.15,4.93-6.15,2.87,0,5.04,2.02,5.04,6.25,0,2.98-2.18,6.02-5.05,6.02M68.57,117.73l1.98-4.03h.1l2.01,4.03h-4.09ZM40.59,115.89c-.61.3-1.38.36-2.41.36h-.45v-4.9c0-.85.1-1.07,1.45-1.07,1.25,0,3.22.84,3.22,2.88,0,1.04-.48,2.04-1.8,2.73M14.79,121.9c-2.21,0-3.22-.63-3.22-3.18v-10.95c0-.71.05-1.37.28-1.43.32-.11.92-.2,1.98-.2,3.92,0,8.94,1.71,8.94,7.84,0,5.05-4.01,7.91-7.97,7.91M204.36,114.65l-.73-.21c-2.15-.59-3.4-1.22-3.4-2.27s1.19-1.76,2.87-1.76c2.61,0,3.76,1.42,4.49,2.81l1.45-.15c-.36-1.43-.59-2.46-.72-3.28-.43-.08-.96-.17-1.72-.29-.96-.17-2.01-.26-3.04-.26-5.18,0-7.89,1.94-7.89,4.31,0,2.25,3.04,3.36,5.77,4.14l.5.15c2.05.55,3.3,1.28,3.3,2.52,0,1.37-1.34,2.01-3.06,2.01-3.23,0-5.16-2.26-5.85-3.48l-1.45.27c.29,1.05.61,1.94.85,2.73l.13.41c-.25-.05-.44-.1-.44-.1-.78-.21-1.56-.64-2.71-1.63-2.05-1.77-4.19-3.93-6.21-5.93,1.36-1.03,2.99-2.1,4.74-3.2,1.69-1.07,2.7-1.1,4.55-1.23v-.86h-8.71v.71h1.24c.88.07.52.64.07,1.02-1.89,1.6-3.87,3.15-6.24,4.88v-3.28c0-2.27.26-2.49,2.41-2.62v-.71h-10.14v.71c2.27.13,2.53.35,2.53,2.62v7.17c0,.82-.04,1.41-.18,1.82-.21.55-.92.65-1.42.57-.69-.11-1.23-.62-1.69-1.11-.5-.53-1.01-1.07-1.52-1.59-.94-.97-2.16-2.57-2.62-3.16,2.42-.61,4.22-1.7,4.22-3.55,0-1.24-.98-2.26-2.29-2.79-1.27-.53-2.98-.68-5.53-.68h-10.4l.21.71c2.19.13,2.24.35,2.24,2.62v2.99c-.11-4.09-5.23-6.85-11.27-6.85-4.8,0-7.55,1.43-9.35,3.3,1.1-2.16,1.83-3.53,1.94-3.69,1.55-2.54,1.96-2.51,4.52-2.74v-.97h-10.92v.97l1.74.12c1.96.12,2.1.35,1.51,2-.64,1.7-2.33,5.73-3.93,9.11l-.09-.16-6.95-12.06h-3.2l-5.99,12.06-.09.16-4.34-9.62c-.55-1.18-.41-1.35,1.28-1.49l1.46-.12v-.97h-14.26v.97c2.1.17,2.92.17,4.16,2.57l.56,1.1h-6.81l-5.09,8.44-5.82-8.44h-7.82v.71c2.63.15,2.9.51,2.66,3.19l-.37,4.3c-.17,1.94-.37,3.07-.53,3.73-.06.23-.09.5-.29.54-.23.03-.74-.76-1.17-1.54-1.22-2.17-2.59-4.69-3.97-7.22l-2.17-4.03-2.21.3-6.4,11.02c-.07.13-.15.24-.21.35-.24.32-.49.63-.74.8-.72.51-2.57.64-3.87.64-1.01,0-1.75-.02-2.27-.19-.58-.19-.65-.77-.65-1.88v-3.43h1.63c2.79,0,2.89.09,3.22,1.96h1.43v-5.03h-1.43c-.33,1.62-.42,1.7-3.22,1.7h-1.63v-4.07c0-.75.06-.85,1.3-.85h.55c1.72,0,2.79.13,3.31.49.52.34.88,1.04,1.2,2.09l1.43-.07c-.16-1.6-.32-3.15-.36-3.51h-15.4v.71c2.18.13,2.44.4,2.44,2.7v7.03c0,1.62-.13,2.17-1.09,2.4-.34.08-.7.08-1.03-.02-.28-.08-.51-.25-.74-.43-.51-.43-1.22-1.15-2.31-2.28-.93-.98-2.12-2.45-2.57-3.05,2.38-.62,4.15-1.73,4.15-3.6,0-1.26-.96-2.22-2.25-2.75-1.25-.53-2.93-.73-5.43-.73h-10.46c-.74-.88-1.6-1.58-2.46-2.11-3.09-1.85-7.79-2.54-13.45-2.54H.37v1.11c3,.17,3.36.37,3.36,3.45v9.41c0,3.08-.37,3.43-3.73,3.6v.92h11.89c10.64,0,19.35-3.01,19.35-10.11,0-1.08-.34-2.05-.87-2.9h.29s.46-.01.87.06c.04,0,.37.08.57.26.4.37.48,1.02.48,2.26v7.03c0,2.3-.26,2.54-2.54,2.67v.74h10.16v-.74c-2.22-.13-2.47-.37-2.47-2.67v-2.56h.42c.61,0,1.06.32,1.35.77,1.14,1.69,2.35,3.62,4.24,4.55,1.28.63,2.68.64,4.08.64h21.23v-.74h-.93c-1.47-.11-1.5-.47-1.06-1.39l.96-2h5.25l1.15,2.13c.42.77.35,1.13-.83,1.24l-.96.02v.74h14.13v-.74c-2.16-.11-2.89-.39-3.03-1.18-.13-.66-.17-1.68-.07-3.52l.23-4.73h.07l6.23,10.16h1.52l6.56-10.91h.13l.1,7.5c.03,2.36-.07,2.52-2.56,2.67v.74h10.42v-.67c-2.4-.15-2.46-.37-2.56-2.73l-.33-7.14c-.09-1.93,0-2.37,1.67-2.55l6.78,13.11h3.52l6.12-11.52h.09l6.72,11.52h3.52c1.31-2.86,2.61-5.36,3.74-7.65-.02.2-.04.4-.04.6,0,3.87,4.37,7.27,11.11,7.27,6.33,0,11.16-3.06,11.27-7.47v3.89c0,2.27-.26,2.49-2.59,2.61v.75h10.53v-.75c-2.26-.13-2.52-.34-2.52-2.61v-2.68h.42c.62,0,1.08.32,1.38.76.8,1.2,1.59,2.44,2.63,3.46.99.96,2.24,1.58,3.61,1.74.7.08,1.4.08,2.1.08h11.19v-.74c-2.31-.13-2.63-.34-2.57-2.61v-3.36h.06c2.37,2.29,5.76,5.37,6.99,6.72h8.14c.88.14,2.17.3,3.31.3h0c.32.02.64.03.97.03,5.11,0,8.38-1.89,8.38-4.48,0-2.46-2.61-3.55-5.64-4.42"/>
      <path class="cls-1" d="M103.25,66.43c.19.53.38,1.07.6,1.6.25.6.53,1.18.84,1.74-2.23,1.2-4.17,2.56-5.65,3.7-.44-1.26.19-2.54.62-3.79.08-.24.18-.49.29-.73h.04c.18-.02.57-.04.75-.08.38-.07.88-.13.94-.62.01-.08.01-.16.01-.23,0-.62.44-3.03.6-3.92.4.91.84,1.95.98,2.33,0,0,0,0,0,0M86.71,47.12c1.57,2.02,2.97,4.11,4.19,6.27,0-.01,0-.03,0-.05.03-.16.13-.32.29-.37.14-.04.25.06.32.16.1.16.17.32.28.47.15.19.27.37.49.45.21.08.49.14.7.21.22.07.35.1.57.17.37.1.73.27.98.57.15.17.26.39.43.54.19.18.41.33.63.46,1.09.63,2.39.89,3.65.89.6-.99,1.51-1.71,2.93-1.65,1.04.04,1.74.5,2.34,1.14,1.95-.37,3.56-1.5,4.93-2.88.21-.21.48-.5.81-.79l-.75-.98c-.41,0-.73.02-1.15.01-.32,0-.73-.07-1.02-.21-.27-.14-.52-.37-.56-.68-.02-.17.03-.34,0-.49-.04-.15-.27-.21-.35-.33-.06-.1-.04-.25.02-.35,0-.01.11-.15.13-.14-.02-.01-.03-.03-.05-.04-.14-.1-.29-.2-.24-.41.04-.16.31-.22.18-.42-.05-.07-.12-.14-.19-.2-.23-.18-.37-.34-.4-.52-.01-.33.57-.72.88-1.01.18-.18.31-.4.27-.66-.04-.32-.11-.62-.13-.94,0-.16,0-.32.01-.48-.24.41-.76.44-.76.44.46-.66.39-.85.39-1.4-.06-.67.56-1.23.58-1.24-.52-.27-.82.32-.84.31.1-1.61,1.66-1.38,1.64-1.4-.72-.49-.71-1.21-.71-1.22.18.21.39.4.66.49.3.1.61.16.93.19.31.02.63-.04.94-.1.42-.08.84-.17,1.26-.25,2.27-.68,3.67.49,3.67.51-.29-.44-.18-.77-.18-.78.09.26.28.36.5.6.21.23,1,.73,1.55,1.13.55.39.78,1.31.8,1.31.9-.11,1.14.62,1.17.75-.64-.41-.56.85-.54,1.14.01.56.01,1.12-.11,1.67-.29,1.24-1.2,2.34-2.31,2.96-.25.14-.56.29-.68.57-.02.05-.02.12,0,.2.12-.07.26-.11.37-.14.29-.07,1.04-.25,1.14.18.06.23.18.82.27.93.08.1.31.28.54.56.14.14.27.29.39.44.33.42.61.87.85,1.34.35.67.62,1.38.83,2.11.29.98.48,1.99.59,3.01.09.77.15,1.56.17,2.35,0,.35,0,.71,0,1.06,1.91-2.12,3.53-4.47,4.81-7.04,2.34-4.72,3.49-9.96,3.53-15.22.15-20.16-15.31-38.18-39.9-33.83-4.44.79-8.83,2.48-12.71,4.76-4.16,2.44-7.89,5.71-10.63,9.69-1.43,2.06-2.69,4.24-3.78,6.5,3.09,1.45,7.77,3.91,12.67,7.51,5,3.65,9.28,7.75,12.72,12.17M93.93,58.45c-.18.01-.35.02-.53.03.19.46.38.93.56,1.4.03-.11.09-.22.21-.31.34-.22.77-.02,1.07.19.87.61,1.79.81,2.78.7.1-.39.2-.77.31-1.15-.46-.13-.91-.27-1.37-.42-.53-.18-1.05-.37-1.6-.44-.48-.06-.96-.02-1.44,0M105.02,0c-10.6,0-20.4,3.4-28.38,9.17.02.03.09.06.3-.07,2.23-1.43,4.69-2.59,7.13-3.6.74-.31,1.49-.59,2.24-.86,7.37-2.63,15.33-3.38,22.98-2.04,3.01.53,5.94,1.37,8.76,2.53,8.23,3.39,15.51,9.38,19.77,17.26,4.66,8.61,6.2,19.18,3.67,28.69-1.49,5.6-4.36,10.79-8.14,15.17-3.89,4.51-8.75,8.17-14.14,10.72-5.52,2.6-11.59,3.99-17.7,4.03-.22.52-.33,1.06-.49,1.62-.04.15-.06.31-.11.45-.15.41-.61.36-.98.34-.17,0-.46-.04-.63-.06-.44.54-.85,1.1-1.1,1.66l-.03.06c-.46,1-.74,1.6-.41,2.44.12.29.15.63.11.94-.03.31-.11.63-.36.83-.27.22-.58.19-.9.2-.65.02-1.27.04-1.87.32,0,0,0,0-.01,0-.73.35-1.42.77-2.19,1.04-.74.25-1.59.38-2.28-.04-.12-.07-.23-.17-.36-.23-.11-.06-.24-.06-.35-.08-.46-.07-.76-.27-.87-.56-.07-.2-.03-.41.08-.6.11-.19.31-.2.52-.17.15.02.3.06.45.05.27,0,.54-.07.79-.17.49-.21.91-.56,1.31-.91.35-.33.82-.73,1.24-1.09.34-.28.66-.55.86-.74.35-.34,1.01-.99,1.61-2.06.16-.29.46-1.05.71-1.85-.08-.05-.16-.1-.24-.16-.29-.22-.69-.46-.56-.87.09-.26.21-.51.32-.76-9.94-1.31-15.81-5.72-15.79-5.72,3.24.77,6.63,1.09,10.06.98-.07-.06-.13-.14-.17-.24-.06-.12-.08-.26-.07-.39,0-.14.05-.29.17-.38.02-.02.05-.04.08-.05.06-.02.13,0,.2,0,.31.05.62.06.94.04.22-.01.44-.05.66-.1.11-.02.23-.06.34-.09.19-.05.37-.11.55-.18.18-.06.34-.16.5-.26.41-.25.8-.53,1.14-.86.65-.63,1.09-1.02,1.57-1.79.02-.04.06-.12.08-.19.37-.94.6-1.93.81-2.9.02-.07.06-.28.11-.58-.02-.01-.04-.02-.06-.04-.37-.23-.81-.57-.63-1.1.11-.34.17-.37.29-.7.11-.31.29-.99.42-1.51.15-.6.31-1.2.46-1.81-.22.03-.43.07-.64.16-.53.23-.99.56-1.51.81.13.45.25.9.37,1.36.04.19.01.37-.08.52-.1.17-.25.28-.44.32-.05.01-.11.02-.17.02h-.02c-.32-.01-.59-.24-.66-.54-.14-.56-.3-1.12-.46-1.68-.1-.08-.17-.16-.21-.23-.61.01-.77-.42-.81-.6,0,0,0,0-.01,0-.65-.28-.56-.91-.56-.91-.19-.03-.32-.23-.39-.43-.21-.53.26-.93.69-1.08.05-.02.12-.03.2-.05-.26-.68-.54-1.37-.83-2.05-.55-.14-.6-.45-.59-.44-.49,0-.64-.57-.63-.6-.63-.05-.69-.87-.69-.87-.36-.11-.46-.39-.44-.62.01-.17.19-.31.41-.42,0,0,0,0,0,0,.14-.06.28-.12.43-.17-1.33-2.54-2.93-4.99-4.76-7.35-3.51-4.51-7.66-8.58-12.33-12.09-4.12-3.1-8.35-5.64-12.39-7.45-.76,1.68-1.44,3.4-2,5.15-1.5,4.65-2.28,9.51-2.33,14.39,0,.18,0,.35,0,.53,0,26.79,21.72,48.51,48.5,48.51s48.51-21.71,48.51-48.5c0-26.79-21.71-48.51-48.5-48.51M110.35,59.8c-.78.29-1.69.59-2.7.83.96,1.32,1.95,2.63,2.96,3.92h0s.3.33.66.72c.08-.6.14-1.21.16-1.82.03-1.13-.35-2.69-1.06-3.61-.01-.01-.02-.02-.03-.04"/>
    </g>
  </g>
</svg>