<?xml version="1.0" encoding="UTF-8"?>
<svg id="Layer_2" data-name="Layer 2" xmlns="http://www.w3.org/2000/svg" viewBox="0 0 195.98 55.06">
  <defs>
    <style>
      .cls-1 {
        fill: #fff;
        fill-rule: evenodd;
        stroke-width: 0px;
      }
    </style>
  </defs>
  <g id="Layer_1-2" data-name="Layer 1">
    <path class="cls-1" d="M192.82,29.8c.41-.48,1.15-.46,1.52.05h0l1.43,1.96c.27.38.27.9-.01,1.26-2.49,3.22-6.84,6.33-12.09,6.63-4.15.24-7.57-1.34-9.43-4.31-.37-.59-1.18-.62-1.59-.07-2.21,2.97-4.88,5.28-7.67,5.44-4.96.28-6.36-3.04-5.13-10.38.12-.73-.52-1.35-1.21-1.17-1.03.27-2.12.39-3.23.3-.46-.04-.89.24-1.03.7-1.84,6.03-6.2,11.64-11.86,11.96-3.61.21-9-1.86-8.46-10.5.04-.7-.59-1.26-1.24-1.06-1.13.34-2.35.51-3.59.4-.46-.04-.89.24-1.03.7-1.84,6.03-6.2,11.64-11.86,11.96-3.61.21-9-1.86-8.46-10.5.04-.7-.59-1.26-1.24-1.06-1.13.34-2.35.51-3.59.4-.46-.04-.89.24-1.03.7-1.84,6.03-6.2,11.64-11.86,11.96-2.57.15-6.04-.86-7.64-4.56-.31-.72-1.23-.82-1.68-.2-2.23,3.05-4.95,5.45-7.79,5.61-2.91.17-4.5-1-5.2-3.08-.25-.74-1.16-.91-1.66-.33-1.99,2.34-4.25,4.05-6.54,4.18-3.53.2-5.56-2.41-5.73-5.58-.19-3.7,1.41-8.03,3.19-12.75.25-.66-.2-1.37-.88-1.4-1.03-.04-2.21-.15-3.31-.36-.5-.1-.98.21-1.12.72-2.11,7.54-5.35,14.93-8.08,19.3-.3.49-.94.62-1.39.28l-2.08-1.53c-.43-.32-.54-.93-.26-1.39,3.94-6.32,7.44-16.21,8.65-23.52.08-.47.46-.81.91-.84l2.77-.16c.64-.04,1.14.56,1.02,1.21v.07c-.12.58.27,1.13.83,1.2,2.49.34,6.2.38,8.72.29.71-.03,1.21.71.95,1.39-2.02,5.38-4.73,12.84-4.58,15.79.07,1.33.66,2.06,1.69,2,1.98-.11,5.03-4.09,7.33-8.53.04-.08.07-.16.09-.25.78-3.47,1.93-7.34,3.1-11.25l.07-.24c.12-.41.47-.69.88-.72l3.32-.19c.69-.04,1.2.65.99,1.33-.17.56-.34,1.12-.51,1.67-2.92,9.57-5.37,17.61-2.07,17.43,2.16-.12,5.22-3.79,7.85-9,.04-.09.07-.18.09-.27.13-.68.29-1.39.49-2.14,1.53-6.13,3.27-12.2,5.02-18.28.54-1.88,1.08-3.75,1.61-5.63.12-.42.47-.71.89-.73l3.41-.19c.69-.04,1.2.66.99,1.34-1.36,4.27-2.78,8.82-4.13,13.19-.28.92.7,1.69,1.48,1.16,1.34-.92,2.9-1.53,4.4-1.62,3.83-.22,6.44,2.94,6.69,7.69.01.25.03.52.04.8.01.53.41.95.91,1,1.8.16,3.65-.38,5.07-1.65.15-.13.25-.31.29-.5,1.41-5.49,2.97-10.93,4.53-16.38.53-1.87,1.07-3.73,1.6-5.6.12-.42.47-.71.89-.73l3.41-.19c.69-.04,1.21.66.99,1.34-1.36,4.27-2.78,8.82-4.14,13.19-.28.92.7,1.69,1.48,1.16,1.34-.92,2.9-1.53,4.4-1.62,3.83-.22,6.44,2.94,6.7,7.69.01.25.03.52.04.8.01.53.41.95.91,1,1.8.16,3.65-.38,5.07-1.65.15-.13.25-.31.3-.5,1.41-5.49,2.97-10.93,4.53-16.38.53-1.87,1.07-3.73,1.6-5.6.12-.42.47-.71.89-.73l3.41-.19c.69-.04,1.2.66.99,1.34-1.36,4.27-2.78,8.82-4.13,13.19-.28.92.7,1.69,1.48,1.16,1.34-.92,2.9-1.53,4.4-1.62,3.83-.22,6.44,2.94,6.7,7.69.01.25.03.52.03.8.01.52.41.95.91,1,1.75.15,3.53-.34,4.94-1.52.16-.13.26-.31.32-.52,1.61-6.2,3.97-14.33,6.25-22.1.12-.41.47-.7.89-.72L172.03,0c.68-.04,1.2.64.99,1.33-3.14,10.41-5.69,19.52-7.1,24.89-1.87,7.29-1.95,9.39.18,9.27,1.79-.1,4.2-2.64,6.47-6.48.09-.15.14-.32.14-.5.3-7.68,5.01-14.66,12-15.07,4.69-.27,7.26,3.27,7.44,6.76.35,6.65-6.22,10.9-12.6,10.51-.74-.05-1.28.75-.95,1.44.89,1.9,2.76,2.97,5.96,2.78,3.04-.17,6.23-2.8,8.25-5.14ZM87.49,31.66c-1.51,6.06.32,8.43,2.7,8.3,3.9-.22,7.67-7.37,7.38-12.88-.13-2.41-1.54-3.66-3.18-3.57-2.74.16-5.69,3.31-6.9,8.15ZM113.67,30.16c-1.51,6.06.32,8.43,2.7,8.3h0c3.9-.22,7.67-7.37,7.38-12.88-.13-2.41-1.54-3.66-3.18-3.57-2.74.16-5.69,3.31-6.9,8.15ZM139.85,28.66c-1.51,6.06.32,8.43,2.7,8.3h0c3.9-.22,7.67-7.37,7.38-12.88-.13-2.41-1.54-3.66-3.18-3.57-2.74.16-5.69,3.31-6.9,8.15ZM187.19,20.74c-.02-1.59-1-2.74-2.58-2.65h0c-3.11.18-5.54,3.55-6.32,7.63-.12.65.35,1.25.99,1.24,4.02-.1,8.04-2.75,7.91-6.22ZM41.39,23.69c-.41-12.31-8.41-20.43-20.23-20.01-5.08.23-10.89,2.16-15.26,5.6-.41.32-.52.92-.24,1.37l1.85,3.02c.32.52.99.62,1.45.24,3.33-2.76,7.87-4.58,12.24-4.77,8.1-.34,14.06,4.85,14.41,14.87.43,11.67-7.41,25.02-20.01,25.74-.44.02-.9.03-1.36.03-.64,0-1.12-.63-.96-1.28,2.43-9.81,5.27-20.34,8.16-30.13.2-.68-.31-1.36-.99-1.32l-3.69.21c-.41.02-.77.31-.89.73-2.78,9.62-5.56,20.06-8.07,29.86-.14.57-.72.89-1.25.71-1.31-.44-2.5-.95-3.52-1.54-.49-.29-1.1-.08-1.35.44l-1.58,3.31c-.23.49-.06,1.09.4,1.35,3.59,2.04,9.04,3.2,14.51,2.89,18.02-1.03,26.85-17.68,26.37-31.32h0ZM76.81,8.57c-2.19.13-4.14,2.59-4,5.19.09,1.71,1.19,2.85,2.89,2.76,2.19-.13,4.19-2.72,4.06-5.19-.09-1.71-1.37-2.84-2.96-2.75Z"/>
  </g>
</svg>