<?xml version="1.0" encoding="UTF-8"?>
<svg xmlns="http://www.w3.org/2000/svg" viewBox="0 0 11.46 16.78">
  <path class="fill" d="m9.32,1c.63,0,1.15.51,1.15,1.15v12.49c0,.63-.51,1.15-1.15,1.15H2.15c-.63,0-1.15-.51-1.15-1.15V2.15c0-.63.51-1.15,1.15-1.15h7.17m0-1H2.15C.96,0,0,.96,0,2.15v12.49c0,1.18.96,2.15,2.15,2.15h7.17c1.18,0,2.15-.96,2.15-2.15V2.15c0-1.18-.96-2.15-2.15-2.15h0Z"/>
  <circle class="fill" cx="5.73" cy="13.07" r="1.05"/>
  <path class="fill" d="m2.19,4.4c-.13,0-.26-.05-.35-.15-.2-.2-.2-.51,0-.71l1.41-1.41c.2-.2.51-.2.71,0s.2.51,0,.71l-1.41,1.41c-.1.1-.23.15-.35.15Z"/>
  <path class="fill" d="m2.19,6.95c-.13,0-.26-.05-.35-.15-.2-.2-.2-.51,0-.71L5.86,2.07c.2-.2.51-.2.71,0s.2.51,0,.71L2.54,6.8c-.1.1-.23.15-.35.15Z"/>
</svg>