<?xml version="1.0" standalone="no"?>
<!DOCTYPE svg PUBLIC "-//W3C//DTD SVG 20010904//EN"
 "http://www.w3.org/TR/2001/REC-SVG-20010904/DTD/svg10.dtd">
<svg version="1.0" xmlns="http://www.w3.org/2000/svg"
 width="300.000000pt" height="300.000000pt" viewBox="0 0 300.000000 300.000000"
 preserveAspectRatio="xMidYMid meet">
<metadata>
Created by potrace 1.11, written by Peter Selinger 2001-2013
</metadata>
<g transform="translate(0.000000,300.000000) scale(0.100000,-0.100000)"
fill="#000000" stroke="none">
<path d="M1667 2776 c-95 -28 -254 -125 -292 -178 -11 -16 -18 -18 -47 -10
-70 19 -185 0 -391 -65 -220 -69 -275 -131 -263 -296 12 -171 112 -448 296
-817 232 -468 313 -533 539 -433 80 35 120 69 143 120 19 43 20 44 41 28 54
-39 143 -75 189 -75 112 0 309 57 369 107 83 70 78 165 -12 248 -24 23 -112
87 -194 142 -83 56 -176 123 -207 150 l-57 48 61 18 c119 36 210 110 268 218
44 82 60 166 56 284 -6 141 -20 203 -71 310 -64 135 -167 206 -305 212 -42 1
-96 -4 -123 -11z m211 -120 c41 -21 89 -71 111 -115 16 -32 46 -112 43 -118 0
-2 4 -17 9 -35 15 -48 20 -196 8 -248 -45 -200 -194 -302 -421 -287 l-87 6 37
-52 c81 -114 207 -221 444 -381 132 -89 151 -104 167 -135 11 -19 10 -26 -5
-42 -29 -32 -163 -75 -267 -86 -84 -8 -160 41 -302 198 -73 81 -82 92 -174
229 -46 69 -81 116 -77 105 4 -11 48 -127 97 -258 50 -131 91 -251 91 -267 1
-39 -17 -59 -80 -87 -75 -33 -126 -39 -157 -19 -22 14 -105 117 -105 130 0 3
-14 29 -31 58 -18 29 -69 127 -114 218 -206 411 -318 761 -272 850 20 39 99
75 262 121 168 47 240 54 261 24 13 -17 19 -69 16 -120 -1 -11 15 12 36 50 65
123 187 227 312 266 64 20 153 18 198 -5z"/>
<path d="M1474 910 c-104 -21 -208 -103 -252 -198 -82 -179 -10 -377 170 -468
72 -37 195 -43 270 -13 183 72 277 248 228 429 -47 174 -232 286 -416 250z
m183 -131 c116 -56 164 -196 109 -315 -71 -153 -286 -190 -397 -67 -55 60 -64
84 -64 164 0 67 4 81 30 125 32 52 114 110 164 116 52 7 117 -3 158 -23z"/>
</g>
</svg>
