<svg id="bc-front" xmlns="http://www.w3.org/2000/svg" xmlns:xlink="http://www.w3.org/1999/xlink" width="399.868" height="639.604" viewBox="0 0 399.868 639.604">
  <defs>
    <clipPath id="clip-path">
      <rect id="Rectangle_65" data-name="Rectangle 65" width="399.868" height="639.604" fill="none"/>
    </clipPath>
  </defs>
  <rect id="Rectangle_64" data-name="Rectangle 64" width="399.523" height="399.802" fill="#b2e2f9"/>
  <g id="Group_34" data-name="Group 34">
    <g id="Group_33" data-name="Group 33" clip-path="url(#clip-path)">
      <path id="Path_1382" data-name="Path 1382" d="M59.759,52.407a12.023,12.023,0,0,0,6.447-1.1,15.3,15.3,0,0,0,2.433-1.444,9.832,9.832,0,0,1,2.192-1.4c.5-.215,1.548.511,2.338,1.205.821.692,1.557,1.4,2.084,1.915l1.471,1.449.1.1.122.122.077.077c.024-.009.044-.062.069-.093.188-.3.46-.734.8-1.274.206-.332.456-.728.732-1.168.221-.358.491-.723.761-1.126a10.168,10.168,0,0,1,1.871-2.168c.637-.5,1.15-.369,2.006-.075a16.227,16.227,0,0,0,3.955,1.07,11.23,11.23,0,0,0,6.45-1.163c-2.28-.2-3.747-.245-6.213-.546a14.707,14.707,0,0,1-3.621-1,5.1,5.1,0,0,0-1.63-.358,3.008,3.008,0,0,0-1.966.666,11.462,11.462,0,0,0-2.269,2.579c-.283.422-.571.816-.8,1.183-.115.181-.223.356-.323.518l-.139.221v0c-.031-.031.117.113-.252-.252-.535-.531-1.283-1.252-2.183-2.013a10.676,10.676,0,0,0-1.526-1.115,7.363,7.363,0,0,0-1.011-.438,2.9,2.9,0,0,0-1.254-.02,4.62,4.62,0,0,0-1.761.889c-.4.3-.772.564-1.086.794a14.467,14.467,0,0,1-2.194,1.316l-5.684,2.645" transform="translate(72.414 55.039)" fill="#93cadf"/>
      <path id="Path_1383" data-name="Path 1383" d="M121.739,59.762a13.738,13.738,0,0,0,6.135,4.273,17.512,17.512,0,0,0,3.143.772,11.176,11.176,0,0,1,2.908.619c.577.223.852,1.657.94,2.855.115,1.223.15,2.387.161,3.231.022,1.455.038,2.362.038,2.362s0,.055,0,.161c0,.053,0,.119,0,.2l0,.126c.027.011.086-.015.13-.022.394-.1.964-.23,1.674-.4.434-.1.953-.226,1.533-.365.469-.113.98-.195,1.524-.307A11.554,11.554,0,0,1,143.2,73c.922.1,1.232.621,1.7,1.546a18.465,18.465,0,0,0,2.364,4.043,12.84,12.84,0,0,0,6.191,4.222c-1.7-1.993-2.858-3.2-4.629-5.425a17.048,17.048,0,0,1-2.148-3.72,5.854,5.854,0,0,0-1.04-1.6,3.459,3.459,0,0,0-2.139-1.033,13.085,13.085,0,0,0-3.917.283c-.568.117-1.119.208-1.6.325l-.679.164-.29.069,0,0h0c0-.051,0,.186-.007-.407-.009-.86-.04-2.05-.166-3.391a12.184,12.184,0,0,0-.352-2.132,8.294,8.294,0,0,0-.471-1.17,3.354,3.354,0,0,0-1.006-1.02,5.265,5.265,0,0,0-2.148-.686c-.566-.084-1.082-.159-1.522-.226a16.239,16.239,0,0,1-2.844-.686c-1.424-.506-3.041-1.079-6.755-2.4" transform="translate(147.52 72.418)" fill="#93cadf"/>
      <path id="Path_1384" data-name="Path 1384" d="M39.654,62.664c4.275,2.484,8.115,4.036,14.3,2.984a11.816,11.816,0,0,1,1.743-.2c.535.071.542-.091,1.354,1.181a24.218,24.218,0,0,1,1.528,3.561c.734,2.143,1.338,3.913,1.338,3.913s.142.431.374,1.135c.009,1.318,1.077.27,2.033-.241.958-.568,2.017-1.2,3.043-1.811L67,72.289c4.348-2.183,4.094-1.241,5.481.046A15.925,15.925,0,0,0,79,76.894a22.351,22.351,0,0,0,6.91,1.243,57.451,57.451,0,0,1-5.565-3.72,30.618,30.618,0,0,1-5.054-4.7c-.61-.445-1.026-1.657-3.492-2.459-2.506-.487-4.468.593-6.58,1.6-.515.281-1.135.619-1.774.967l-.513.307c-.325.316-.3-.15-.321-.093,0,0-.022-.064-.053-.17-.093-.257-.217-.613-.354-1a25.215,25.215,0,0,0-1.823-4.189,6.21,6.21,0,0,0-2.022-2.325,4.387,4.387,0,0,0-2.59-.761,13.638,13.638,0,0,0-2.444.265,57.208,57.208,0,0,1-13.675.807" transform="translate(48.051 74.632)" fill="#93cadf"/>
      <path id="Path_1385" data-name="Path 1385" d="M397.236,166.677c-45.31,8.8-65.928-11.391-82.514-27.618-7.71-7.544-14.37-14.062-22.27-16.535-10.84-3.4-20.174.438-28.408,3.818-10.893,4.466-18.094,7.425-25.086-6.244-13.233-25.867-33.066-34.844-54.4-24.652-20.474,9.778-37.237,10.265-52.764,1.522-18.9-10.65-47.232,4.521-48.438,5.176-15.4,8.451-33.46,9.093-53.66,1.922A108.244,108.244,0,0,1,3.548,90.486L0,87.808V533.2H399.868V166.167Z" transform="translate(0 106.403)" fill="#082d74"/>
      <path id="Path_1386" data-name="Path 1386" d="M185.2,183.659c7.551-30.994,4.432-59.5-1.424-74.285-5.768-14.556-13.264-23.294-15.9-26.088l6.737-21.881,2.4-.471a3.565,3.565,0,0,0,.349-6.912l-32.23-9.767a3.508,3.508,0,0,0-4.114,1.615,3.555,3.555,0,0,0,.617,4.377l1.617,1.546L136.53,73.634c-3.751.825-14.863,3.835-27.822,12.625-14.372,9.752-33.789,28.791-44.669,64.119L63.232,153c1.4.46,120.376,30.878,121.97,30.66" transform="translate(76.623 53.432)" fill="#fcf8ca"/>
      <path id="Path_1387" data-name="Path 1387" d="M167.155,108.823c-8.851-11.028-16.491-20.556-35.2-16.144-5.5,1.3-10.824,3.105-15.976,4.857-12.676,4.306-25.69,8.728-39.754,4.266l-23.861,76.45a21.087,21.087,0,0,0,7.781,23.283C67.7,207.014,81.449,215,104,221.948c22.675,6.983,38.744,8.139,48.236,7.881a21.112,21.112,0,0,0,19.627-14.876l27.189-87.214c-15.947.962-24.332-9.484-31.9-18.915" transform="translate(62.318 110.969)" fill="#42beb6"/>
      <path id="Path_1388" data-name="Path 1388" d="M120.626,91.944c-.869.166-3.366.259-9.716-1.5-1.349-.372-2.652-.779-3.91-1.21l2.767-4.532-1.807-1.13c-2.61-1.632-5.456-3.576-7.624-5.213,9.077,2.866,19.074,10.672,20.291,13.582" transform="translate(121.583 94.957)" fill="#fff"/>
      <path id="Path_1389" data-name="Path 1389" d="M120.626,91.944c-.869.166-3.366.259-9.716-1.5-1.349-.372-2.652-.779-3.91-1.21l2.767-4.532-1.807-1.13c-2.61-1.632-5.456-3.576-7.624-5.213C109.412,81.228,119.409,89.034,120.626,91.944Z" transform="translate(121.583 94.957)" fill="none" stroke="#fff" stroke-miterlimit="10" stroke-width="1"/>
      <path id="Path_1390" data-name="Path 1390" d="M98.807,79.128a69.847,69.847,0,0,0,8.327,6.032l-.969,1.584a58.256,58.256,0,0,1-8.52-4.439Z" transform="translate(118.324 95.885)" fill="#fff"/>
      <path id="Path_1391" data-name="Path 1391" d="M98.807,79.128a69.847,69.847,0,0,0,8.327,6.032l-.969,1.584a58.256,58.256,0,0,1-8.52-4.439Z" transform="translate(118.324 95.885)" fill="none" stroke="#fff" stroke-miterlimit="10" stroke-width="1"/>
      <path id="Path_1392" data-name="Path 1392" d="M92.95,75.264c.456-.318,1.595-.577,3.7-.321l-2.17,4.7a7.12,7.12,0,0,1-1.811-3.722c.093-.219.184-.44.276-.659" transform="translate(112.3 90.687)" fill="#fff"/>
      <path id="Path_1393" data-name="Path 1393" d="M92.95,75.264c.456-.318,1.595-.577,3.7-.321l-2.17,4.7a7.12,7.12,0,0,1-1.811-3.722C92.767,75.7,92.858,75.483,92.95,75.264Z" transform="translate(112.3 90.687)" fill="none" stroke="#fff" stroke-miterlimit="10" stroke-width="1"/>
      <path id="Path_1394" data-name="Path 1394" d="M51.979,143.857a6.4,6.4,0,0,1,.878-6.007c2.893-4.01,10.044-5.583,21.866-4.8a111.66,111.66,0,0,1,15.2,2.435l-.913,4.209a107.214,107.214,0,0,0-14.573-2.344c-13.706-.9-17.214,1.814-18.088,3.024a2.172,2.172,0,0,0-.385,1.86Z" transform="translate(62.52 160.987)" fill="#1e2456"/>
      <path id="Path_1395" data-name="Path 1395" d="M130.731,42.421a1.774,1.774,0,0,1,1.11,2.389L119.824,74.845a1.774,1.774,0,0,1-2.139,1.006l-15.157-4.521-.015-.007a1.77,1.77,0,0,1-1.2-2.095l7.35-31.619a1.773,1.773,0,0,1,2.249-1.294Z" transform="translate(122.707 43.911)" fill="#f48164"/>
      <path id="Path_1396" data-name="Path 1396" d="M163.711,99.955c1.75-6.3-15.277-16.9-24.358-19.437-2.76-.77-6.54-1.827-7.693.785a2.944,2.944,0,0,0-.274.871l-1.858,5.085c-.847-.652-1.639-1.3-2.345-1.938l5.149-11.152-2.552-.615c-5.167-1.243-8.1-.679-9.754.429a2.152,2.152,0,0,0-1.236,1.188l-.007.018a4.867,4.867,0,0,0-.728,1.586c-.029.106-.042.219-.062.327-3.021,7.33-14.127,34.382-24.96,62.084-25.743,65.835-24.913,71.033-24.6,72.988,1.239,7.754,7.067,13,19.3,16.763a124.678,124.678,0,0,0,16.378,3.638l1.8.294.588-1.723c.142-.418,14.421-42.262,27.342-85.582a.535.535,0,0,0,.013-.1,186,186,0,0,0,17.093-22.874c6.4-9.9,12.74-22.522,12.773-22.637m-4.293-1.427c-.869.166-3.366.259-9.716-1.5q-2.024-.561-3.91-1.21l2.767-4.534-1.807-1.128c-2.61-1.632-5.456-3.576-7.624-5.213,9.077,2.866,19.074,10.672,20.291,13.582M134.341,86.64a70.1,70.1,0,0,0,8.327,6.031l-.969,1.584a58.472,58.472,0,0,1-8.52-4.439Zm-11.884-9.064c.456-.318,1.595-.577,3.7-.321l-2.17,4.7a7.112,7.112,0,0,1-1.809-3.722c.093-.219.184-.44.274-.659" transform="translate(82.817 88.278)" fill="#f48164"/>
      <path id="Path_1397" data-name="Path 1397" d="M123.4,170.681,121.167,167c2.241-1.36,2.132-2.4,2.1-2.734-.387-3.745-10.632-11.576-38.237-21.33l1.435-4.063c18.234,6.443,40.161,16,41.086,24.951.192,1.862-.372,4.565-4.149,6.859" transform="translate(103.036 168.28)" fill="#1e2456"/>
      <path id="Path_1398" data-name="Path 1398" d="M104.746,209.747a125.014,125.014,0,0,1-16.6-3.691c-12.769-3.933-19.077-9.511-20.446-18.088-.394-2.426-.975-6.018,24.694-71.666l1.236-3.154c-1.65-1.893-3.711-4.928-3.519-8.091a6.72,6.72,0,0,1,6.461-6.1,6.512,6.512,0,0,1,2.468.5l1.5-3.778.739-.241c2.858-.933,6.642-2.121,10.594-3.052a40.42,40.42,0,0,1,9.17-1.157c12.452,0,19.4,7.336,26.563,16.2l.787.978-.723,1.022c-2.01,2.849-4.1,5.636-6.217,8.312a6.868,6.868,0,0,1,1.148,2.276,6.3,6.3,0,0,1-.573,5.142c-1.639,2.754-5.114,4.1-7.551,4.729-10.877,35.99-22.166,67.965-25.389,76.965l-1.17,3.4Z" transform="translate(81.911 110.557)" fill="#5f5a82"/>
      <path id="Path_1399" data-name="Path 1399" d="M121.96,93.8c11.928,0,18.444,7.133,25.278,15.584-2.4,3.393-4.764,6.511-7.1,9.411a4.65,4.65,0,0,1,1.8,2.605c1.3,4.373-3.061,6.994-7.843,8-12.483,41.4-25.641,77.781-25.778,78.182l-.588,1.723-1.8-.294a124.372,124.372,0,0,1-16.376-3.638c-12.231-3.764-18.057-9.006-19.3-16.763-.312-1.955-1.141-4.963,24.6-70.8q.806-2.06,1.615-4.114c-3.384-3.523-5.507-8.137-1.975-11.017a4.659,4.659,0,0,1,2.993-1.155,5.845,5.845,0,0,1,3.315,1.2q.962-2.425,1.909-4.8c3.419-1.115,6.9-2.174,10.462-3.015A38.314,38.314,0,0,1,121.96,93.8m0-3.318a41.971,41.971,0,0,0-9.548,1.2c-4.014.949-7.841,2.148-10.727,3.088l-1.48.482L99.63,96.7l-.657,1.654a7.835,7.835,0,0,0-1.486-.144,8.023,8.023,0,0,0-5.089,1.9,7.917,7.917,0,0,0-3.028,5.755c-.2,3.3,1.588,6.368,3.276,8.5l-.88,2.247c-25.831,66.059-25.258,69.618-24.8,72.48,1.471,9.208,8.334,15.376,21.6,19.461a127.439,127.439,0,0,0,16.818,3.742l1.794.294,2.769.451.907-2.654.588-1.723.1-.274c3.189-8.9,14.312-40.382,25.177-76.235,2.619-.8,5.925-2.333,7.651-5.231a7.92,7.92,0,0,0,.737-6.461,9.1,9.1,0,0,0-.7-1.712c1.878-2.4,3.736-4.9,5.536-7.445l1.449-2.05-1.579-1.951c-7.44-9.2-14.671-16.816-27.857-16.816" transform="translate(80.996 109.648)" fill="#253470"/>
      <path id="Path_1400" data-name="Path 1400" d="M137.52,162.612c-1.075,3.492-19.966,3.03-41.409-3.574S58.792,142.193,59.867,138.7s16.374,9.486,37.817,16.088,40.911,4.331,39.836,7.823" transform="translate(72.483 167.362)" fill="#1e2456"/>
      <path id="Path_1401" data-name="Path 1401" d="M131.838,44.942a1.679,1.679,0,0,1,1.048,2.26L121.525,75.6a1.677,1.677,0,0,1-2.022.951l-14.332-4.275-.015,0a1.676,1.676,0,0,1-1.139-1.982l6.952-29.9a1.673,1.673,0,0,1,2.126-1.223Zm1.267-4.116-18.745-5.773a5.985,5.985,0,0,0-7.589,4.364l-6.952,29.9a6,6,0,0,0,4.067,7.073l.018.007.033.009,14.332,4.275a5.982,5.982,0,0,0,7.219-3.391l.018-.044.018-.042,11.349-28.373a5.983,5.983,0,0,0-3.769-8.007" transform="translate(120.772 42.158)" fill="#f48164"/>
      <path id="Path_1402" data-name="Path 1402" d="M107.676,41.054a1.1,1.1,0,0,1-1.427.513c-.641-.2-1.04-.748-.891-1.228a1.092,1.092,0,0,1,1.427-.511c.639.2,1.04.745.891,1.225" transform="translate(127.632 48.176)" fill="#fff"/>
      <path id="Path_1403" data-name="Path 1403" d="M112.016,41.012a1.459,1.459,0,0,1-1.9.683c-.854-.263-1.387-1-1.19-1.635a1.461,1.461,0,0,1,1.9-.683c.854.263,1.385,1,1.188,1.634" transform="translate(131.942 47.602)" fill="#fff"/>
      <path id="Path_1404" data-name="Path 1404" d="M106.18,43.184c-.245.8.462,1.73,1.581,2.075a1.9,1.9,0,0,0,2.475-.825c.248-.8-.462-1.73-1.581-2.075a1.9,1.9,0,0,0-2.475.825" transform="translate(128.606 51.172)" fill="#fff"/>
      <path id="Path_1405" data-name="Path 1405" d="M111.865,43.157a.715.715,0,1,1-.5-.787.663.663,0,0,1,.5.787" transform="translate(133.889 51.298)" fill="#fff"/>
      <path id="Path_1406" data-name="Path 1406" d="M107.51,51.027a1.415,1.415,0,1,0,1.769-.936,1.415,1.415,0,0,0-1.769.936" transform="translate(130.2 60.623)" fill="#fff"/>
      <path id="Path_1407" data-name="Path 1407" d="M104.713,51.237a.707.707,0,1,0,.885-.469.708.708,0,0,0-.885.469" transform="translate(126.85 61.481)" fill="#fff"/>
      <path id="Path_1408" data-name="Path 1408" d="M107.221,45.888a.707.707,0,1,0,.885-.469.708.708,0,0,0-.885.469" transform="translate(129.889 55)" fill="#fff"/>
      <path id="Path_1409" data-name="Path 1409" d="M110.86,45.806a.829.829,0,1,1-.476-1.2.926.926,0,0,1,.476,1.2" transform="translate(132.397 54.013)" fill="#fff"/>
      <path id="Path_1410" data-name="Path 1410" d="M104.229,44.22c-.115.374.223.81.761.973s1.057,0,1.172-.378-.223-.81-.759-.973-1.057,0-1.174.378" transform="translate(126.275 53.049)" fill="#fff"/>
      <path id="Path_1411" data-name="Path 1411" d="M109.4,38.262a1.765,1.765,0,0,1-2.3.81c-1.035-.318-1.683-1.2-1.446-1.964a1.764,1.764,0,0,1,2.3-.81c1.035.321,1.683,1.2,1.446,1.964" transform="translate(127.971 43.845)" fill="#fff"/>
      <path id="Path_1412" data-name="Path 1412" d="M113.977,40.586a1.415,1.415,0,1,0,1.769-.936,1.415,1.415,0,0,0-1.769.936" transform="translate(138.037 47.971)" fill="#fff"/>
      <path id="Path_1413" data-name="Path 1413" d="M114.861,39.863c-.2.652-1.13.944-2.075.652s-1.55-1.055-1.349-1.707,1.13-.942,2.075-.652,1.55,1.055,1.349,1.707" transform="translate(134.989 46.1)" fill="#fff"/>
      <path id="Path_1414" data-name="Path 1414" d="M107.571,50.32c-.181.586-1.192.8-2.258.467s-1.787-1.07-1.606-1.657,1.192-.8,2.258-.467,1.787,1.07,1.606,1.657" transform="translate(125.635 58.78)" fill="#fff"/>
      <path id="Path_1415" data-name="Path 1415" d="M111.306,54.993c-.27.878-1.652,1.23-3.088.787s-2.38-1.511-2.11-2.389,1.652-1.23,3.088-.787,2.38,1.511,2.11,2.389" transform="translate(128.523 63.513)" fill="#fff"/>
      <path id="Path_1416" data-name="Path 1416" d="M105.4,53.332a1.693,1.693,0,1,1-1.121-2.114,1.693,1.693,0,0,1,1.121,2.114" transform="translate(123.708 61.972)" fill="#fff"/>
      <path id="Path_1417" data-name="Path 1417" d="M101.61,48.844a1.233,1.233,0,1,1,.863,1.323,1.126,1.126,0,0,1-.863-1.323" transform="translate(123.082 58.373)" fill="#fff"/>
      <path id="Path_1418" data-name="Path 1418" d="M103.277,41.536a1.017,1.017,0,1,1,.7,1.168.966.966,0,0,1-.7-1.168" transform="translate(125.103 49.578)" fill="#fff"/>
      <path id="Path_1419" data-name="Path 1419" d="M109.609,52.279a1.128,1.128,0,1,0,1.449-.929,1.225,1.225,0,0,0-1.449.929" transform="translate(132.737 62.173)" fill="#fff"/>
      <path id="Path_1420" data-name="Path 1420" d="M113.991,45.582a1.213,1.213,0,1,1-.8-1.515,1.213,1.213,0,0,1,.8,1.515" transform="translate(135.256 53.333)" fill="#fff"/>
      <path id="Path_1421" data-name="Path 1421" d="M111.71,47.184a1.112,1.112,0,1,0,1.389-.734,1.11,1.11,0,0,0-1.389.734" transform="translate(135.307 56.225)" fill="#fff"/>
      <path id="Path_1422" data-name="Path 1422" d="M113.2,43.2a2.048,2.048,0,1,0,2.437-1.046A1.887,1.887,0,0,0,113.2,43.2" transform="translate(137.09 50.957)" fill="#fff"/>
      <path id="Path_1423" data-name="Path 1423" d="M107.453,40.467a2.122,2.122,0,1,1-1.4-2.654,2.123,2.123,0,0,1,1.4,2.654" transform="translate(125.178 45.706)" fill="#fff"/>
      <path id="Path_1424" data-name="Path 1424" d="M109.068,106.058a2.379,2.379,0,0,0-2.842-1.8,39.124,39.124,0,0,1-13.928.04,9.079,9.079,0,0,1-.237,4.722,43.874,43.874,0,0,0,15.206-.119,2.378,2.378,0,0,0,1.8-2.842" transform="translate(111.558 126.266)" fill="#fcf8ca"/>
      <path id="Path_1425" data-name="Path 1425" d="M104.731,120.981a3.63,3.63,0,0,0,3.134-1.991v0l-.009,0,.024-.035a5.75,5.75,0,0,0,.327-.781l0,0a8.89,8.89,0,0,0,.093-4.764l-.02,0a5.758,5.758,0,0,0-1.232-2.132,8.768,8.768,0,0,0-10.263-2.183A29.293,29.293,0,0,1,85.966,97.77a2.379,2.379,0,1,0-4.182,2.269,33.78,33.78,0,0,0,11.18,12.244l-.011.009c2.617,1.849,5.08,3.72,5.08,3.72a27.9,27.9,0,0,1-6.213-2.74c-3.873,3.419-11.22,10.769-13.372,18.959-1.124,4.26-.057,6.394,1.028,7.436a3.989,3.989,0,0,0,1.579.929,4.663,4.663,0,0,0,2.771-.057c2.749-.86,6.328-4.43,9.5-11.576a67.944,67.944,0,0,1,1.566-10.1,62.109,62.109,0,0,0-.449,8.807,31.032,31.032,0,0,0,2.692,11.391c1.515,3.119,3.2,4.355,4.578,4.782a4.4,4.4,0,0,0,1.048.188,4.263,4.263,0,0,0,3.866-2.17c1.9-3.043,2.05-10.1-2.477-20.915a4.646,4.646,0,0,0,.577.033M82.743,135.853a7.224,7.224,0,0,1,.305-2.411c1.307-4.974,5.111-9.792,8.436-13.249-3.278,10.942-7.268,14.845-8.741,15.659m20.912-18.121c.429-3.917-1.575-5-1.575-5l-1.234-1.221c4.547.246,2.809,6.224,2.809,6.224m-.9,21.277a7.162,7.162,0,0,1-1.34-2.028c-2.249-4.625-2.5-10.756-2.229-15.547,4.638,10.437,4.156,16,3.57,17.575" transform="translate(94.481 116.966)" fill="#fcf8ca"/>
      <path id="Path_1426" data-name="Path 1426" d="M79.2,100.52a2.492,2.492,0,0,1-1.174-.294,2.523,2.523,0,0,1-1.055-3.408c.451-.854,11.293-21.049,32.666-31.363A2.525,2.525,0,0,1,111.828,70c-19.833,9.573-30.292,28.979-30.4,29.175A2.529,2.529,0,0,1,79.2,100.52" transform="translate(92.914 79.011)" fill="#90869f"/>
      <path id="Path_1427" data-name="Path 1427" d="M289.679,156.445c-11.183-5.083-17.513-12.384-22.6-18.249-7.783-8.973-12.065-13.916-27.939-8.312-24.783,8.75-35.472-4.578-44.91-16.336C185.3,102.414,177.584,92.8,158.7,97.252c-5.549,1.309-10.926,3.136-16.126,4.9-16.4,5.571-33.358,11.338-52.395-1.834-9.287-6.425-18.581-2.294-29.346,2.488-9.982,4.435-20.308,9.015-31.555,5.268,0,0,19.419-8.164,28.481-12.191C68.98,90.9,81.7,85.248,94.486,94.091c15.9,11,29.682,6.317,45.647.891,5.37-1.822,10.922-3.709,16.825-5.1,23.529-5.547,33.973,7.454,43.18,18.928,9.367,11.674,16.77,20.9,36.479,13.936,20.74-7.323,28.24,1.329,36.185,10.49,4.844,5.585,16.878,23.21,16.878,23.21" transform="translate(35.473 107.313)" fill="#082d74"/>
      <path id="Path_1428" data-name="Path 1428" d="M195.235,122.823,168.5,209.655a17.005,17.005,0,0,1-15.814,11.979c-9.254.252-24.975-.889-47.305-7.766-22.2-6.837-35.645-14.635-43.012-19.975A16.979,16.979,0,0,1,56.1,175.145L79.942,97.717a39.952,39.952,0,0,1-4.167-1.108L51.983,173.877a21.286,21.286,0,0,0,7.852,23.5c7.633,5.529,21.509,13.594,44.273,20.6,22.89,7.049,39.113,8.217,48.692,7.956a21.309,21.309,0,0,0,19.813-15.018l26.8-87.042c.1-.33.19-.652.29-.98a32.082,32.082,0,0,1-4.472-.077" transform="translate(61.846 117.068)" fill="#5f5a82"/>
      <path id="Path_1429" data-name="Path 1429" d="M67.407,154.076l.748-2.431C78.632,117.628,97.2,99.322,110.937,89.955c14.894-10.159,27.495-12.311,27.616-12.331l1.323-.215,8.281-26.893-1.294-1.236,26.4,8-2.006.391L163.38,83.249l-.389,1.276.967.92c.093.088,9.3,8.955,15.9,25.732,5.649,14.354,10.4,37.416,2.692,67.839a27.354,27.354,0,0,0,4.5-.257c7.549-31,2.586-54.6-3.273-69.383-5.768-14.558-13.264-23.3-15.9-26.09l6.739-21.881,2.4-.469a3.567,3.567,0,0,0,.349-6.914l-32.23-9.767a3.512,3.512,0,0,0-4.114,1.615,3.555,3.555,0,0,0,.617,4.377l1.619,1.546-6.726,21.841c-3.753.827-14.863,3.835-27.822,12.625-14.374,9.752-33.791,28.791-44.671,64.119L63.231,153a32.483,32.483,0,0,0,4.176,1.077" transform="translate(76.621 53.432)" fill="#90869f"/>
      <path id="Path_1430" data-name="Path 1430" d="M130.9,152.328a7.19,7.19,0,1,1-5.56-8.513,7.19,7.19,0,0,1,5.56,8.513" transform="translate(141.383 174.083)" fill="#90d6e7"/>
      <path id="Path_1431" data-name="Path 1431" d="M133.845,157.478a5.342,5.342,0,1,1-4.132-6.326,5.343,5.343,0,0,1,4.132,6.326" transform="translate(149.379 183.024)" fill="#90d6e7"/>
      <path id="Path_1432" data-name="Path 1432" d="M152.1,145.9a15.818,15.818,0,1,1-12.233-18.729A15.818,15.818,0,0,1,152.1,145.9" transform="translate(146.382 153.686)" fill="#90d6e7"/>
      <path id="Path_1433" data-name="Path 1433" d="M146.751,144.4a5.752,5.752,0,1,1-4.448-6.81,5.75,5.75,0,0,1,4.448,6.81" transform="translate(164.036 166.578)" fill="#90d6e7"/>
      <path id="Path_1434" data-name="Path 1434" d="M132.114,162.157a3.415,3.415,0,1,1-2.641-4.043,3.415,3.415,0,0,1,2.641,4.043" transform="translate(151.904 191.509)" fill="#90d6e7"/>
      <path id="Path_1435" data-name="Path 1435" d="M129.221,166.066a2.332,2.332,0,1,1-1.8-2.76,2.33,2.33,0,0,1,1.8,2.76" transform="translate(150.994 197.828)" fill="#90d6e7"/>
      <path id="Path_1436" data-name="Path 1436" d="M141.039,162.135a5.752,5.752,0,1,1-4.448-6.81,5.75,5.75,0,0,1,4.448,6.81" transform="translate(157.114 188.068)" fill="#90d6e7"/>
      <path id="Path_1437" data-name="Path 1437" d="M131.817,147.316a3.608,3.608,0,1,1-2.791-4.273,3.609,3.609,0,0,1,2.791,4.273" transform="translate(151.08 173.24)" fill="#90d6e7"/>
      <path id="Path_1438" data-name="Path 1438" d="M146.142,159.231a9.448,9.448,0,1,1-1.435-13.284,9.448,9.448,0,0,1,1.435,13.284" transform="translate(156.724 174.324)" fill="#90d6e7"/>
      <path id="Path_1439" data-name="Path 1439" d="M132.873,130.23c.6,1.351-.933,3.344-3.428,4.455s-5,.911-5.6-.438.933-3.346,3.428-4.455,5-.913,5.6.438" transform="translate(149.91 156.407)" fill="#fff"/>
      <path id="Path_1440" data-name="Path 1440" d="M138.176,149.747c-.644.624-2.1.17-3.251-1.017s-1.568-2.654-.924-3.278,2.1-.17,3.251,1.015,1.568,2.656.924,3.28" transform="translate(162.01 175.914)" fill="#fff"/>
      <path id="Path_1441" data-name="Path 1441" d="M141.009,139.948c-.2.5-1.121.615-2.053.243s-1.526-1.084-1.325-1.588,1.119-.615,2.052-.243,1.526,1.084,1.325,1.588" transform="translate(166.73 167.393)" fill="#fff"/>
      <path id="Path_1442" data-name="Path 1442" d="M122.246,145.15c.215.553-.438,1.32-1.458,1.716s-2.022.268-2.236-.283.44-1.323,1.46-1.716,2.019-.27,2.234.283" transform="translate(143.609 175.266)" fill="#fff"/>
      <path id="Path_1443" data-name="Path 1443" d="M128.079,152.209c.215.553-.438,1.32-1.458,1.716s-2.022.268-2.236-.283.44-1.323,1.46-1.716,2.019-.27,2.234.283" transform="translate(150.677 183.82)" fill="#fff"/>
      <path id="Path_1444" data-name="Path 1444" d="M134.694,156.5c.215.553-.438,1.32-1.458,1.716s-2.022.268-2.236-.283.44-1.323,1.46-1.716,2.019-.27,2.234.283" transform="translate(158.693 189.017)" fill="#fff"/>
      <path id="Path_1445" data-name="Path 1445" d="M127.8,143.708c.128.33-.263.79-.874,1.026s-1.208.161-1.336-.168.261-.792.871-1.028,1.21-.159,1.338.17" transform="translate(152.163 173.769)" fill="#fff"/>
      <path id="Path_1446" data-name="Path 1446" d="M128.353,158.856c.128.33-.263.79-.874,1.026s-1.208.161-1.336-.168.261-.792.871-1.028,1.21-.159,1.338.17" transform="translate(152.827 192.124)" fill="#fff"/>
      <path id="Path_1447" data-name="Path 1447" d="M126.526,163.811c.08.206-.164.493-.544.641s-.756.1-.836-.106.164-.493.544-.641.756-.1.836.106" transform="translate(151.63 198.269)" fill="#fff"/>
      <path id="Path_1448" data-name="Path 1448" d="M38.461,199.1c0-.65.049-1.252.1-1.856a11.8,11.8,0,0,1,.148-1.9c.1-.6.3-1.2.453-1.8.2-.6.5-1.152.752-1.754a10.227,10.227,0,0,1,.652-1.754,16.907,16.907,0,0,1,.951-1.6,17.361,17.361,0,0,1,1.1-1.553c.4-.451,1-.8,1.4-1.254.451-.4.805-.951,1.3-1.351a13.625,13.625,0,0,1,1.6-.953c.551-.352,1-.8,1.555-1.1.551-.252,1.155-.5,1.705-.752.6-.2,1.2-.3,1.853-.451a9.537,9.537,0,0,1,1.8-.5,11.135,11.135,0,0,1,1.853-.3c.6-.051,1.205-.148,1.856-.148s1.252.1,1.853.148c.652.1,1.3.1,1.9.2s1.2.352,1.8.5a18.069,18.069,0,0,1,1.754.65c.6.252,1.2.4,1.752.652a16.2,16.2,0,0,1,1.6,1,10.625,10.625,0,0,1,1.506,1.152,11,11,0,0,1,1.5,1.152,18.526,18.526,0,0,1,1.15,1.453,8.364,8.364,0,0,1,1.1,1.5,17.4,17.4,0,0,1,.953,1.6,17.985,17.985,0,0,1,.8,1.7c.2.6.5,1.152.65,1.754.2.6.2,1.2.349,1.856.1.6.2,1.2.254,1.851.049.6.248,1.205.248,1.856s-.148,1.252-.2,1.856c-.049.65-.2,1.252-.3,1.851-.148.6-.248,1.2-.449,1.8-.15.6-.2,1.254-.4,1.856a18.8,18.8,0,0,1-.849,1.7,17.365,17.365,0,0,1-1.053,1.553,10,10,0,0,1-1.053,1.5,17,17,0,0,1-1.3,1.4c-.453.4-.852.9-1.354,1.3a8.345,8.345,0,0,1-1.6.953,16.9,16.9,0,0,1-1.6.951,16.91,16.91,0,0,1-1.652.9,12.023,12.023,0,0,1-1.8.5,11.1,11.1,0,0,1-1.856.349c-.6.1-1.2.3-1.853.4-.6.051-1.2.15-1.853.15s-1.252-.1-1.856-.15a10.772,10.772,0,0,1-1.853-.4c-.6-.1-1.252-.1-1.851-.25a10.481,10.481,0,0,1-1.756-.65,18.028,18.028,0,0,1-1.705-.854c-.551-.3-1.053-.6-1.6-.951a16.445,16.445,0,0,1-1.55-1c-.5-.4-1-.8-1.455-1.2a14.705,14.705,0,0,1-1.152-1.453c-.4-.5-.854-.953-1.2-1.453-.349-.553-.551-1.152-.852-1.7a10.706,10.706,0,0,1-.9-1.654,18,18,0,0,1-.7-1.754c-.148-.6-.25-1.2-.349-1.856-.1-.6-.153-1.2-.2-1.851-.051-.6-.1-1.205-.1-1.856m30.418,0a11.315,11.315,0,0,0-.1-1.856,7.624,7.624,0,0,0-.5-1.8c-.15-.6-.3-1.2-.5-1.754a8.874,8.874,0,0,0-.8-1.7,7.972,7.972,0,0,0-1.205-1.4,8.207,8.207,0,0,0-1.351-1.3,11.887,11.887,0,0,0-1.555-1,11.845,11.845,0,0,0-1.6-.9c-.6-.153-1.25-.153-1.853-.252-.6-.051-1.2-.3-1.853-.3a11.163,11.163,0,0,0-1.856.3c-.6.1-1.2.252-1.8.4a10.585,10.585,0,0,0-1.752.652,16.567,16.567,0,0,0-1.5,1.051,16.757,16.757,0,0,0-1.354,1.3,16.824,16.824,0,0,0-1.053,1.5c-.3.553-.65,1.053-.9,1.606a12.106,12.106,0,0,0-.551,1.8,10.573,10.573,0,0,0-.4,1.8,11.241,11.241,0,0,0-.148,1.856c0,.65.148,1.252.2,1.856.1.6.148,1.2.3,1.8.2.6.354,1.2.555,1.8a10.263,10.263,0,0,0,1,1.555,8.1,8.1,0,0,0,2.356,2.858,16.265,16.265,0,0,0,1.5,1.051,10.767,10.767,0,0,0,1.752.752c.555.15,1.205.25,1.8.352a11.166,11.166,0,0,0,1.856.25,9.992,9.992,0,0,0,3.658-.752,17.947,17.947,0,0,0,1.754-.6,8.315,8.315,0,0,0,1.555-1,11.105,11.105,0,0,0,1.349-1.3,6.3,6.3,0,0,0,.953-1.6,10.24,10.24,0,0,0,.9-1.6,14.706,14.706,0,0,0,.7-1.754,10.09,10.09,0,0,0,.3-1.8,11,11,0,0,0,.153-1.856" transform="translate(46.606 218.184)" fill="#fcf8ca"/>
      <path id="Path_1449" data-name="Path 1449" d="M61.277,180.33c.9,0,.9-.051,1.8-.051s.9.1,1.8.1.9.049,1.8.049.9-.1,1.8-.1.9-.051,1.8-.051.9.15,1.8.15.9-.15,1.8-.15h1.8c.9,0,.9.051,1.8.051s.9-.051,1.8-.051h1.8c.854,0,.854.051,1.756.051a1.159,1.159,0,0,1,1.155,1.1c0,1.1-.1,1.1-.1,2.254,0,1.1-.051,1.1-.051,2.256a.948.948,0,0,1-1,1c-.852,0-.852.15-1.7.15-.9,0-.9-.051-1.756-.051H77.662c-.9,0-.9-.15-1.752-.15-.9,0-.9.15-1.756.15H72.4c-.9,0-.9.051-1.756.051H68.894a1.029,1.029,0,0,0-1.1,1c0,.951-.051.951-.051,1.853,0,.953.1.953.1,1.856,0,.951-.051.951-.051,1.853v1.9a1.1,1.1,0,0,0,1.1,1.053h1.8c.9,0,.9.1,1.754.1.9,0,.9-.1,1.8-.1s.9.1,1.8.1h1.8c.9,0,.9-.1,1.754-.1.9,0,.9-.051,1.8-.051a1.157,1.157,0,0,1,1.1,1.152c0,.752.049.752.049,1.553v1.5c0,.8.049.8.049,1.555a1.292,1.292,0,0,1-1.2,1.2c-.9,0-.9-.2-1.8-.2H76.058c-.9,0-.9.15-1.8.15s-.9.051-1.8.051H70.7c-.9,0-.9-.15-1.8-.15a1.158,1.158,0,0,0-1.155,1.1c0,1,.1,1,.1,1.955v7.816c0,.953.051.953.051,1.9a1.291,1.291,0,0,1-1.155,1.2c-.951,0-.951-.051-1.851-.051h-1.8c-.9,0-.9-.1-1.8-.1a1.071,1.071,0,0,1-1.1-1.053c0-.9.051-.9.051-1.8s.049-.9.049-1.853c0-.9-.1-.9-.1-1.8s.051-.9.051-1.853v-1.8c0-.9.1-.9.1-1.854,0-.9-.1-.9-.1-1.8v-1.853c0-.9-.148-.9-.148-1.8s.148-.9.148-1.853c0-.9-.051-.9-.051-1.8s-.049-.9-.049-1.853c0-.9.049-.9.049-1.8s.1-.9.1-1.853v-1.8c0-.9.051-.9.051-1.856,0-.9-.051-.9-.051-1.8v-1.853c0-.9-.2-.9-.2-1.8a1.2,1.2,0,0,1,1.2-1.1" transform="translate(72.798 218.457)" fill="#fcf8ca"/>
      <path id="Path_1450" data-name="Path 1450" d="M76.637,180.33c.9,0,.9-.051,1.8-.051s.9.1,1.8.1.9.049,1.8.049.9-.1,1.8-.1.9-.051,1.8-.051.9.15,1.8.15.9-.15,1.8-.15h1.8c.9,0,.9.051,1.8.051s.9-.051,1.8-.051h1.8c.852,0,.852.051,1.752.051a1.156,1.156,0,0,1,1.155,1.1c0,1.1-.1,1.1-.1,2.254,0,1.1-.049,1.1-.049,2.256a.948.948,0,0,1-1,1c-.852,0-.852.15-1.7.15-.9,0-.9-.051-1.754-.051H93.026c-.9,0-.9-.15-1.756-.15-.9,0-.9.15-1.752.15H87.762c-.9,0-.9.051-1.754.051H84.257a1.031,1.031,0,0,0-1.1,1c0,.951-.051.951-.051,1.853,0,.953.1.953.1,1.856,0,.951-.051.951-.051,1.853v1.9a1.105,1.105,0,0,0,1.1,1.053h1.8c.9,0,.9.1,1.756.1.9,0,.9-.1,1.8-.1s.9.1,1.8.1h1.8c.9,0,.9-.1,1.756-.1.9,0,.9-.051,1.8-.051a1.157,1.157,0,0,1,1.1,1.152c0,.752.049.752.049,1.553v1.5c0,.8.051.8.051,1.555a1.293,1.293,0,0,1-1.2,1.2c-.9,0-.9-.2-1.8-.2H91.423c-.9,0-.9.15-1.8.15s-.9.051-1.8.051H86.057c-.9,0-.9-.15-1.8-.15a1.159,1.159,0,0,0-1.155,1.1c0,1,.1,1,.1,1.955v7.816c0,.953.049.953.049,1.9a1.287,1.287,0,0,1-1.155,1.2c-.951,0-.951-.051-1.851-.051h-1.8c-.9,0-.9-.1-1.8-.1a1.071,1.071,0,0,1-1.1-1.053c0-.9.049-.9.049-1.8s.051-.9.051-1.853c0-.9-.1-.9-.1-1.8s.049-.9.049-1.853v-1.8c0-.9.1-.9.1-1.854,0-.9-.1-.9-.1-1.8v-1.853c0-.9-.148-.9-.148-1.8s.148-.9.148-1.853c0-.9-.049-.9-.049-1.8s-.051-.9-.051-1.853c0-.9.051-.9.051-1.8s.1-.9.1-1.853v-1.8c0-.9.049-.9.049-1.856,0-.9-.049-.9-.049-1.8v-1.853c0-.9-.2-.9-.2-1.8a1.2,1.2,0,0,1,1.2-1.1" transform="translate(91.411 218.457)" fill="#fcf8ca"/>
      <path id="Path_1451" data-name="Path 1451" d="M105.979,187.045h-1.856c-.949,0-.949.051-1.853.051-.953,0-.953.049-1.853.049H98.56c-.9,0-.9-.15-1.853-.15a.553.553,0,0,1-.6-.6c0-.852-.1-.852-.1-1.754s.1-.9.1-1.8.051-.9.051-1.8a.5.5,0,0,1,.551-.551c.9,0,.9-.1,1.853-.1.9,0,.9.051,1.8.051h3.66c.9,0,.9-.1,1.8-.1.953,0,.953.049,1.856.049s.9-.049,1.8-.049h1.853c.9,0,.9.1,1.8.1s.9-.15,1.8-.15c.951,0,.951.2,1.853.2s.9-.15,1.8-.15h1.853c.9,0,.9.1,1.8.1s.9-.051,1.853-.051a.667.667,0,0,1,.655.652v3.607c0,.9-.1.9-.1,1.754,0,.4-.2.752-.553.752-.949,0-.949-.049-1.853-.049-.953,0-.953-.051-1.853-.051h-1.856c-.9,0-.9-.051-1.853-.051-.9,0-.9.1-1.853.1a.578.578,0,0,0-.6.6c0,.9-.1.9-.1,1.8s.051.9.051,1.853c0,.9-.051.9-.051,1.8s.1.9.1,1.8v1.8c0,.9.051.9.051,1.8s-.1.9-.1,1.8.1.9.1,1.8-.1.9-.1,1.8-.051.9-.051,1.8-.049.9-.049,1.8c0,.953.049.953.049,1.856v1.8c0,.9.1.9.1,1.8v3.607a.676.676,0,0,1-.7.652c-1.053,0-1.053-.051-2.108-.051h-2.106c-1.053,0-1.053.15-2.053.15a.859.859,0,0,1-.8-.752c0-.9.1-.9.1-1.8s.051-.9.051-1.8-.1-.9-.1-1.8v-1.8c0-.9.2-.9.2-1.8,0-.953-.153-.953-.153-1.856s-.049-.9-.049-1.8.148-.9.148-1.8-.049-.9-.049-1.8-.1-.9-.1-1.8.049-.9.049-1.8-.049-.9-.049-1.8v-1.8c0-.9.1-.9.1-1.8,0-.951-.1-.951-.1-1.853s.049-.9.049-1.8a.62.62,0,0,0-.6-.65" transform="translate(116.34 218.457)" fill="#fcf8ca"/>
      <path id="Path_1452" data-name="Path 1452" d="M114.7,180.462c.9,0,.9-.25,1.8-.25.951,0,.951.1,1.853.1.951,0,.951.1,1.853.1a1.1,1.1,0,0,1,1.152.953c0,.953-.15.953-.15,1.953,0,.953.1.953.1,1.9,0,1,.049,1,.049,1.955v1.955c0,.951-.1.951-.1,1.953,0,.953.1.953.1,1.9,0,1-.15,1-.15,1.955a1.14,1.14,0,0,0,1.055,1.1c.852,0,.852-.1,1.752-.1h1.7c.854,0,.854.15,1.705.15s.852-.049,1.7-.049c.9,0,.9-.15,1.754-.15s.852-.051,1.7-.051h1.705c.852,0,.852.15,1.7.15a1.1,1.1,0,0,0,1.1-1.053c0-.953-.148-.953-.148-1.955,0-.951.1-.951.1-1.9,0-1,.1-1,.1-1.953v-1.955c0-.951-.15-.951-.15-1.955,0-.951-.049-.951-.049-1.9,0-1,.148-1,.148-1.953a.976.976,0,0,1,1-1c.9,0,.9.049,1.854.049.9,0,.9-.1,1.8-.1.951,0,.951-.1,1.851-.1a1.106,1.106,0,0,1,1,1.152c0,.9.049.9.049,1.853,0,.9-.049.9-.049,1.8,0,.951.1.951.1,1.854s-.1.9-.1,1.856c0,.9.1.9.1,1.8s-.053.9-.053,1.853v1.8c0,.953.1.953.1,1.856s-.049.9-.049,1.851c0,.9-.1.9-.1,1.8,0,.953-.051.953-.051,1.856s.2.9.2,1.8c0,.953-.2.953-.2,1.853s.1.9.1,1.856c0,.9-.1.9-.1,1.8,0,.951.051.951.051,1.853s-.051.9-.051,1.854c0,.9.1.9.1,1.8s.053.9.053,1.853a1.062,1.062,0,0,1-1.106,1c-.9,0-.9-.051-1.851-.051-.9,0-.9.051-1.8.051-.953,0-.953.1-1.854.1a1.1,1.1,0,0,1-1.053-1.1c0-.9-.051-.9-.051-1.8,0-.852.1-.852.1-1.754s-.049-.9-.049-1.8c0-.852.1-.852.1-1.754v-1.754c0-.9-.1-.9-.1-1.8s.1-.9.1-1.754a1.157,1.157,0,0,0-1.152-1.1c-.852,0-.852.15-1.7.15s-.854-.051-1.705-.051-.852.051-1.7.051-.854-.051-1.754-.051c-.852,0-.852-.1-1.7-.1s-.852.049-1.705.049-.852.1-1.7.1c-.9,0-.9-.1-1.752-.1a.978.978,0,0,0-.953,1.053c0,.852-.051.852-.051,1.754s-.1.9-.1,1.8v3.508c0,.9.2.9.2,1.8s-.15.9-.15,1.754v1.8a.96.96,0,0,1-1,.951c-.9,0-.9.153-1.853.153-.9,0-.9-.1-1.853-.1-.9,0-.9-.051-1.8-.051a.893.893,0,0,1-.953-.951v-1.853c0-.9-.1-.9-.1-1.8V210.73c0-.9.1-.9.1-1.853,0-.9-.051-.9-.051-1.8,0-.953.051-.953.051-1.856s-.1-.9-.1-1.853c0-.9-.1-.9-.1-1.8s.049-.9.049-1.856c0-.9.1-.9.1-1.8,0-.951.051-.951.051-1.851s-.051-.9-.051-1.856c0-.9-.1-.9-.1-1.8v-1.853c0-.9.1-.9.1-1.8v-1.856c0-.9-.049-.9-.049-1.854,0-.9.049-.9.049-1.8v-1.853a.9.9,0,0,1,1-.9" transform="translate(137.588 218.375)" fill="#fcf8ca"/>
      <path id="Path_1453" data-name="Path 1453" d="M133.39,180.407c.9,0,.9-.051,1.856-.051.9,0,.9.051,1.853.051.9,0,.9.051,1.853.051.9,0,.9-.15,1.856-.15.9,0,.9.1,1.853.1.9,0,.9-.1,1.853-.1h1.856c.9,0,.9.1,1.853.1.9,0,.9-.15,1.853-.15.9,0,.9.15,1.856.15.9,0,.9.051,1.853.051.9,0,.9-.15,1.854-.15a1.247,1.247,0,0,1,1.2,1.152c0,1.1-.2,1.1-.2,2.254,0,1.1.148,1.1.148,2.205a1.157,1.157,0,0,1-1.152,1.1h-3.658c-.953,0-.953.051-1.853.051s-.9-.153-1.8-.153c-.951,0-.951.153-1.853.153s-.9.049-1.8.049c-.953,0-.953-.15-1.858-.15s-.9.051-1.851.051a1.027,1.027,0,0,0-1,1.1c0,1.053.049,1.053.049,2.106s-.15,1.051-.15,2.1.1,1.053.1,2.106a1.027,1.027,0,0,0,1,1.1c.9,0,.9-.049,1.8-.049s.9-.1,1.8-.1c.953,0,.953.2,1.853.2s.9-.15,1.8-.15.9.15,1.8.15.9-.051,1.8-.051h1.8a1.029,1.029,0,0,1,1.051,1.053c0,1.1-.049,1.1-.049,2.154v2.205a.946.946,0,0,1-1,1c-.9,0-.9.1-1.8.1s-.9-.051-1.8-.051h-1.8c-.9,0-.9-.051-1.8-.051s-.9.1-1.8.1c-.951,0-.951-.1-1.854-.1s-.9.1-1.8.1a1.114,1.114,0,0,0-1.155,1.053v4.811c0,.8.051.8.051,1.6a1.2,1.2,0,0,0,1.1,1.2c1,0,1-.049,1.953-.049s.951-.1,1.9-.1c1,0,1-.049,1.953-.049h3.862c.949,0,.949.15,1.9.15s.951-.051,1.957-.051c.951,0,.951-.15,1.9-.15a1.2,1.2,0,0,1,1.106,1.2v2.254c0,1.155.1,1.155.1,2.256a1.123,1.123,0,0,1-1.205,1c-.9,0-.9.051-1.752.051-.9,0-.9.15-1.8.15-.852,0-.852-.051-1.752-.051h-1.756c-.9,0-.9.051-1.8.051-.852,0-.852-.1-1.752-.1s-.9-.051-1.754-.051h-1.8c-.852,0-.852-.051-1.754-.051s-.9.051-1.754.051c-.9,0-.9.051-1.8.051-.852,0-.852.1-1.752.1s-.9-.1-1.756-.1a1.114,1.114,0,0,1-1.1-1.1c0-.9-.1-.9-.1-1.8,0-.953.049-.953.049-1.856s-.049-.9-.049-1.8v-1.853c0-.9.148-.9.148-1.8v-1.856c0-.9.051-.9.051-1.8,0-.951-.1-.951-.1-1.851V197.9c0-.9.1-.9.1-1.8,0-.951-.15-.951-.15-1.851s.1-.9.1-1.8c0-.953-.1-.953-.1-1.856v-1.8c0-.953.15-.953.15-1.856s-.1-.9-.1-1.8v-1.856c0-.9-.1-.9-.1-1.8a1.162,1.162,0,0,1,1.2-1.053" transform="translate(160.183 218.43)" fill="#fcf8ca"/>
      <path id="Path_1454" data-name="Path 1454" d="M39.1,205.334a1.5,1.5,0,0,1,1.542-1.542c1.389,0,1.389.077,2.7.077s1.312-.155,2.621-.155,1.312.155,2.623.155c1.391,0,1.391-.155,2.7-.155s1.312.077,2.623.077h2.621c1,0,2.008-.077,2.933,0,1,.077,1.929.307,2.853.462s1.851.387,2.776.617a27.455,27.455,0,0,1,2.858.54c.925.385,1.774.927,2.619,1.312a26.014,26.014,0,0,1,2.548,1.312,26.209,26.209,0,0,1,2.546,1.389,13.376,13.376,0,0,1,2.161,2.006,17.371,17.371,0,0,1,1.926,2.159,17.362,17.362,0,0,1,1.774,2.238,25.459,25.459,0,0,1,1.621,2.391,26.934,26.934,0,0,1,1.389,2.546c.307.925.462,1.851.772,2.776.232.927.615,1.853.847,2.778.155,1,.077,1.929.155,2.931.077.927.23,1.931.23,2.855,0,1-.23,1.929-.307,2.931-.077.927,0,1.929-.155,2.855-.23,1-.617,1.851-.849,2.776-.307.927-.385,1.929-.77,2.855-.387.849-.849,1.7-1.312,2.546a27.269,27.269,0,0,1-1.542,2.468c-.542.772-1,1.621-1.623,2.391-.692.694-1.387,1.389-2.081,2.006a16.6,16.6,0,0,1-2.159,1.929,28.065,28.065,0,0,1-2.548,1.466,26.9,26.9,0,0,1-2.544,1.464,27.8,27.8,0,0,1-2.7.927c-.929.31-1.853.617-2.778.847s-1.931.31-2.855.464c-.925.075-1.929.23-2.853.307-1,.077-1.929.232-2.933.232-1.312,0-1.312-.155-2.621-.155H51.294c-1.312,0-1.312.077-2.7.077-1.312,0-1.312.232-2.623.232H40.646a1.65,1.65,0,0,1-1.466-1.776c0-1.389.08-1.389.08-2.776,0-1.466-.155-1.466-.155-2.853s-.155-1.389-.155-2.858c0-1.387.077-1.387.077-2.776s-.077-1.387-.077-2.853c0-1.389.077-1.389.077-2.778V239.2c0-1.389.153-1.389.153-2.855,0-1.389-.153-1.389-.153-2.776,0-1.466.153-1.466.153-2.855s-.075-1.389-.075-2.778c0-1.464-.155-1.464-.155-2.853s.077-1.387.077-2.853c0-1.391-.077-1.391-.077-2.778,0-1.466.077-1.466.077-2.853s.077-1.389.077-2.855c0-1.389.075-1.389.075-2.778,0-1.464-.075-1.464-.075-2.853ZM56,250.308c1,0,2.006,0,2.931-.077a17.8,17.8,0,0,0,2.933-.462,23.723,23.723,0,0,0,2.776-.925,17.5,17.5,0,0,0,2.7-1.312A12.934,12.934,0,0,0,69.5,245.6a13.811,13.811,0,0,0,2.006-2.236,16.6,16.6,0,0,0,1.387-2.546,19.886,19.886,0,0,0,.774-2.853c.23-.927.537-1.851.692-2.855.077-1,.153-2.006.153-3.008s-.307-1.929-.383-2.855c-.155-1-.08-2-.312-2.931a17.433,17.433,0,0,0-.925-2.855A17.09,17.09,0,0,0,71.273,221,12.481,12.481,0,0,0,69.5,218.68a12.834,12.834,0,0,0-2.161-1.929,17.492,17.492,0,0,0-2.7-1.312,15.508,15.508,0,0,0-2.855-.772c-.925-.23-1.849-.23-2.853-.385C58,214.205,57,213.975,56,213.975c-1.774,0-1.774.153-3.627.153a1.5,1.5,0,0,0-1.619,1.466c0,1.389.077,1.389.077,2.778,0,1.312-.153,1.312-.153,2.7s.153,1.387.153,2.776-.153,1.389-.153,2.776.23,1.391.23,2.78-.077,1.387-.077,2.7c0,1.389-.077,1.389-.077,2.776s.155,1.389.155,2.778v2.778c0,1.389.077,1.389.077,2.7,0,1.387-.232,1.387-.232,2.776s.155,1.389.155,2.776a1.554,1.554,0,0,0,1.464,1.621Z" transform="translate(47.198 246.856)" fill="#fcf8ca"/>
      <path id="Path_1455" data-name="Path 1455" d="M64.652,232.715c0-1,.08-1.929.157-2.853a17.962,17.962,0,0,1,.23-2.931c.155-.927.462-1.851.694-2.778.31-.927.772-1.774,1.159-2.7a16.1,16.1,0,0,1,1-2.7,25.464,25.464,0,0,1,1.466-2.468,26.867,26.867,0,0,1,1.694-2.391c.617-.695,1.546-1.234,2.161-1.929.7-.617,1.234-1.464,2-2.083a20.678,20.678,0,0,1,2.473-1.464c.847-.54,1.542-1.234,2.391-1.7.845-.385,1.774-.772,2.623-1.157.925-.307,1.849-.462,2.853-.695a14.7,14.7,0,0,1,2.776-.772,17.147,17.147,0,0,1,2.853-.462c.927-.077,1.853-.23,2.855-.23s1.929.153,2.853.23c1,.155,2.006.155,2.935.31s1.849.54,2.774.772a27.637,27.637,0,0,1,2.7,1c.925.387,1.849.617,2.7,1a26.663,26.663,0,0,1,2.468,1.544,17.026,17.026,0,0,1,2.316,1.774,16.68,16.68,0,0,1,2.314,1.776,27.332,27.332,0,0,1,1.774,2.236,12.642,12.642,0,0,1,1.7,2.314,25.729,25.729,0,0,1,1.466,2.468,27.2,27.2,0,0,1,1.234,2.623c.31.927.772,1.774,1,2.7.307.927.307,1.851.537,2.853.155.927.31,1.851.387,2.855.08.925.387,1.851.387,2.853s-.232,1.929-.307,2.853c-.08,1-.312,1.931-.467,2.855-.23.927-.383,1.851-.694,2.778-.23.925-.307,1.929-.617,2.853a25.9,25.9,0,0,1-1.312,2.623,25.437,25.437,0,0,1-1.619,2.391,15.6,15.6,0,0,1-1.619,2.314,26.878,26.878,0,0,1-2,2.161c-.7.617-1.312,1.389-2.086,2.006a12.97,12.97,0,0,1-2.466,1.466,26.753,26.753,0,0,1-2.468,1.464,26.754,26.754,0,0,1-2.548,1.389,18.723,18.723,0,0,1-2.778.772,16.861,16.861,0,0,1-2.853.54c-.925.155-1.851.462-2.855.617-.925.077-1.849.23-2.853.23s-1.929-.153-2.855-.23a17.011,17.011,0,0,1-2.853-.617c-.925-.155-1.929-.155-2.853-.385a16.107,16.107,0,0,1-2.7-1,27.885,27.885,0,0,1-2.623-1.312c-.849-.462-1.619-.925-2.466-1.464a25,25,0,0,1-2.393-1.544c-.772-.617-1.542-1.234-2.236-1.851a21.554,21.554,0,0,1-1.774-2.238c-.617-.77-1.312-1.464-1.853-2.236-.537-.849-.849-1.774-1.312-2.623a16.223,16.223,0,0,1-1.387-2.546,27.262,27.262,0,0,1-1.082-2.7c-.23-.924-.385-1.851-.54-2.853-.153-.925-.232-1.851-.307-2.855-.077-.925-.157-1.851-.157-2.853m46.828,0a17.163,17.163,0,0,0-.155-2.853,11.26,11.26,0,0,0-.774-2.778,27.49,27.49,0,0,0-.77-2.7,13.563,13.563,0,0,0-1.234-2.623A12.374,12.374,0,0,0,106.7,219.6a12.78,12.78,0,0,0-2.084-2.006,18.633,18.633,0,0,0-2.389-1.544,19.236,19.236,0,0,0-2.471-1.387c-.925-.232-1.929-.232-2.855-.387-.925-.075-1.849-.462-2.853-.462a17.174,17.174,0,0,0-2.855.462c-.925.155-1.849.387-2.774.619a16.058,16.058,0,0,0-2.7,1,24.669,24.669,0,0,0-2.314,1.619,25.507,25.507,0,0,0-2.084,2.006,24.974,24.974,0,0,0-1.619,2.314c-.462.849-1,1.621-1.387,2.471a18.915,18.915,0,0,0-.849,2.776,15.855,15.855,0,0,0-.617,2.778,17.034,17.034,0,0,0-.232,2.853c0,1,.232,1.929.307,2.853.155.927.232,1.853.462,2.78.312.924.542,1.849.849,2.776a15.783,15.783,0,0,0,1.544,2.391,12.412,12.412,0,0,0,3.625,4.4,25.421,25.421,0,0,0,2.314,1.621,16.814,16.814,0,0,0,2.7,1.157c.845.23,1.849.385,2.774.54a17.185,17.185,0,0,0,2.855.387,17.154,17.154,0,0,0,2.853-.31,16.449,16.449,0,0,0,2.778-.849,28.233,28.233,0,0,0,2.7-.925,12.763,12.763,0,0,0,2.391-1.544,16.961,16.961,0,0,0,2.084-2.006,9.942,9.942,0,0,0,1.464-2.468,15.411,15.411,0,0,0,1.391-2.468,22.631,22.631,0,0,0,1.079-2.7,16.038,16.038,0,0,0,.462-2.78,17.271,17.271,0,0,0,.232-2.853" transform="translate(78.343 246.476)" fill="#fcf8ca"/>
      <path id="Path_1456" data-name="Path 1456" d="M95.645,232.631c0-1-.155-1.929-.075-2.931a17.584,17.584,0,0,1,.537-2.778c.155-1,.387-1.926.617-2.853.307-.927.619-1.774,1-2.7a18.736,18.736,0,0,1,1.077-2.623,27.2,27.2,0,0,1,1.469-2.468,17.213,17.213,0,0,1,1.929-2.159,15.948,15.948,0,0,1,1.849-2.161,26.313,26.313,0,0,1,2.161-1.929,21.525,21.525,0,0,1,2.236-1.7c.849-.54,1.621-1.082,2.471-1.544a16.033,16.033,0,0,1,2.7-1,27.441,27.441,0,0,1,2.7-1.079c.925-.232,1.853-.387,2.778-.619.925-.153,1.849-.462,2.853-.54.927-.077,1.851.155,2.855.155.925,0,1.929-.232,2.778-.232,1,.077,1.926.155,2.853.31s1.774.54,2.7.772a27.063,27.063,0,0,1,2.7.617c.849.385,1.774.772,2.548,1.157a24.748,24.748,0,0,1,2.391,1.466,25.419,25.419,0,0,1,2.161,1.851,23.413,23.413,0,0,1,1.849,2.083,23.589,23.589,0,0,1,1.929,2,1.8,1.8,0,0,1-.385,2.393c-1.082.77-1.082.692-2.161,1.464s-1.157.617-2.236,1.312c-1,.772-1,.849-2.006,1.619a1.523,1.523,0,0,1-2.161-.385,12.7,12.7,0,0,0-1.929-2.236,18.937,18.937,0,0,0-2.391-1.774,17.277,17.277,0,0,0-2.776-1.082,17.549,17.549,0,0,0-2.853-.924,19.527,19.527,0,0,0-3.01,0,17.434,17.434,0,0,0-2.855.153,16.074,16.074,0,0,0-2.778.542,15.46,15.46,0,0,0-2.623,1.079,17.086,17.086,0,0,0-2.236,1.7,16.587,16.587,0,0,0-2.081,1.929,12.989,12.989,0,0,0-1.621,2.393,18.708,18.708,0,0,0-1.312,2.466,15.29,15.29,0,0,0-1,2.623c-.23.925-.385,1.851-.54,2.778-.077.925,0,1.851,0,2.853,0,.927-.153,1.929-.077,2.853a17.914,17.914,0,0,0,.617,2.78,15.894,15.894,0,0,0,.849,2.7,25.507,25.507,0,0,0,1.312,2.546,23.9,23.9,0,0,0,1.774,2.159,27.119,27.119,0,0,0,1.926,2.161,18.1,18.1,0,0,0,5.014,2.7,18.549,18.549,0,0,0,2.778.695,17.614,17.614,0,0,0,2.855.075c.925,0,1.849-.075,2.7-.153a13.367,13.367,0,0,0,2.623-.462,12.07,12.07,0,0,0,2.468-1.159,22.4,22.4,0,0,0,2.316-1.312,15.48,15.48,0,0,0,1.849-2,21.081,21.081,0,0,0,1.7-2.006,1.643,1.643,0,0,1,2.236-.232c1.079.772,1.159.542,2.316,1.312,1.079.772,1,.772,2.081,1.544,1.079.694,1.159.694,2.241,1.464a1.678,1.678,0,0,1,.307,2.316c-.619.77-1.236,1.464-1.931,2.236a25.46,25.46,0,0,1-2,2.081,17.345,17.345,0,0,1-2.236,1.931A28.073,28.073,0,0,1,139,258.473c-.849.462-1.853.694-2.7,1.082a20.15,20.15,0,0,1-2.776,1,17.121,17.121,0,0,1-2.853.694c-.929.155-1.929.385-2.933.462-.925.077-1.929,0-2.931,0s-1.929.077-2.855,0c-1-.077-1.929-.232-2.853-.385-1-.232-1.929-.387-2.853-.7a15.606,15.606,0,0,1-2.7-.925A16.058,16.058,0,0,1,111,258.318a15.694,15.694,0,0,1-2.623-1.157,17.424,17.424,0,0,1-2.236-1.851,17.069,17.069,0,0,1-2.086-2c-.692-.7-1.312-1.389-1.926-2.084-.617-.772-1.389-1.389-1.929-2.161-.542-.849-.772-1.774-1.234-2.623-.387-.849-.849-1.7-1.234-2.623-.31-.849-.617-1.774-.927-2.7-.232-.927-.462-1.851-.617-2.778s-.615-1.851-.694-2.855c-.077-.925.155-1.926.155-2.853" transform="translate(115.694 246.56)" fill="#fcf8ca"/>
      <path id="Path_1457" data-name="Path 1457" d="M125.888,203.792c1.391,0,1.391-.077,2.778-.077h2.855c1.466,0,1.466.232,2.853.232a1.317,1.317,0,0,1,1.387,1.466c0,1.389.08,1.389.08,2.853s.077,1.464.077,2.855c0,1.464.075,1.464.075,2.853,0,1.464.08,1.464.08,2.933,0,1.387-.232,1.387-.232,2.853,0,1.387.077,1.387.077,2.853a12.76,12.76,0,0,1,0,1.7,1.528,1.528,0,0,0,2.853.849c.462-.617,1-1.234,1.466-1.851.849-1.079.924-1,1.7-2.083.845-1,.77-1.079,1.619-2.081.847-1.082.77-1.082,1.619-2.161.772-1,.927-.925,1.7-2.006a21.185,21.185,0,0,0,1.544-2.161c.849-1.077.772-1.155,1.542-2.159.849-1.079,1-.927,1.774-2.006.694-.847.542-.925,1.312-2.006.849-1,.924-.925,1.774-2a1.477,1.477,0,0,1,1.236-.462c1.312,0,1.312-.31,2.623-.31s1.312.077,2.623.077,1.312.232,2.623.232h2.544c.849,0,1.234.692.692,1.387-.845,1.159-.845,1.159-1.694,2.238-.924,1.157-.772.925-1.621,2.006-.847,1.155-.77,1.232-1.619,2.314-.849,1.157-.774,1.234-1.619,2.391-.849,1.082-.849,1.082-1.7,2.236-.924,1.082-1.155.927-2,2.006l-1.7,2.316c-.849,1.079-.695,1.234-1.619,2.313-.849,1.157-1,1-1.853,2.159-.849,1.082-.924,1.082-1.774,2.161a1.626,1.626,0,0,0,.077,1.929c.7,1.157.772,1.079,1.542,2.236.774,1.082.617,1.234,1.391,2.316.77,1.157.695,1.157,1.464,2.313.7,1.079.772,1.079,1.466,2.238.772,1.157.849,1.079,1.621,2.236a22.647,22.647,0,0,1,1.544,2.161c.77,1.157.692,1.157,1.462,2.314a21.841,21.841,0,0,0,1.623,2.159c.692,1.159.613,1.236,1.309,2.393.772,1.079.772,1.157,1.464,2.236.774,1.157,1,1,1.774,2.161.7,1.079.619,1.157,1.391,2.313.77,1.079.617,1.157,1.387,2.316a.946.946,0,0,1-.77,1.542c-1.466,0-1.466.155-2.853.155h-5.556c-1.389,0-1.389-.155-2.855-.155a1.541,1.541,0,0,1-1.312-.617c-.77-1.157-.77-1.157-1.542-2.236-.77-1.159-.694-1.236-1.389-2.393-.772-1.157-.772-1.157-1.542-2.236-.774-1.157-.695-1.234-1.391-2.391-.77-1.159-1-1-1.694-2.161-.774-1.157-.774-1.157-1.544-2.236-.772-1.159-.617-1.236-1.389-2.391s-.695-1.159-1.464-2.316-.694-1.234-1.391-2.391a1.634,1.634,0,0,0-2.544,0c-1,1.157-1,1.157-1.929,2.236-.925,1.159-1,1.082-1.929,2.238a1.542,1.542,0,0,0-.307,1c0,1.466-.232,1.466-.232,2.855v11.495a1.576,1.576,0,0,1-1.466,1.7c-1.387,0-1.387-.232-2.853-.232-1.389,0-1.389.077-2.855.077-1.387,0-1.387-.077-2.778-.077a1.4,1.4,0,0,1-1.544-1.464v-2.778c0-1.389-.15-1.389-.15-2.855,0-1.387.23-1.387.23-2.776,0-1.466-.08-1.466-.08-2.855s.08-1.389.08-2.853c0-1.389-.08-1.389-.08-2.776,0-1.469-.23-1.469-.23-2.855V236.5c0-1.464.155-1.464.155-2.853s.075-1.389.075-2.855c0-1.387-.15-1.387-.15-2.776,0-1.466.15-1.466.15-2.855s.08-1.389.08-2.853c0-1.389-.23-1.389-.23-2.778s.075-1.389.075-2.853c0-1.389.155-1.389.155-2.778,0-1.466-.155-1.466-.155-2.855s-.155-1.387-.155-2.853v-2.776a1.717,1.717,0,0,1,1.774-1.621" transform="translate(150.398 246.856)" fill="#fcf8ca"/>
      <path id="Path_1458" data-name="Path 1458" d="M63.272,249.289c.657,0,1.776.108,1.743.241v.011C62,253.277,57.4,256.619,54.363,257.32a5.6,5.6,0,0,1-1.358.153c-2.552,0-4.93-1.63-4.819-4.229a5.392,5.392,0,0,1,.13-.953c1.064-4.983,8.164-13.618,12.49-14.4a2.906,2.906,0,0,1,.515-.042c2.081,0,4.351,2.026,3.946,3.933l-.022.1a7.465,7.465,0,0,1-3.649,4.1,1.513,1.513,0,0,1-.482.077c-.931,0-1.61-.876-1.5-1.38a.439.439,0,0,1,.407-.341,7.117,7.117,0,0,0,3.209-3.331c.055-.164.1-.316.133-.449.142-.657-.1-1.02-.92-1.02-3.66,0-10.946,8.427-11.977,13.257a2.848,2.848,0,0,0,.438,2.652,2.031,2.031,0,0,0,1.491.515c2.367,0,6.487-2.311,10.442-6.629a1.1,1.1,0,0,1,.438-.044" transform="translate(58.385 288.222)" fill="#42beb6"/>
      <path id="Path_1459" data-name="Path 1459" d="M60.338,248.592c-.856-.155-1.283-.549-1.391-.909a.785.785,0,0,1-.011-.427,5.937,5.937,0,0,1,.5-1.086c-.011,0-2.039,2.652-3.935,2.882a2.68,2.68,0,0,1-.81-.119c-.734-.232-.911-.812-.745-1.546a13.492,13.492,0,0,1,1.9-3.583.625.625,0,0,1,.5-.2c.571,0,1.5.383,1.491.909a.574.574,0,0,1-.144.285,8.376,8.376,0,0,0-1.4,2.159c-.033.153,0,.263.153.263h.033c1.294-.44,3.638-3.561,4.47-4.647a.789.789,0,0,1,.668-.252c.714,0,1.416.681,1.316,1.1a.224.224,0,0,1-.055.13l-.022.055a7.731,7.731,0,0,0-1.6,2.738c-.022.122-.033.232-.044.33.033.088.011.155.077.155h.022a19.389,19.389,0,0,0,4.229-3.059.521.521,0,0,1,.285-.142c.219,0,.208.482.119.9a1.852,1.852,0,0,1-.449.942c-.066.044-3.484,3.189-4.811,3.189a.551.551,0,0,1-.272-.066Z" transform="translate(65.306 293.641)" fill="#42beb6"/>
      <path id="Path_1460" data-name="Path 1460" d="M59.751,249.221a1.453,1.453,0,0,1-1.3-1.577.5.5,0,0,1,.537-.4l.1.011c-.022.153.175.219.46.219.568,0,1.491-.285,1.579-.681v-.02c.064-.5-1.623-.911-1.393-1.995a1.906,1.906,0,0,1,.307-.637,7.062,7.062,0,0,1,3.866-2h.033l.133-.011c.712,0,1.336,1.194,1.228,1.732-.033.13-.1.219-.241.219h-.077c-.044-.108-.2-.155-.4-.155a5.09,5.09,0,0,0-2.114.692c-.219.119-.318.219-.341.316-.088.427,1.435.723,1.36,1.809l-.013.131c-.25,1.15-2.387,2.258-3.605,2.355Z" transform="translate(70.808 293.395)" fill="#42beb6"/>
      <path id="Path_1461" data-name="Path 1461" d="M65.337,256.827c-.557,0-1.59-.79-1.491-1.261v-.02a50.8,50.8,0,0,1,5.16-10.289l-11.043.624a.828.828,0,0,1-.086-.712,1.65,1.65,0,0,1,.734-1.117,12.111,12.111,0,0,1,3.2-.8.9.9,0,0,1,.2.02c.21,0,.119.6.3.6,5.6-.142,6.6-.241,7.679-.319,2.019-3.22,2.993-4.689,3.254-5.083a.669.669,0,0,1,.54-.307h.02a1.611,1.611,0,0,1,1.274,1.721l-.013.033a.853.853,0,0,1-.5.613c-.111.144-1.444,2-2.035,2.827,1.433-.108,2.869-.219,3.986-.361h.011c.155,0,.21.064.188.164v.011c-.091.427-1.228,1.719-1.8,1.774-1.126.1-2.384.188-3.484.3-1.323,1.491-5.114,8.13-5.72,10.968l-.02.108-.044.383a.325.325,0,0,1-.274.122Z" transform="translate(70.089 288.606)" fill="#42beb6"/>
      <path id="Path_1462" data-name="Path 1462" d="M62.872,246.966a1.158,1.158,0,0,1,.044-.319c.263-1.272,1.643-3.406,2.924-3.406a1.107,1.107,0,0,1,.6.175c.175-.383.624-.953.931-.953.108,0,.2.066.252.219a1.707,1.707,0,0,0,1.741,1.283,6.491,6.491,0,0,0,2.05-.462.213.213,0,0,1,.075-.009c.23,0,.274.438.188.865-.088.4-.3.8-.6.8a5.789,5.789,0,0,1-2.181.582,2.142,2.142,0,0,1-.383-.033,1.72,1.72,0,0,1-.953-.471l-.022.155a4.8,4.8,0,0,1-2.19,2.824,2.045,2.045,0,0,1-.6.111c-1.02-.031-1.929-.383-1.873-1.358" transform="translate(76.184 293.809)" fill="#42beb6"/>
      <path id="Path_1463" data-name="Path 1463" d="M66.518,250.187c-.593,0-1.3-.6-1.281-.79l.009-.042a62.325,62.325,0,0,1,2.959-5.742c.064-.144.263-.166.416-.166h.022c.6,0,1.4.4,1.239,1.152a.418.418,0,0,1-.077.175l-.5.856c1.183-.967,3.134-2.807,4.1-3.057l.044-.013c.327,0,1.325.668,1.161,1.435a.751.751,0,0,1-.044.153c-.515.79-.878,1.205-1.031,1.424,1.163-.962,3.256-2.813,4.22-3.066h.031a1.634,1.634,0,0,1,1.086,1.6.715.715,0,0,1-.066.2c-.593,1.009-1.3,1.743-1.347,1.971-.013.044.011.066.064.066h.022c.745-.119,2.444-1.358,4.043-2.727a.521.521,0,0,1,.263-.144h.011c.327.024.307.692.2,1.208a1.37,1.37,0,0,1-.208.557c-.066.044-4.328,2.99-5.249,3h-.064c-.734-.142-1.524-.482-1.557-.865a.9.9,0,0,1,.011-.241,16.123,16.123,0,0,1,1-1.973c0-.022-.011-.031-.022-.031l-.033.009c-1.743,1.25-3.1,2.86-4.107,3.616a.569.569,0,0,1-.363.133h-.011a1.5,1.5,0,0,1-1.161-.944v-.02a20.561,20.561,0,0,1,1.413-2.674,23.3,23.3,0,0,0-4.645,4.786.583.583,0,0,1-.4.144.612.612,0,0,1-.142.011" transform="translate(79.052 293.864)" fill="#42beb6"/>
      <path id="Path_1464" data-name="Path 1464" d="M77.028,256.388A3.84,3.84,0,0,1,75.407,252c1-4.689,7.4-10.65,10.453-10.88h.064c.756,0,.933.887.779,1.621-.111.493-.372.909-.7.909-3.472.1-8.173,6.147-8.918,9.652-.274,1.281-.022,2.214,1.009,2.411a2.145,2.145,0,0,0,.383.033c3.4,0,9.378-7.5,10.42-12.393.372-1.741.119-3.165-1.106-3.791a3.225,3.225,0,0,0-1.48-.338c-3.824,0-9.159,5.479-9.455,6.244a.441.441,0,0,1-.385.263c-.48,0-1-1.028-.81-1.9a1.386,1.386,0,0,1,.122-.36c1.358-2.048,6.058-5.545,9.323-5.545l.307.011c2.586.186,5.5,1.732,5.532,4.3a8.465,8.465,0,0,1-.2,1.907c-1.172,5.523-7.2,12.819-11.722,12.819a3.617,3.617,0,0,1-2-.571" transform="translate(91.212 288.311)" fill="#42beb6"/>
      <path id="Path_1465" data-name="Path 1465" d="M83.027,248.451c-.876,0-1.8-1.281-1.5-2.63l.031-.142a5.428,5.428,0,0,1,2.586-3.209.8.8,0,0,1,.21-.044,1.167,1.167,0,0,1,.2-.022,1.309,1.309,0,0,1,1.172,1.555v.033a.517.517,0,0,1-.263.341,2.277,2.277,0,0,0-1.918,1.763c-.011.055-.011.1-.022.142-.033.177-.011.319.1.385a.537.537,0,0,0,.316.077,16.474,16.474,0,0,0,5.171-2.915h.066c.3,0,.471.4.374.876a1.8,1.8,0,0,1-.692,1.053c-1.247.821-4.589,2.707-5.543,2.707h-.033a1.091,1.091,0,0,1-.252.031" transform="translate(98.723 293.738)" fill="#42beb6"/>
      <path id="Path_1466" data-name="Path 1466" d="M85.405,248.236a2.163,2.163,0,0,1-1.051-2.433,5.7,5.7,0,0,1,2.835-3.32,3.162,3.162,0,0,1,.593-.119c.613,0,1.918.416,1.732,1.281a1.205,1.205,0,0,1-.055.188,4.2,4.2,0,0,1-2.444,1.86h-.077a1.026,1.026,0,0,1-.349-.086,1.2,1.2,0,0,0-.318.482.809.809,0,0,0-.042.142.386.386,0,0,0,.272.515h.044a.717.717,0,0,0,.2-.033,31.773,31.773,0,0,0,5.437-2.99h.042c.155,0,.285.568.164,1.117a1.267,1.267,0,0,1-.471.8c-.8.548-4.218,2.738-5.9,2.738a1.06,1.06,0,0,1-.6-.142" transform="translate(102.144 293.689)" fill="#42beb6"/>
      <path id="Path_1467" data-name="Path 1467" d="M90.559,246.084c-.535.327-1.918,2-2.924,2l-.155-.013c-.743-.13-.81-.8-.646-1.6a5.762,5.762,0,0,1,1.918-2.76,3.536,3.536,0,0,1,2.1-.843,1.365,1.365,0,0,1,1.02.372,1.441,1.441,0,0,1,1.172-.767c.7,0,1.258.714,1.172,1.13a.347.347,0,0,1-.066.142,8.25,8.25,0,0,0-1.435,2.378c-.066.307.044.46.3.46.624,0,2.126-.887,4.3-2.76a.323.323,0,0,1,.23-.089c.307,0,.615.438.5.942a1.228,1.228,0,0,1-.416.679,18.422,18.422,0,0,1-4.47,2.827,2.121,2.121,0,0,1-.712.133,2.164,2.164,0,0,1-1.9-2.225" transform="translate(105.134 293.815)" fill="#42beb6"/>
      <path id="Path_1468" data-name="Path 1468" d="M91.3,250.006c-.582,0-1.15-.953-1.128-1.161l.02-.111a41.006,41.006,0,0,1,3.156-5.467.75.75,0,0,1,.549-.2h.022c.579,0,1.25.438,1.139.953l-.011.033a.737.737,0,0,1-.186.33c-.077.042-.756,1.04-1.183,1.665a12.868,12.868,0,0,1,4.612-3.267h.055a1.53,1.53,0,0,1,1.095,1.546l-.011.042-.031.122c-.3.712-.648,1.205-.714,1.424v.022c-.02.077.024.111.1.111h.055c.832-.122,2.575-1.4,4.328-2.774a.621.621,0,0,1,.305-.153c.166,0,.186.241.122.56l-.033.119a2.432,2.432,0,0,1-.615,1.128c-.064.055-4.174,2.981-5.224,2.993h-.077c-.843-.144-1.458-.482-1.535-.856a.537.537,0,0,1,.013-.219l.02-.075a10.255,10.255,0,0,1,.812-1.535c0-.033-.011-.044-.033-.044H96.9a13.442,13.442,0,0,0-5.193,4.669.633.633,0,0,1-.394.142Z" transform="translate(109.272 294.199)" fill="#42beb6"/>
      <path id="Path_1469" data-name="Path 1469" d="M117.161,237.907c1.106,0,1.73,2.267,1.435,3.669a2.356,2.356,0,0,1-.186.546c-1.865,1.393-4.91,8.219-5.744,12.107-.294,1.4-.305,2.422.144,2.663-.111.383-.7.582-1.325.582-.79,0-1.632-.341-1.557-1.075a6.423,6.423,0,0,1,.111-.668,33.28,33.28,0,0,1,1.314-4.251c-1.128-.108-2.344-.142-3.714-.155-3.78,4.1-7.111,7.429-7.724,8.02a.836.836,0,0,1-.56.277c-.591,0-.975-.978-.832-1.646a.775.775,0,0,1,.142-.338,33.4,33.4,0,0,1,2.63-3.223.772.772,0,0,1,.56-.186.992.992,0,0,1,.361.055,30.038,30.038,0,0,0,3.1-2.959c-4.021,0-6.476.219-7.485.219h-.219c-.175-.009-.206-.228-.153-.513.111-.515.537-1.25,1.04-1.36a21.482,21.482,0,0,1,3.453-.668h.022c.164,0,.13.438.319.438.263-.02,1.807.013,2.212.013.67,0,1.5.02,2.466.042a128.848,128.848,0,0,0,8.655-10.276c.571-.942,1.1-1.314,1.535-1.314m-5.226,11.952a59.053,59.053,0,0,1,4.337-8.624c-2.026,2.674-4.612,5.664-7.12,8.449Z" transform="translate(118.072 288.288)" fill="#42beb6"/>
      <path id="Path_1470" data-name="Path 1470" d="M118.46,238.4a1.229,1.229,0,0,1,1.172,1.435,1.428,1.428,0,0,1-.2.449c-2.455,2.685-8.272,11.888-9.27,16.533-.044.23-.077.449-.111.646a.41.41,0,0,1-.416.241c-.6,0-1.566-.745-1.555-1.3a.14.14,0,0,1,.011-.066,59.277,59.277,0,0,1,3.156-6.728,17.111,17.111,0,0,1-3.386,2.641,3.352,3.352,0,0,1-1.5.482c-.734,0-1-.557-.823-1.369a7.221,7.221,0,0,1,3.519-4.129,2.135,2.135,0,0,1,1.073-.341c.657,0,.986.449,1.183.449h.011c1.588-1.336,3.824-4.7,6.388-8.624a1.057,1.057,0,0,1,.745-.316" transform="translate(127.829 288.888)" fill="#42beb6"/>
      <path id="Path_1471" data-name="Path 1471" d="M109.5,249.514l.108-.56a12.4,12.4,0,0,1,1.513-4.129.531.531,0,0,1,.418-.177c.579,0,1.424.637,1.336,1.086a.356.356,0,0,1-.066.144,8.081,8.081,0,0,0-1.031,2.594l-.02.066c1.172-1,4.24-4.163,4.076-4.908-.013-.122.02-.219-.024-.3a14.036,14.036,0,0,1,2.652-2.541.312.312,0,0,1,.166-.044c.416,0,.688.823.712,1.139a.553.553,0,0,1-.058.177,42.671,42.671,0,0,1-7.524,8.195,1.173,1.173,0,0,1-.626.131c-.723,0-1.721-.316-1.632-.876" transform="translate(132.683 291.732)" fill="#42beb6"/>
      <path id="Path_1472" data-name="Path 1472" d="M113.815,248.236a2.163,2.163,0,0,1-1.051-2.433,5.7,5.7,0,0,1,2.835-3.32,3.162,3.162,0,0,1,.593-.119c.613,0,1.918.416,1.732,1.281a1.206,1.206,0,0,1-.055.188,4.2,4.2,0,0,1-2.444,1.86h-.077a1.026,1.026,0,0,1-.349-.086,1.222,1.222,0,0,0-.318.482.808.808,0,0,0-.042.142.386.386,0,0,0,.272.515h.044a.717.717,0,0,0,.2-.033,31.771,31.771,0,0,0,5.437-2.99h.042c.155,0,.285.568.164,1.117a1.267,1.267,0,0,1-.471.8c-.8.548-4.218,2.738-5.9,2.738a1.06,1.06,0,0,1-.6-.142" transform="translate(136.57 293.689)" fill="#42beb6"/>
      <path id="Path_1473" data-name="Path 1473" d="M115.932,250.006c-.582,0-1.15-.953-1.128-1.161l.02-.111a41.005,41.005,0,0,1,3.156-5.467.75.75,0,0,1,.549-.2h.022c.579,0,1.25.438,1.139.953l-.011.033a.737.737,0,0,1-.186.33c-.077.042-.756,1.04-1.183,1.665a12.868,12.868,0,0,1,4.612-3.267h.055a1.53,1.53,0,0,1,1.095,1.546l-.011.042-.031.122c-.3.712-.648,1.205-.714,1.424v.022c-.02.077.024.111.1.111h.055c.832-.122,2.575-1.4,4.328-2.774a.621.621,0,0,1,.305-.153c.166,0,.186.241.122.56l-.033.119a2.432,2.432,0,0,1-.615,1.128c-.064.055-4.174,2.981-5.224,2.993h-.077c-.843-.144-1.458-.482-1.535-.856a.537.537,0,0,1,.013-.219l.02-.075a10.254,10.254,0,0,1,.812-1.535c0-.033-.011-.044-.033-.044h-.022a13.442,13.442,0,0,0-5.193,4.669.633.633,0,0,1-.394.142Z" transform="translate(139.116 294.199)" fill="#42beb6"/>
      <path id="Path_1474" data-name="Path 1474" d="M124.006,256.827c-.56,0-1.59-.79-1.491-1.261v-.02a50.8,50.8,0,0,1,5.16-10.289l-11.043.624a.828.828,0,0,1-.086-.712,1.642,1.642,0,0,1,.734-1.117,12.09,12.09,0,0,1,3.2-.8.9.9,0,0,1,.2.02c.208,0,.119.6.3.6,5.6-.142,6.6-.241,7.679-.319,2.017-3.22,2.99-4.689,3.254-5.083a.669.669,0,0,1,.537-.307h.022a1.608,1.608,0,0,1,1.272,1.721l-.011.033a.864.864,0,0,1-.5.613c-.111.144-1.446,2-2.037,2.827,1.435-.108,2.871-.219,3.988-.361h.009c.155,0,.21.064.188.164v.011c-.088.427-1.228,1.719-1.8,1.774-1.128.1-2.387.188-3.484.3-1.325,1.491-5.116,8.13-5.72,10.968l-.02.108-.044.383a.325.325,0,0,1-.274.122Z" transform="translate(141.183 288.606)" fill="#42beb6"/>
      <path id="Path_1475" data-name="Path 1475" d="M127.914,248.592c-.856-.155-1.283-.549-1.391-.909a.785.785,0,0,1-.011-.427,5.936,5.936,0,0,1,.5-1.086c-.011,0-2.039,2.652-3.935,2.882a2.68,2.68,0,0,1-.809-.119c-.734-.232-.911-.812-.745-1.546a13.492,13.492,0,0,1,1.9-3.583.625.625,0,0,1,.5-.2c.571,0,1.5.383,1.491.909a.574.574,0,0,1-.144.285,8.376,8.376,0,0,0-1.4,2.159c-.033.153,0,.263.153.263h.033c1.294-.44,3.638-3.561,4.47-4.647a.789.789,0,0,1,.668-.252c.714,0,1.416.681,1.316,1.1a.224.224,0,0,1-.055.13l-.022.055a7.731,7.731,0,0,0-1.6,2.738c-.022.122-.033.232-.044.33.033.088.011.155.077.155h.022a19.388,19.388,0,0,0,4.229-3.059.521.521,0,0,1,.285-.142c.219,0,.208.482.119.9a1.852,1.852,0,0,1-.449.942c-.066.044-3.484,3.189-4.811,3.189a.551.551,0,0,1-.272-.066Z" transform="translate(147.192 293.641)" fill="#42beb6"/>
      <path id="Path_1476" data-name="Path 1476" d="M125.57,248.371l.011-.044a34.619,34.619,0,0,1,3-5.193.455.455,0,0,1,.4-.175.707.707,0,0,1,.153-.011c.613,0,1.25.493,1.15.964v.011a.039.039,0,0,0,.011-.022v-.011c-.022,0-.1.066-.36.4a5.78,5.78,0,0,1,3.176-1.7.941.941,0,0,1,.186.02h.011a.983.983,0,0,1,.593,1.216,1.335,1.335,0,0,1-.177.449c-.064.166-.119.3-.294.341a.569.569,0,0,0-.438-.166h-.055c-.953,0-5.091,3.585-5.731,4.68s-1.665-.571-1.632-.767" transform="translate(152.161 293.973)" fill="#42beb6"/>
      <path id="Path_1477" data-name="Path 1477" d="M130.268,248.236a2.163,2.163,0,0,1-1.051-2.433,5.7,5.7,0,0,1,2.835-3.32,3.162,3.162,0,0,1,.593-.119c.613,0,1.918.416,1.732,1.281a1.21,1.21,0,0,1-.055.188,4.2,4.2,0,0,1-2.444,1.86H131.8a1.026,1.026,0,0,1-.349-.086,1.2,1.2,0,0,0-.318.482.806.806,0,0,0-.042.142.386.386,0,0,0,.272.515h.044a.717.717,0,0,0,.2-.033,31.636,31.636,0,0,0,5.434-2.99h.044c.155,0,.285.568.164,1.117a1.277,1.277,0,0,1-.471.8c-.8.548-4.218,2.738-5.9,2.738a1.06,1.06,0,0,1-.6-.142" transform="translate(156.508 293.689)" fill="#42beb6"/>
      <path id="Path_1478" data-name="Path 1478" d="M133.2,249.221a1.453,1.453,0,0,1-1.3-1.577.5.5,0,0,1,.537-.4l.1.011c-.022.153.175.219.46.219.568,0,1.491-.285,1.579-.681v-.02c.064-.5-1.623-.911-1.393-1.995a1.906,1.906,0,0,1,.307-.637,7.062,7.062,0,0,1,3.866-2h.033l.133-.011c.712,0,1.336,1.194,1.228,1.732-.033.13-.1.219-.241.219h-.077c-.044-.108-.2-.155-.4-.155a5.09,5.09,0,0,0-2.114.692c-.219.119-.318.219-.341.316-.088.427,1.435.723,1.36,1.809l-.013.131c-.25,1.15-2.387,2.258-3.605,2.355Z" transform="translate(159.812 293.395)" fill="#42beb6"/>
    </g>
  </g>
</svg>
