<svg id="cleet" xmlns="http://www.w3.org/2000/svg" xmlns:xlink="http://www.w3.org/1999/xlink" width="859.261" height="345.058" viewBox="0 0 859.261 345.058">
  <g>
    <path id="Path_21" data-name="Path 21" d="M769.408,0c-41.741,0-98.214,6.841-158,14.084l-1.471.18-14.624,1.768a29.2,29.2,0,0,0-18.987-7.053c-.162,0-.324,0-.486.005-.577-.23-1.446-.62-2.13-.924-4.693-2.1-11.789-5.281-22.285-5.281a54.078,54.078,0,0,0-5.977.337c-10.128,1.119-16.855,5.126-21.307,7.775a33.534,33.534,0,0,1-3.338,1.844c-9.568,1.393-17.354,7.443-22.525,13.962A499.292,499.292,0,0,1,430.9,31.048a544.117,544.117,0,0,1-69.969-4.417c-5.172-6.494-12.939-12.509-22.475-13.9a32.981,32.981,0,0,1-3.338-1.844c-4.452-2.649-11.182-6.656-21.307-7.775a54.087,54.087,0,0,0-5.98-.337c-10.493,0-17.589,3.176-22.285,5.281-.681.3-1.553.694-2.13.924-.162,0-.324-.005-.486-.005a29.188,29.188,0,0,0-18.985,7.053l-14.626-1.768-1.451-.177C188.064,6.841,131.594,0,89.851,0,67.232,0,50.045,2.062,37.314,6.306,9.771,15.485,0,35.189,0,49.275v74.5l14.51-2.14a558.613,558.613,0,0,1,72.32-4.63c11.7,0,23.1.385,33.879,1.147,69.8,4.926,115.443,24.886,116.281,50.848.671,20.821-25.076,38.24-52.332,56.686q-2.754,1.861-5.524,3.743c-15.049,10.234-22.617,23.587-21.3,37.595,1.664,17.767,16.632,32.922,44.488,45.046,13.691,5.957,31.807,10.632,50.731,15.29,59.431,14.629,126.179,17.7,171.708,17.7,66.956,0,133.037-6.435,181.294-17.66,23.275-5.415,38.97-10.141,50.889-15.328,27.857-12.124,42.825-27.279,44.488-45.046,1.312-14.008-6.253-27.36-21.3-37.595q-2.766-1.88-5.521-3.743C647.345,207.244,621.6,189.822,622.272,169c.836-25.962,46.479-45.922,116.279-50.848,10.789-.762,22.188-1.147,33.882-1.147a556.894,556.894,0,0,1,72.32,4.63l14.509,2.138v-74.5c0-14.087-9.773-33.793-37.316-42.969C809.214,2.062,792.03,0,769.408,0" transform="translate(0 0)" fill="#082d74"/>
    <path id="Path_22" data-name="Path 22" d="M769.408,12.663c21.239,0,37.113,1.849,48.536,5.655C840.672,25.894,846.6,40.966,846.6,49.275v59.834a565.564,565.564,0,0,0-74.166-4.766c-11.073,0-22.8.332-34.773,1.178-80.817,5.706-126.972,29.8-128.046,63.073-.95,29.472,31.012,49.29,63.392,71.309,23.769,16.163,24.088,40.882-21.117,60.556-12.228,5.321-28.6,9.93-48.7,14.606-45.651,10.617-111.16,17.331-178.428,17.331-58.92,0-119.179-5.146-168.682-17.331-20.041-4.934-36.475-9.285-48.705-14.606-45.205-19.674-44.886-44.392-21.115-60.556,32.377-22.019,64.342-41.837,63.39-71.309-1.071-33.274-47.226-57.367-128.043-63.073-11.969-.843-23.706-1.178-34.773-1.178a564.935,564.935,0,0,0-74.166,4.766V49.275c0-8.31,5.926-23.381,28.654-30.957,11.42-3.807,27.294-5.655,48.533-5.655,40.983,0,97.094,6.8,156.5,14q10.918,1.322,21.94,2.649c4.288-4.526,8.573-7.666,14.644-7.666.319,0,.643.01.973.028.1.005.205.008.307.008,4.964,0,10.959-6.235,23.622-6.235a41.435,41.435,0,0,1,4.584.258c12.559,1.39,17.637,8.654,24.1,9.548,7.137.988,13.6,6.881,17.154,13.177A556.649,556.649,0,0,0,430.9,43.711a500.494,500.494,0,0,0,74.685-5.286c3.551-6.3,10.014-12.19,17.151-13.177,6.466-.894,11.546-8.158,24.1-9.548a41.468,41.468,0,0,1,4.584-.258c12.666,0,18.658,6.235,23.622,6.235.1,0,.205,0,.306-.008.329-.018.653-.028.972-.028,6.071,0,10.359,3.14,14.644,7.666q11.009-1.318,21.94-2.649c59.406-7.2,115.516-14,156.5-14m0-12.663c-41.741,0-98.214,6.841-158,14.084l-1.471.18-14.624,1.768a29.2,29.2,0,0,0-18.987-7.053c-.162,0-.324,0-.486.005-.577-.23-1.446-.62-2.13-.924-4.693-2.1-11.789-5.281-22.285-5.281a54.078,54.078,0,0,0-5.977.337c-10.128,1.119-16.855,5.126-21.307,7.775a33.534,33.534,0,0,1-3.338,1.844c-9.568,1.393-17.354,7.443-22.525,13.962A499.292,499.292,0,0,1,430.9,31.048a544.117,544.117,0,0,1-69.969-4.417c-5.172-6.494-12.939-12.509-22.475-13.9a32.981,32.981,0,0,1-3.338-1.844c-4.452-2.649-11.182-6.656-21.307-7.775a54.087,54.087,0,0,0-5.98-.337c-10.493,0-17.589,3.176-22.285,5.281-.681.3-1.553.694-2.13.924-.162,0-.324-.005-.486-.005a29.188,29.188,0,0,0-18.985,7.053l-14.626-1.768-1.451-.177C188.064,6.841,131.594,0,89.851,0,67.232,0,50.045,2.062,37.314,6.306,9.771,15.485,0,35.189,0,49.275v74.5l14.51-2.14a558.613,558.613,0,0,1,72.32-4.63c11.7,0,23.1.385,33.879,1.147,69.8,4.926,115.443,24.886,116.281,50.848.671,20.821-25.076,38.24-52.332,56.686q-2.754,1.861-5.524,3.743c-15.049,10.234-22.617,23.587-21.3,37.595,1.664,17.767,16.632,32.922,44.488,45.046,13.691,5.957,31.807,10.632,50.731,15.29,59.431,14.629,126.179,17.7,171.708,17.7,66.956,0,133.037-6.435,181.294-17.66,23.275-5.415,38.97-10.141,50.889-15.328,27.857-12.124,42.825-27.279,44.488-45.046,1.312-14.008-6.253-27.36-21.3-37.595q-2.766-1.88-5.521-3.743C647.345,207.244,621.6,189.822,622.272,169c.836-25.962,46.479-45.922,116.279-50.848,10.789-.762,22.188-1.147,33.882-1.147a556.894,556.894,0,0,1,72.32,4.63l14.509,2.138v-74.5c0-14.087-9.773-33.793-37.316-42.969C809.214,2.062,792.03,0,769.408,0" transform="translate(0 0)" fill="#fc8363"/>
    <path id="Path_23" data-name="Path 23" d="M107.658,23.548l69.807,7.238c-2.143-6.41-5.995-9.044-9.229-8.69-5.957.651-8.576-9.936-20.545-10.83,1.383,2.685,3.447,7.1,2.578,8.1-1.261,1.456-13.291,1.507-14.416-1.8-.6-1.75.94-4.361,2.517-6.453a25.427,25.427,0,0,0-2.664-.056c-13.023.859-11.64,8.023-17.817,6.739-4.186-.869-7.983.643-10.232,5.744" transform="translate(165.002 16.927)" fill="#9187a0"/>
    <path id="Path_24" data-name="Path 24" d="M272.4,23.548,202.6,30.786c2.143-6.41,5.995-9.044,9.229-8.69,5.957.651,8.576-9.936,20.545-10.83-1.383,2.685-3.447,7.1-2.578,8.1,1.261,1.456,13.291,1.507,14.416-1.8.6-1.75-.94-4.361-2.518-6.453a25.428,25.428,0,0,1,2.664-.056c13.023.859,11.64,8.023,17.817,6.739,4.187-.869,7.983.643,10.232,5.744" transform="translate(310.508 16.927)" fill="#9187a0"/>
    <path id="Path_25" data-name="Path 25" d="M410.878,42.379C261.31,42.379,10.3-16.016,10.3,34.67V71.234c38.58-2.49,138.857-2.854,195.3,20.051s78.948,73.961-18.038,141.2c-47.236,32.752,83.922,62.3,224.58,61.657S692.166,265.1,638.006,232.487c-85.629-51.555-82.84-107.812-21.188-138.637,70.557-35.28,183.057-20.773,200.165-19.826V34.67c0-53.94-256.539,7.709-406.105,7.709M519.741,210.562c-12.775,18.987-49.572,31.835-83.962,30.009,15.252-1.4,34.269-7.7,49.49-17.731-9.226.808-20.079.924-20.079.924,11.263-3.657,21.393-7.251,27.943-12.706-16.938,3.685-42.794,6.729-83.1,6.729-32.512,0-58.763-3.353-77.628-8.3,6.294,5.6,17.273,12.033,28.3,12.909a85.338,85.338,0,0,1-20.249.238c15.269,10.148,34.436,16.525,49.792,17.934-34.391,1.826-71.188-11.022-83.962-30.009-12.028-17.875-5.425-43.177,21.269-64.562,17.972-16.323,51.281-25.542,85.814-25.542,34.728,0,68.111,9.773,86.042,26.256,26.076,21.272,32.236,46.142,20.322,63.848" transform="translate(15.785 19.225)" fill="#5e5982"/>
    <path id="Path_26" data-name="Path 26" d="M224.513,60.594c-42.863,0-78.912,16.163-89.524,38.114,7.78,9.052,38.567,5.853,48.252,3.242,0,0-22.472,16.974-51.208,6.719a28.767,28.767,0,0,0-.22,3.14s10.9,20.446,78.287,11.888c-45.458,1.011-61.326-6.775-61.326-6.775s22.462,1.783,43.974-15.449c42.075-33.71,70.121-13.312,70.121-13.312-19.2,2.262-18.248,21.8-1.071,32.565,13.1,8.206,40.966,8.026,54.766-2.723a27.068,27.068,0,0,0,.661-5.9c0-28.447-41.51-51.506-92.713-51.506m87.121,53.641S282.516,132,257.549,109.254c-.431-.3-.859-.575-1.287-.891.122.023.243.035.367.058-.048-.046-.1-.084-.142-.127.256.081.512.144.767.225a133.26,133.26,0,0,0,54.457-1.428,52.166,52.166,0,0,1-15.166,7.811,132.778,132.778,0,0,0,15.087-.666" transform="translate(202.023 92.869)" fill="#06c3b5"/>
    <path id="Path_27" data-name="Path 27" d="M808.445,26.257c-14.692-40.186-274.521,12.06-398.636,12.3C266.955,38.842,37.518-11.809,12.457,26.216,53.939-1.438,214.681,45.4,284.681,59.232,361.8,74.463,477.4,73.058,569.875,49.724c85.211-21.5,212.644-47.667,238.57-23.468" transform="translate(19.092 16.965)" fill="#9187a0"/>
  </g>
</svg>
