<svg id="logo" xmlns="http://www.w3.org/2000/svg" xmlns:xlink="http://www.w3.org/1999/xlink" width="968.714" height="611.035" viewBox="0 0 968.714 611.035">
  <defs>
    <clipPath id="clip-path">
      <rect id="Rectangle_32" data-name="Rectangle 32" width="968.714" height="611.035" fill="none"/>
    </clipPath>
  </defs>
  <g id="Group_15" data-name="Group 15" clip-path="url(#clip-path)">
    <rect id="Rectangle_31" data-name="Rectangle 31" width="936.789" height="579.112" rx="100" transform="translate(15.961 15.961)" fill="#082d74"/>
    <path id="Path_1026" data-name="Path 1026" d="M843.244,31.922a93.654,93.654,0,0,1,93.548,93.548V485.565a93.654,93.654,0,0,1-93.548,93.548H125.47a93.654,93.654,0,0,1-93.548-93.548V125.47A93.654,93.654,0,0,1,125.47,31.922Zm0-31.922H125.47A125.612,125.612,0,0,0,0,125.47V485.565a125.612,125.612,0,0,0,125.47,125.47H843.244a125.612,125.612,0,0,0,125.47-125.47V125.47A125.612,125.612,0,0,0,843.244,0" fill="#fc8363"/>
    <path id="Path_1027" data-name="Path 1027" d="M237.64,130.969,78.919,132.848c-9.134.109-9.157,4.756-.026,4.876l181.475,2.89Z" transform="translate(81.292 147.755)" fill="#fc8363"/>
    <path id="Path_1028" data-name="Path 1028" d="M308.851,130.956l176.908,1.752c9.785.1,9.875,4.7,9.945,4.835l-208.067,3.416Z" transform="translate(324.502 147.74)" fill="#fc8363"/>
    <path id="Path_1029" data-name="Path 1029" d="M321.7,101.808h-2.558c-1.313,0-1.313.068-2.558.068-1.313,0-1.313.068-2.558.068H311.47c-1.245,0-1.245-.2-2.56-.2a.756.756,0,0,1-.83-.813c0-1.151-.136-1.151-.136-2.371s.136-1.219.136-2.439.07-1.219.07-2.439a.684.684,0,0,1,.76-.745c1.245,0,1.245-.136,2.56-.136,1.243,0,1.243.068,2.486.068H319c1.245,0,1.245-.136,2.49-.136,1.313,0,1.313.068,2.556.068s1.245-.068,2.49-.068H329.1c1.245,0,1.245.136,2.488.136s1.245-.2,2.49-.2c1.313,0,1.313.272,2.556.272s1.245-.2,2.49-.2h2.558c1.245,0,1.245.136,2.49.136s1.245-.068,2.556-.068a.908.908,0,0,1,.9.881v4.878c0,1.219-.138,1.219-.138,2.371,0,.543-.279,1.017-.762,1.017-1.311,0-1.311-.068-2.556-.068-1.315,0-1.315-.068-2.56-.068h-2.556c-1.245,0-1.245-.068-2.558-.068-1.245,0-1.245.136-2.558.136a.79.79,0,0,0-.83.813c0,1.219-.138,1.219-.138,2.439s.07,1.219.07,2.5c0,1.222-.07,1.222-.07,2.439s.138,1.219.138,2.441v2.439c0,1.217.068,1.217.068,2.439s-.136,1.217-.136,2.439.136,1.219.136,2.437-.136,1.222-.136,2.439-.07,1.222-.07,2.439-.068,1.222-.068,2.439c0,1.29.068,1.29.068,2.507v2.439c0,1.222.138,1.222.138,2.439v4.88a.923.923,0,0,1-.966.879c-1.451,0-1.451-.068-2.907-.068h-2.9c-1.451,0-1.451.2-2.833.2a1.175,1.175,0,0,1-1.107-1.015c0-1.222.138-1.222.138-2.439s.068-1.222.068-2.441-.138-1.217-.138-2.439V132.09c0-1.217.277-1.217.277-2.439,0-1.285-.206-1.285-.206-2.507s-.07-1.217-.07-2.439.209-1.217.209-2.439-.07-1.217-.07-2.437-.138-1.222-.138-2.439.07-1.222.07-2.439-.07-1.222-.07-2.439v-2.441c0-1.217.138-1.217.138-2.439,0-1.285-.138-1.285-.138-2.5s.07-1.219.07-2.439a.848.848,0,0,0-.83-.881" transform="translate(347.412 104.537)" fill="#fffaca"/>
    <path id="Path_1030" data-name="Path 1030" d="M336.627,92.9c1.245,0,1.245-.338,2.49-.338,1.313,0,1.313.134,2.558.134,1.313,0,1.313.136,2.556.136.762,0,1.592.543,1.592,1.288,0,1.288-.206,1.288-.206,2.641,0,1.288.136,1.288.136,2.575,0,1.356.07,1.356.07,2.643v2.641c0,1.288-.138,1.288-.138,2.643,0,1.288.138,1.288.138,2.573,0,1.356-.206,1.356-.206,2.643a1.553,1.553,0,0,0,1.451,1.49c1.175,0,1.175-.136,2.42-.136h2.35c1.175,0,1.175.2,2.352.2s1.175-.068,2.349-.068c1.245,0,1.245-.2,2.42-.2s1.177-.068,2.352-.068h2.349c1.175,0,1.175.2,2.352.2a1.51,1.51,0,0,0,1.52-1.424c0-1.288-.209-1.288-.209-2.643,0-1.285.141-1.285.141-2.573,0-1.356.136-1.356.136-2.643v-2.641c0-1.288-.206-1.288-.206-2.643,0-1.288-.07-1.288-.07-2.575,0-1.354.209-1.354.209-2.641a1.332,1.332,0,0,1,1.383-1.356c1.245,0,1.245.068,2.558.068,1.243,0,1.243-.136,2.488-.136,1.313,0,1.313-.134,2.558-.134a1.5,1.5,0,0,1,1.381,1.558c0,1.219.07,1.219.07,2.507,0,1.219-.07,1.219-.07,2.439,0,1.285.14,1.285.14,2.507s-.14,1.219-.14,2.507c0,1.217.14,1.217.14,2.439s-.07,1.217-.07,2.5v2.441c0,1.285.14,1.285.14,2.5s-.07,1.219-.07,2.507c0,1.219-.14,1.219-.14,2.439,0,1.288-.066,1.288-.066,2.507s.277,1.219.277,2.439c0,1.288-.277,1.288-.277,2.507s.136,1.219.136,2.507c0,1.219-.136,1.219-.136,2.437,0,1.288.066,1.288.066,2.507s-.066,1.219-.066,2.509c0,1.217.136,1.217.136,2.437s.07,1.219.07,2.507a1.455,1.455,0,0,1-1.522,1.356c-1.245,0-1.245-.068-2.558-.068-1.245,0-1.245.068-2.488.068-1.313,0-1.313.134-2.558.134a1.5,1.5,0,0,1-1.451-1.49c0-1.219-.07-1.219-.07-2.439,0-1.151.138-1.151.138-2.371s-.068-1.219-.068-2.439c0-1.151.136-1.151.136-2.371v-2.373c0-1.217-.136-1.217-.136-2.437s.136-1.219.136-2.371a1.58,1.58,0,0,0-1.588-1.492c-1.177,0-1.177.2-2.352.2s-1.175-.066-2.349-.066-1.175.066-2.352.066-1.175-.066-2.42-.066c-1.175,0-1.175-.136-2.349-.136s-1.177.068-2.352.068-1.175.134-2.35.134c-1.245,0-1.245-.134-2.42-.134a1.333,1.333,0,0,0-1.315,1.424c0,1.151-.068,1.151-.068,2.371s-.138,1.219-.138,2.437v4.744c0,1.219.277,1.219.277,2.439s-.206,1.219-.206,2.371v2.439a1.32,1.32,0,0,1-1.385,1.288c-1.243,0-1.243.2-2.556.2-1.245,0-1.245-.134-2.558-.134-1.245,0-1.245-.068-2.49-.068a1.221,1.221,0,0,1-1.313-1.288v-2.507c0-1.219-.138-1.219-.138-2.437v-2.509c0-1.219.138-1.219.138-2.507,0-1.217-.068-1.217-.068-2.437,0-1.288.068-1.288.068-2.507s-.138-1.219-.138-2.507c0-1.219-.138-1.219-.138-2.439s.068-1.219.068-2.507c0-1.219.14-1.219.14-2.439,0-1.288.068-1.288.068-2.507s-.068-1.219-.068-2.5c0-1.222-.14-1.222-.14-2.441v-2.5c0-1.222.14-1.222.14-2.439v-2.507c0-1.222-.07-1.222-.07-2.507,0-1.219.07-1.219.07-2.439V94.124a1.227,1.227,0,0,1,1.381-1.219" transform="translate(377.978 104.43)" fill="#fffaca"/>
    <path id="Path_1031" data-name="Path 1031" d="M366.032,92.833c1.245,0,1.245-.068,2.558-.068,1.245,0,1.245.068,2.558.068,1.243,0,1.243.068,2.558.068,1.245,0,1.245-.2,2.556-.2,1.245,0,1.245.136,2.56.136,1.243,0,1.243-.136,2.558-.136h2.556c1.245,0,1.245.136,2.56.136,1.243,0,1.243-.2,2.558-.2,1.243,0,1.243.2,2.556.2,1.245,0,1.245.068,2.56.068,1.243,0,1.243-.2,2.556-.2a1.707,1.707,0,0,1,1.66,1.558c0,1.492-.277,1.492-.277,3.05,0,1.49.209,1.49.209,2.979a1.583,1.583,0,0,1-1.592,1.492H391.68c-1.315,0-1.315.068-2.558.068s-1.245-.2-2.49-.2c-1.311,0-1.311.2-2.556.2s-1.245.068-2.49.068c-1.313,0-1.313-.2-2.558-.2s-1.245.068-2.556.068a1.4,1.4,0,0,0-1.385,1.49c0,1.424.07,1.424.07,2.845s-.207,1.424-.207,2.845.136,1.424.136,2.845a1.4,1.4,0,0,0,1.385,1.49c1.243,0,1.243-.066,2.488-.066s1.243-.136,2.488-.136c1.313,0,1.313.272,2.558.272s1.245-.2,2.49-.2,1.243.2,2.488.2,1.245-.07,2.49-.07h2.488a1.4,1.4,0,0,1,1.451,1.424c0,1.49-.068,1.49-.068,2.913v2.982a1.293,1.293,0,0,1-1.383,1.354c-1.243,0-1.243.136-2.488.136s-1.245-.068-2.49-.068H386.5c-1.245,0-1.245-.068-2.49-.068s-1.245.136-2.49.136c-1.313,0-1.313-.136-2.556-.136s-1.245.136-2.488.136a1.525,1.525,0,0,0-1.592,1.424v6.5c0,1.083.07,1.083.07,2.166a1.639,1.639,0,0,0,1.522,1.626c1.381,0,1.381-.068,2.694-.068s1.313-.134,2.628-.134c1.381,0,1.381-.068,2.694-.068h5.323c1.315,0,1.315.2,2.628.2s1.313-.068,2.7-.068c1.315,0,1.315-.2,2.626-.2a1.639,1.639,0,0,1,1.522,1.626v3.048c0,1.56.138,1.56.138,3.05a1.539,1.539,0,0,1-1.66,1.356c-1.243,0-1.243.066-2.418.066-1.245,0-1.245.2-2.49.2-1.175,0-1.175-.066-2.42-.066h-2.42c-1.243,0-1.243.066-2.488.066-1.175,0-1.175-.136-2.42-.136s-1.245-.068-2.42-.068H378.2c-1.177,0-1.177-.066-2.422-.066s-1.245.066-2.42.066c-1.245,0-1.245.068-2.488.068-1.175,0-1.175.136-2.42.136s-1.245-.136-2.42-.136a1.519,1.519,0,0,1-1.522-1.49c0-1.219-.136-1.219-.136-2.439,0-1.288.066-1.288.066-2.5s-.066-1.222-.066-2.441v-2.5c0-1.222.206-1.222.206-2.439v-2.507c0-1.222.07-1.222.07-2.439,0-1.288-.141-1.288-.141-2.507v-4.946c0-1.219.141-1.219.141-2.439,0-1.288-.211-1.288-.211-2.507s.141-1.219.141-2.439c0-1.288-.141-1.288-.141-2.507v-2.439c0-1.285.211-1.285.211-2.507s-.141-1.217-.141-2.439V96.694c0-1.217-.136-1.217-.136-2.439a1.591,1.591,0,0,1,1.658-1.422" transform="translate(411.075 104.501)" fill="#fffaca"/>
    <path id="Path_1032" data-name="Path 1032" d="M69.294,118.087c0-.881.068-1.694.138-2.507a15.776,15.776,0,0,1,.206-2.575c.138-.813.415-1.626.621-2.439.277-.813.694-1.558,1.039-2.371a13.814,13.814,0,0,1,.9-2.371,22.728,22.728,0,0,1,1.311-2.169,23.905,23.905,0,0,1,1.522-2.1c.553-.609,1.381-1.083,1.937-1.692.624-.543,1.107-1.29,1.8-1.83a18.39,18.39,0,0,1,2.211-1.288c.76-.475,1.381-1.083,2.143-1.49.76-.338,1.59-.679,2.352-1.017.828-.27,1.658-.406,2.556-.609a13.461,13.461,0,0,1,2.49-.679,15.615,15.615,0,0,1,2.558-.406c.828-.066,1.658-.2,2.556-.2s1.728.136,2.56.2c.9.136,1.8.136,2.626.272s1.66.475,2.488.677a25.278,25.278,0,0,1,2.42.881c.83.338,1.66.543,2.422.881a24.416,24.416,0,0,1,2.211,1.354,14.753,14.753,0,0,1,2.073,1.56,15.179,15.179,0,0,1,2.075,1.558,24.747,24.747,0,0,1,1.59,1.964,11.281,11.281,0,0,1,1.522,2.032,22.489,22.489,0,0,1,1.313,2.169,23.46,23.46,0,0,1,1.107,2.3c.277.813.692,1.558.9,2.371.277.813.277,1.626.483,2.507.136.813.277,1.626.345,2.507.07.813.347,1.626.347,2.507s-.209,1.694-.277,2.507c-.07.879-.279,1.692-.415,2.507-.206.811-.347,1.626-.624,2.437-.206.813-.277,1.694-.551,2.507a24.388,24.388,0,0,1-1.177,2.3,22.924,22.924,0,0,1-1.451,2.1,13.584,13.584,0,0,1-1.451,2.032,23.322,23.322,0,0,1-1.8,1.9c-.621.541-1.175,1.219-1.866,1.762a11.859,11.859,0,0,1-2.211,1.285,23.219,23.219,0,0,1-2.213,1.288,23.949,23.949,0,0,1-2.281,1.219,17.037,17.037,0,0,1-2.49.679,15.822,15.822,0,0,1-2.556.475c-.83.134-1.66.4-2.558.541-.832.068-1.66.2-2.56.2s-1.728-.134-2.556-.2a15.662,15.662,0,0,1-2.558-.541c-.83-.138-1.728-.138-2.558-.34a14.381,14.381,0,0,1-2.42-.881,24.8,24.8,0,0,1-2.35-1.151c-.762-.406-1.454-.813-2.213-1.288a22.974,22.974,0,0,1-2.143-1.354c-.692-.543-1.383-1.085-2-1.628a19.593,19.593,0,0,1-1.592-1.964c-.553-.677-1.175-1.285-1.658-1.964-.483-.745-.76-1.558-1.175-2.3a14.047,14.047,0,0,1-1.245-2.237,24.089,24.089,0,0,1-.966-2.371c-.209-.813-.347-1.626-.485-2.5-.138-.815-.206-1.628-.277-2.507-.07-.813-.138-1.628-.138-2.507m41.963,0a15.06,15.06,0,0,0-.136-2.507,9.909,9.909,0,0,0-.694-2.439,23.513,23.513,0,0,0-.69-2.371,11.831,11.831,0,0,0-1.107-2.3,11.039,11.039,0,0,0-1.66-1.9,11.362,11.362,0,0,0-1.866-1.762,16.388,16.388,0,0,0-2.143-1.354,16.959,16.959,0,0,0-2.211-1.219c-.83-.2-1.728-.2-2.558-.338-.832-.068-1.66-.409-2.56-.409a15.365,15.365,0,0,0-2.556.409c-.83.134-1.658.338-2.49.541a14.737,14.737,0,0,0-2.418.881,21.756,21.756,0,0,0-2.075,1.424,22.464,22.464,0,0,0-1.866,1.76,21.8,21.8,0,0,0-1.451,2.032c-.417.745-.9,1.424-1.245,2.169a16.237,16.237,0,0,0-.76,2.439,13.737,13.737,0,0,0-.553,2.439,14.721,14.721,0,0,0-.209,2.507c0,.879.209,1.694.277,2.507.138.813.209,1.626.415,2.437.277.815.483,1.628.76,2.439a13.828,13.828,0,0,0,1.383,2.1,11.091,11.091,0,0,0,1.383,2.1,11.357,11.357,0,0,0,1.866,1.762,22.294,22.294,0,0,0,2.075,1.422,15.037,15.037,0,0,0,2.418,1.017c.762.2,1.66.338,2.49.475a15.612,15.612,0,0,0,2.556.338,15.748,15.748,0,0,0,2.56-.27,15.221,15.221,0,0,0,2.488-.745,25,25,0,0,0,2.42-.815,11.469,11.469,0,0,0,2.143-1.354,15.222,15.222,0,0,0,1.866-1.762,8.774,8.774,0,0,0,1.315-2.166,13.657,13.657,0,0,0,1.243-2.169,18.8,18.8,0,0,0,.968-2.373,13.8,13.8,0,0,0,.415-2.437,14.742,14.742,0,0,0,.206-2.507" transform="translate(78.175 104.178)" fill="#fffaca"/>
    <path id="Path_1033" data-name="Path 1033" d="M103.895,92.729c1.245,0,1.245-.068,2.49-.068s1.243.136,2.488.136,1.245.068,2.49.068,1.243-.136,2.488-.136,1.245-.068,2.488-.068,1.245.2,2.488.2,1.245-.2,2.49-.2h2.49c1.243,0,1.243.068,2.488.068s1.245-.068,2.49-.068h2.488c1.175,0,1.175.068,2.42.068a1.584,1.584,0,0,1,1.592,1.49c0,1.492-.14,1.492-.14,3.05,0,1.492-.07,1.492-.07,3.05a1.292,1.292,0,0,1-1.381,1.354c-1.175,0-1.175.2-2.35.2-1.245,0-1.245-.068-2.422-.068H126.5c-1.243,0-1.243-.2-2.418-.2-1.245,0-1.245.2-2.42.2h-2.42c-1.245,0-1.245.068-2.42.068H114.4a1.409,1.409,0,0,0-1.52,1.356c0,1.285-.068,1.285-.068,2.5,0,1.288.136,1.288.136,2.507,0,1.288-.068,1.288-.068,2.507v2.575a1.508,1.508,0,0,0,1.52,1.422h2.49c1.245,0,1.245.136,2.42.136,1.245,0,1.245-.136,2.488-.136s1.245.136,2.49.136h2.488c1.245,0,1.245-.136,2.42-.136,1.245,0,1.245-.068,2.49-.068a1.579,1.579,0,0,1,1.522,1.56c0,1.015.068,1.015.068,2.1v2.032c0,1.085.068,1.085.068,2.1a1.765,1.765,0,0,1-1.658,1.626c-1.245,0-1.245-.27-2.49-.27h-4.908c-1.245,0-1.245.2-2.49.2s-1.243.068-2.488.068h-2.42c-1.245,0-1.245-.2-2.49-.2a1.58,1.58,0,0,0-1.588,1.49c0,1.356.136,1.356.136,2.641v10.568c0,1.288.07,1.288.07,2.575a1.759,1.759,0,0,1-1.592,1.626c-1.311,0-1.311-.066-2.556-.066h-2.488c-1.245,0-1.245-.138-2.49-.138a1.463,1.463,0,0,1-1.522-1.422c0-1.219.07-1.219.07-2.439s.07-1.219.07-2.5c0-1.222-.14-1.222-.14-2.441s.07-1.219.07-2.5V128.84c0-1.222.136-1.222.136-2.507,0-1.222-.136-1.222-.136-2.439v-2.507c0-1.219-.206-1.219-.206-2.439s.206-1.219.206-2.507c0-1.219-.07-1.219-.07-2.439s-.07-1.219-.07-2.507c0-1.219.07-1.219.07-2.439s.14-1.219.14-2.507v-2.439c0-1.219.066-1.219.066-2.507,0-1.217-.066-1.217-.066-2.439V96.658c0-1.217-.277-1.217-.277-2.439a1.647,1.647,0,0,1,1.658-1.49" transform="translate(115.34 104.537)" fill="#fffaca"/>
    <path id="Path_1034" data-name="Path 1034" d="M127.87,92.729c1.245,0,1.245-.068,2.49-.068s1.243.136,2.488.136,1.245.068,2.49.068,1.243-.136,2.488-.136,1.245-.068,2.488-.068,1.245.2,2.488.2,1.245-.2,2.49-.2h2.49c1.243,0,1.243.068,2.488.068s1.245-.068,2.49-.068h2.488c1.175,0,1.175.068,2.42.068a1.584,1.584,0,0,1,1.592,1.49c0,1.492-.14,1.492-.14,3.05,0,1.492-.07,1.492-.07,3.05a1.292,1.292,0,0,1-1.381,1.354c-1.175,0-1.175.2-2.35.2-1.245,0-1.245-.068-2.422-.068h-2.42c-1.243,0-1.243-.2-2.418-.2-1.245,0-1.245.2-2.42.2h-2.42c-1.245,0-1.245.068-2.42.068h-2.422a1.407,1.407,0,0,0-1.517,1.356c0,1.285-.07,1.285-.07,2.5,0,1.288.136,1.288.136,2.507,0,1.288-.066,1.288-.066,2.507v2.575a1.506,1.506,0,0,0,1.517,1.422h2.49c1.245,0,1.245.136,2.42.136,1.245,0,1.245-.136,2.488-.136s1.245.136,2.49.136h2.488c1.245,0,1.245-.136,2.42-.136,1.245,0,1.245-.068,2.49-.068a1.579,1.579,0,0,1,1.522,1.56c0,1.015.068,1.015.068,2.1v2.032c0,1.085.068,1.085.068,2.1a1.765,1.765,0,0,1-1.658,1.626c-1.245,0-1.245-.27-2.49-.27h-4.908c-1.245,0-1.245.2-2.49.2s-1.243.068-2.488.068h-2.42c-1.245,0-1.245-.2-2.49-.2a1.58,1.58,0,0,0-1.588,1.49c0,1.356.136,1.356.136,2.641v10.568c0,1.288.07,1.288.07,2.575a1.759,1.759,0,0,1-1.592,1.626c-1.311,0-1.311-.066-2.556-.066H130.36c-1.245,0-1.245-.138-2.49-.138a1.463,1.463,0,0,1-1.522-1.422c0-1.219.07-1.219.07-2.439s.07-1.219.07-2.5c0-1.222-.14-1.222-.14-2.441s.07-1.219.07-2.5V128.84c0-1.222.136-1.222.136-2.507,0-1.222-.136-1.222-.136-2.439v-2.507c0-1.219-.206-1.219-.206-2.439s.206-1.219.206-2.507c0-1.219-.07-1.219-.07-2.439s-.07-1.219-.07-2.507c0-1.219.07-1.219.07-2.439s.14-1.219.14-2.507v-2.439c0-1.219.066-1.219.066-2.507,0-1.217-.066-1.217-.066-2.439V96.658c0-1.217-.277-1.217-.277-2.439a1.647,1.647,0,0,1,1.658-1.49" transform="translate(142.388 104.537)" fill="#fffaca"/>
    <path id="Path_1035" data-name="Path 1035" d="M72.273,158.492a4.161,4.161,0,0,1,4.322-4.235c3.89,0,3.89.211,7.564.211s3.673-.424,7.349-.424,3.673.424,7.346.424c3.888,0,3.888-.424,7.563-.424s3.673.213,7.346.213h7.349c2.809,0,5.618-.213,8.213,0,2.809.211,5.4.847,8,1.27s5.186,1.058,7.778,1.694c2.811.634,5.62.634,8,1.481,2.594,1.06,4.971,2.541,7.349,3.6a74.695,74.695,0,0,1,7.131,3.6,75.186,75.186,0,0,1,7.132,3.812c2.377,1.481,4.105,3.6,6.05,5.506a48.368,48.368,0,0,1,5.4,5.929,48.2,48.2,0,0,1,4.971,6.14,82.613,82.613,0,0,1,8.425,13.554c.866,2.543,1.3,5.084,2.162,7.625.647,2.541,1.73,5.082,2.377,7.623.432,2.752.217,5.293.432,8.047.217,2.541.649,5.295.649,7.836,0,2.754-.649,5.295-.864,8.049-.217,2.541,0,5.293-.434,7.834-.647,2.754-1.728,5.082-2.377,7.623-.864,2.541-1.079,5.295-2.16,7.836-1.081,2.33-2.377,4.659-3.673,6.989a73.163,73.163,0,0,1-4.322,6.776c-1.513,2.12-2.809,4.448-4.537,6.565-1.945,1.9-3.892,3.812-5.835,5.506a46.772,46.772,0,0,1-6.052,5.295c-2.16,1.694-4.752,2.541-7.131,4.024-2.377,1.268-4.537,2.965-7.129,4.022a78.613,78.613,0,0,1-7.566,2.541c-2.592.849-5.184,1.694-7.778,2.33s-5.4.847-8,1.271c-2.594.213-5.4.634-8,.847-2.811.211-5.4.634-8.213.634-3.673,0-3.673-.423-7.349-.423h-7.346c-3.675,0-3.675.213-7.563.213-3.673,0-3.673.636-7.346.636H76.6c-2.377,0-4.107-2.33-4.107-4.871,0-3.812.217-3.812.217-7.623,0-4.024-.432-4.024-.432-7.838s-.432-3.809-.432-7.834c0-3.812.217-3.812.217-7.623s-.217-3.812-.217-7.836c0-3.814.217-3.814.217-7.623v-7.836c0-3.812.43-3.812.43-7.836,0-3.812-.43-3.812-.43-7.625,0-4.022.43-4.022.43-7.834s-.215-3.812-.215-7.623c0-4.024-.432-4.024-.432-7.836s.217-3.814.217-7.836c0-3.812-.217-3.812-.217-7.623,0-4.024.217-4.024.217-7.836s.215-3.812.215-7.836c0-3.812.215-3.812.215-7.623,0-4.024-.215-4.024-.215-7.836ZM119.6,281.953c2.809,0,5.618,0,8.213-.211a51.02,51.02,0,0,0,8.21-1.273,65.988,65.988,0,0,0,7.781-2.541,49.055,49.055,0,0,0,7.564-3.6,35.834,35.834,0,0,0,6.05-5.295,38.232,38.232,0,0,0,5.62-6.142,44.413,44.413,0,0,0,3.888-6.989,52.935,52.935,0,0,0,2.162-7.834c.647-2.543,1.511-5.084,1.945-7.836.215-2.754.432-5.506.432-8.259s-.866-5.295-1.081-7.836c-.432-2.754-.215-5.506-.864-8.047a47.7,47.7,0,0,0-2.594-7.836c-1.079-2.541-3.024-4.448-4.537-6.776-1.513-2.118-2.809-4.448-4.971-6.353a35.66,35.66,0,0,0-6.05-5.295,49.257,49.257,0,0,0-7.564-3.6,43.917,43.917,0,0,0-8-2.118c-2.594-.634-5.186-.634-8-1.058-2.594-.211-5.4-.849-8.213-.849-4.969,0-4.969.426-10.156.426-2.379,0-4.539,1.481-4.539,4.022,0,3.814.217,3.814.217,7.623,0,3.6-.432,3.6-.432,7.412s.432,3.814.432,7.623-.432,3.814-.432,7.627.647,3.809.647,7.623-.215,3.809-.215,7.41c0,3.812-.217,3.812-.217,7.625s.432,3.809.432,7.623v7.623c0,3.814.217,3.814.217,7.412,0,3.812-.649,3.812-.649,7.623s.432,3.814.432,7.623a4.294,4.294,0,0,0,4.107,4.448Z" transform="translate(81.049 173.787)" fill="#fffaca"/>
    <path id="Path_1036" data-name="Path 1036" d="M148.717,233.621c0-2.754.215-5.295.43-7.836.217-2.752,0-5.506.649-8.047.432-2.541,1.3-5.084,1.945-7.625.864-2.541,2.162-4.871,3.241-7.412a44.033,44.033,0,0,1,2.809-7.412,70.738,70.738,0,0,1,4.107-6.774,72.494,72.494,0,0,1,4.754-6.565c1.728-1.907,4.322-3.388,6.05-5.295,1.945-1.694,3.458-4.024,5.618-5.718s4.754-2.752,6.914-4.022c2.379-1.483,4.322-3.39,6.7-4.661,2.375-1.058,4.969-2.115,7.346-3.175,2.592-.847,5.186-1.27,8-1.907a41.739,41.739,0,0,1,7.781-2.118,48.6,48.6,0,0,1,8-1.27c2.592-.211,5.186-.634,8-.634s5.4.424,8,.634c2.809.423,5.618.423,8.213.847s5.186,1.483,7.778,2.118A79.362,79.362,0,0,1,262.6,159.5c2.594,1.058,5.188,1.694,7.564,2.752a74.421,74.421,0,0,1,6.917,4.237c2.377,1.271,4.322,3.175,6.482,4.869a46.845,46.845,0,0,1,6.484,4.871,77.7,77.7,0,0,1,4.969,6.142,35.01,35.01,0,0,1,4.754,6.353,71.743,71.743,0,0,1,4.107,6.776,74.415,74.415,0,0,1,3.456,7.2c.864,2.541,2.16,4.871,2.809,7.412.864,2.541.864,5.084,1.513,7.838.432,2.541.864,5.082,1.081,7.834.215,2.541,1.079,5.082,1.079,7.836s-.647,5.293-.864,7.834c-.215,2.754-.864,5.295-1.3,7.836-.649,2.541-1.081,5.082-1.945,7.623-.647,2.543-.864,5.3-1.728,7.838a75.381,75.381,0,0,1-3.675,7.2,70.908,70.908,0,0,1-4.537,6.563,42.955,42.955,0,0,1-4.537,6.355,73.963,73.963,0,0,1-5.618,5.929c-1.947,1.694-3.675,3.812-5.835,5.508-1.945,1.692-4.539,2.752-6.917,4.022a73.3,73.3,0,0,1-6.914,4.024,75.939,75.939,0,0,1-7.132,3.809,52.855,52.855,0,0,1-7.781,2.118,47.979,47.979,0,0,1-8,1.483c-2.592.424-5.186,1.271-8,1.7-2.594.211-5.186.634-8,.634s-5.4-.423-8-.634a48.769,48.769,0,0,1-8-1.7c-2.594-.421-5.4-.421-8-1.06a45.649,45.649,0,0,1-7.566-2.752,78.658,78.658,0,0,1-7.346-3.6c-2.377-1.273-4.537-2.541-6.917-4.024-2.16-1.481-4.752-2.541-6.7-4.237-2.162-1.692-4.322-3.388-6.267-5.082a61.741,61.741,0,0,1-4.971-6.14c-1.728-2.117-3.673-4.024-5.186-6.142-1.513-2.33-2.377-4.871-3.673-7.2s-3.026-4.446-3.89-6.987a75.924,75.924,0,0,1-3.024-7.41c-.649-2.541-1.081-5.084-1.513-7.838-.432-2.541-.649-5.082-.866-7.836-.215-2.541-.43-5.082-.43-7.834m131.174,0a46.4,46.4,0,0,0-.432-7.836c-.217-2.752-1.3-5.082-2.16-7.623a74.935,74.935,0,0,0-2.162-7.412,37.218,37.218,0,0,0-3.458-7.2c-1.3-2.33-3.458-4.024-5.186-5.931a35.591,35.591,0,0,0-5.833-5.506,51.173,51.173,0,0,0-6.7-4.235c-2.162-1.058-4.322-2.965-6.917-3.812-2.592-.634-5.4-.634-8-1.06-2.594-.213-5.186-1.271-8-1.271s-5.4.847-8,1.271-5.186,1.06-7.781,1.694a45.821,45.821,0,0,0-7.564,2.754,69.127,69.127,0,0,0-6.482,4.448,70.692,70.692,0,0,0-5.835,5.506,67.689,67.689,0,0,0-4.537,6.353c-1.3,2.33-2.811,4.448-3.89,6.778a51.358,51.358,0,0,0-2.377,7.623,43.618,43.618,0,0,0-1.73,7.623,46.068,46.068,0,0,0-.647,7.836c0,2.752.647,5.293.864,7.834.432,2.541.647,5.082,1.3,7.625.864,2.541,1.513,5.082,2.377,7.623a43.3,43.3,0,0,0,4.322,6.565,34.863,34.863,0,0,0,4.322,6.565,35.7,35.7,0,0,0,5.835,5.506,69.811,69.811,0,0,0,6.482,4.448,47.554,47.554,0,0,0,7.564,3.175c2.377.634,5.186,1.06,7.781,1.483a48.436,48.436,0,0,0,8,1.058,48.629,48.629,0,0,0,8-.847,47.132,47.132,0,0,0,7.781-2.328,79.164,79.164,0,0,0,7.564-2.541,35.674,35.674,0,0,0,6.7-4.237,47.591,47.591,0,0,0,5.833-5.506c1.945-1.9,2.809-4.448,4.105-6.776a42.463,42.463,0,0,0,3.892-6.778,59.491,59.491,0,0,0,3.024-7.41,43.124,43.124,0,0,0,1.3-7.625,46.05,46.05,0,0,0,.649-7.834" transform="translate(167.778 172.778)" fill="#fffaca"/>
    <path id="Path_1037" data-name="Path 1037" d="M240.976,233.4c0-2.754-.432-5.295-.217-8.047a47.588,47.588,0,0,1,1.513-7.623c.432-2.754,1.079-5.3,1.73-7.838.862-2.541,1.728-4.871,2.807-7.412a51.1,51.1,0,0,1,3.026-7.2,72.163,72.163,0,0,1,4.105-6.776c1.513-2.328,3.673-4.024,5.4-5.931a44.514,44.514,0,0,1,5.186-5.927,71.168,71.168,0,0,1,6.053-5.295,59.8,59.8,0,0,1,6.265-4.659c2.377-1.483,4.539-2.965,6.914-4.235a45.92,45.92,0,0,1,7.566-2.754,79.923,79.923,0,0,1,7.564-2.965c2.592-.634,5.186-1.06,7.778-1.694,2.594-.424,5.186-1.271,8-1.483,2.592-.211,5.186.423,7.993.423,2.594,0,5.4-.634,7.781-.634,2.809.211,5.4.423,8,.847s4.971,1.481,7.566,2.117,5.186.847,7.563,1.694c2.375,1.058,4.969,2.117,7.129,3.177a70.227,70.227,0,0,1,6.7,4.022,69.194,69.194,0,0,1,6.048,5.082,65.753,65.753,0,0,1,5.186,5.718c1.73,1.9,3.89,3.388,5.4,5.506a4.856,4.856,0,0,1-1.079,6.565c-3.026,2.118-3.026,1.9-6.052,4.022s-3.241,1.7-6.265,3.6c-2.811,2.118-2.811,2.328-5.62,4.446a4.325,4.325,0,0,1-6.05-1.06,35.683,35.683,0,0,0-5.4-6.14,53.757,53.757,0,0,0-6.7-4.871,48.918,48.918,0,0,0-7.778-2.965c-2.594-.847-5.186-2.12-8-2.543-2.592-.421-5.618,0-8.43,0a49.241,49.241,0,0,0-7.993.424,46.359,46.359,0,0,0-7.783,1.483,44.564,44.564,0,0,0-7.346,2.965c-2.377,1.273-4.32,3.179-6.265,4.659a46.627,46.627,0,0,0-5.838,5.295c-1.943,1.907-3.022,4.235-4.535,6.565a50.263,50.263,0,0,0-3.675,6.778,41.4,41.4,0,0,0-2.809,7.2c-.647,2.541-1.081,5.082-1.513,7.623-.215,2.541,0,5.082,0,7.836,0,2.541-.432,5.293-.215,7.834a48.259,48.259,0,0,0,1.728,7.625,42.28,42.28,0,0,0,2.377,7.41,71.428,71.428,0,0,0,3.675,6.989,66.184,66.184,0,0,0,4.967,5.931,75.97,75.97,0,0,0,5.4,5.929,44.378,44.378,0,0,0,6.7,4.235,45.226,45.226,0,0,0,7.346,3.177,52.1,52.1,0,0,0,7.783,1.9,49.736,49.736,0,0,0,7.993.213c2.594,0,5.186-.213,7.566-.423,2.592-.423,5.186-.423,7.346-1.273,2.592-.634,4.754-2.118,6.917-3.175,2.16-1.271,4.537-2.118,6.48-3.6s3.458-3.6,5.189-5.506a58.517,58.517,0,0,0,4.754-5.506c1.3-1.907,4.105-1.907,6.267-.634,3.024,2.118,3.239,1.481,6.482,3.6,3.026,2.117,2.809,2.117,5.835,4.235,3.024,1.907,3.239,1.907,6.265,4.024a4.53,4.53,0,0,1,.866,6.353c-1.728,2.118-3.458,4.024-5.4,6.142a71.969,71.969,0,0,1-5.621,5.718,48.632,48.632,0,0,1-6.267,5.293,76.354,76.354,0,0,1-6.914,4.448c-2.377,1.27-5.186,1.907-7.564,2.965a56.644,56.644,0,0,1-7.781,2.752,48.579,48.579,0,0,1-8,1.907c-2.594.423-5.4,1.058-8.213,1.273-2.592.211-5.4,0-8.213,0s-5.4.211-7.993,0c-2.811-.215-5.4-.636-8-1.06-2.809-.636-5.4-1.058-8-1.907a44.987,44.987,0,0,1-7.564-2.541c-2.592-.847-4.754-2.541-7.132-3.812-2.377-1.06-5.186-1.694-7.349-3.177a49.812,49.812,0,0,1-6.265-5.082c-2.162-1.481-3.89-3.6-5.835-5.506s-3.673-3.812-5.4-5.718c-1.728-2.118-3.888-3.812-5.4-5.929-1.513-2.33-2.162-4.871-3.458-7.2-1.079-2.328-2.377-4.656-3.458-7.2-.864-2.33-1.728-4.871-2.592-7.415-.649-2.541-1.3-5.082-1.728-7.623s-1.73-5.082-1.945-7.836c-.217-2.541.432-5.293.432-7.834" transform="translate(271.323 173.002)" fill="#fffaca"/>
    <path id="Path_1038" data-name="Path 1038" d="M330.894,154.256c3.888,0,3.888-.213,7.778-.213h8c4.105,0,4.105.636,8,.636a3.656,3.656,0,0,1,3.892,4.024c0,3.812.215,3.812.215,7.834s.217,4.024.217,7.836c0,4.024.215,4.024.215,7.836,0,4.024.215,4.024.215,8.047,0,3.814-.647,3.814-.647,7.836,0,3.814.217,3.814.217,7.838a33.622,33.622,0,0,1,0,4.656,4.293,4.293,0,0,0,7.993,2.33c1.3-1.694,2.811-3.388,4.107-5.084,2.377-2.965,2.594-2.752,4.752-5.716,2.379-2.752,2.164-2.965,4.539-5.716,2.377-2.967,2.16-2.967,4.539-5.931,2.16-2.754,2.592-2.541,4.752-5.506,2.379-2.754,2.164-2.965,4.324-5.929,2.375-2.967,2.16-3.177,4.32-5.931,2.381-2.965,2.811-2.541,4.971-5.506,1.945-2.33,1.513-2.541,3.675-5.506,2.377-2.752,2.592-2.541,4.971-5.506a4.16,4.16,0,0,1,3.458-1.27c3.671,0,3.671-.847,7.344-.847s3.673.211,7.346.211,3.675.636,7.349.636h7.131c2.377,0,3.458,1.9,1.945,3.812-2.375,3.175-2.375,3.175-4.752,6.14-2.594,3.177-2.162,2.543-4.539,5.508-2.377,3.177-2.162,3.388-4.539,6.353-2.377,3.177-2.162,3.388-4.539,6.563-2.375,2.967-2.375,2.967-4.754,6.144-2.592,2.962-3.239,2.541-5.618,5.506-2.373,3.177-2.373,3.177-4.752,6.353-2.379,2.965-1.947,3.388-4.537,6.353-2.379,3.177-2.811,2.754-5.188,5.931-2.377,2.965-2.59,2.965-4.971,5.927-1.294,1.483-.862,3.814.217,5.295,1.945,3.177,2.164,2.967,4.322,6.142,2.162,2.965,1.728,3.388,3.89,6.353,2.162,3.177,1.943,3.177,4.107,6.355,1.941,2.962,2.16,2.962,4.105,6.142,2.16,3.175,2.375,2.965,4.537,6.14,2.162,2.965,2.377,2.752,4.322,5.929,2.16,3.177,1.945,3.177,4.105,6.353,1.945,3.177,2.377,2.965,4.542,5.929,1.943,3.18,1.726,3.39,3.671,6.565,2.162,2.965,2.162,3.177,4.107,6.144,2.158,3.175,2.809,2.752,4.971,5.927,1.945,2.965,1.726,3.177,3.886,6.355,2.162,2.965,1.73,3.175,3.892,6.353a2.6,2.6,0,0,1-2.162,4.235c-4.1,0-4.1.423-8,.423H427.277c-3.892,0-3.892-.423-8-.423a4.337,4.337,0,0,1-3.673-1.694c-2.16-3.177-2.16-3.177-4.32-6.14-2.164-3.18-1.945-3.39-3.89-6.568-2.162-3.175-2.162-3.175-4.324-6.14-2.16-3.177-1.943-3.39-3.886-6.565-2.162-3.175-2.813-2.752-4.756-5.929-2.16-3.177-2.16-3.177-4.322-6.142-2.162-3.175-1.728-3.388-3.89-6.565s-1.945-3.175-4.1-6.353-1.947-3.388-3.892-6.565a4.647,4.647,0,0,0-7.131,0c-2.809,3.177-2.809,3.177-5.4,6.144-2.594,3.175-2.809,2.962-5.4,6.14a4.189,4.189,0,0,0-.866,2.752c0,4.024-.647,4.024-.647,7.836v31.554c0,2.541-1.728,4.659-4.107,4.659-3.89,0-3.89-.634-8-.634-3.888,0-3.888.211-8,.211-3.89,0-3.89-.211-7.778-.211-2.59,0-4.322-1.483-4.322-4.024V298.26c0-3.812-.432-3.812-.432-7.836,0-3.814.651-3.814.651-7.623,0-4.024-.219-4.024-.219-7.836s.219-3.812.219-7.836c0-3.812-.219-3.812-.219-7.625,0-4.022-.649-4.022-.649-7.834v-7.623c0-4.024.432-4.024.432-7.836s.217-3.814.217-7.836c0-3.812-.432-3.812-.432-7.623,0-4.024.432-4.024.432-7.836s.219-3.812.219-7.836c0-3.812-.651-3.812-.651-7.623s.215-3.812.215-7.836c0-3.812.436-3.812.436-7.623,0-4.024-.436-4.024-.436-7.836s-.432-3.812-.432-7.836V158.7c0-2.541,2.381-4.448,4.971-4.448" transform="translate(367.695 173.786)" fill="#fffaca"/>
    <path id="Path_1039" data-name="Path 1039" d="M354.678,73.693c-92.311,0-247.231-36.04-247.231-4.756V91.5c23.81-1.539,85.7-1.764,120.537,12.373s48.726,45.649-11.132,87.151c-29.154,20.213,51.8,38.45,138.608,38.054s172.828-17.928,139.4-38.054c-52.851-31.82-51.129-66.541-13.078-85.567,43.547-21.773,112.982-12.82,123.54-12.237V68.937c0-33.293-158.333,4.756-250.645,4.756m67.19,103.8c-7.885,11.72-30.595,19.649-51.821,18.521a70.709,70.709,0,0,0,30.543-10.943,32.31,32.31,0,0,1-10.409-.828c6.508-.517,12.114-3.709,16.827-8.006a238.238,238.238,0,0,1-52.849,5.714,184.433,184.433,0,0,1-47.911-6.682c3.884,3.458,10.66,7.427,17.468,7.968,0,0-6.331,2.494-12.5,1.709a70.669,70.669,0,0,0,30.731,11.069c-21.224,1.128-43.936-6.8-51.821-18.521-7.423-11.032-3.707-25.715,12.769-38.914,11.092-10.075,32.01-16.7,53.321-16.7,21.435,0,40.018,7.823,51.378,16.874,12.765,10.171,21.622,27.809,14.269,38.737" transform="translate(121.218 62.365)" fill="#5e5982"/>
    <path id="Path_1040" data-name="Path 1040" d="M178.516,62.1l43.444,4.505c-1.334-3.99-3.731-5.629-5.744-5.408-3.705.4-5.335-6.184-12.784-6.74.86,1.671,2.143,4.418,1.6,5.042-.785.907-8.272.941-8.97-1.117-.37-1.09.583-2.716,1.564-4.016a15.429,15.429,0,0,0-1.656-.036c-8.106.534-7.244,4.995-11.09,4.195-2.6-.541-4.969.4-6.367,3.575" transform="translate(201.396 61.283)" fill="#9187a0"/>
    <path id="Path_1041" data-name="Path 1041" d="M292.275,62.1l-43.444,4.505c1.334-3.99,3.731-5.629,5.744-5.408,3.705.4,5.335-6.184,12.784-6.74-.86,1.671-2.143,4.418-1.6,5.042.785.907,8.272.941,8.97-1.117.37-1.09-.583-2.716-1.564-4.016a15.429,15.429,0,0,1,1.656-.036c8.106.534,7.244,4.995,11.09,4.195,2.6-.541,4.969.4,6.368,3.575" transform="translate(280.723 61.283)" fill="#9187a0"/>
    <path id="Path_1042" data-name="Path 1042" d="M252.962,91.119c-25.1,0-46.2,9.464-52.417,22.316,4.554,5.3,22.582,3.426,28.251,1.9,0,0-13.158,9.939-29.982,3.933a17.066,17.066,0,0,0-.13,1.841s6.382,11.971,45.839,6.959c-26.617.592-35.909-3.965-35.909-3.965s13.152,1.043,25.749-9.047c24.636-19.737,41.057-7.793,41.057-7.793-11.241,1.324-10.686,12.765-.628,19.066,7.668,4.8,23.987,4.7,32.067-1.594a15.942,15.942,0,0,0,.387-3.456c0-16.657-24.306-30.158-54.285-30.158m51.01,31.407s-17.049,10.4-31.667-2.918c-.251-.174-.5-.336-.753-.521.07.013.143.021.215.034l-.083-.074c.149.049.3.085.449.132a77.989,77.989,0,0,0,31.886-.836,30.582,30.582,0,0,1-8.881,4.573,77.993,77.993,0,0,0,8.834-.389" transform="translate(224.15 102.797)" fill="#06c3b5"/>
    <path id="Path_1043" data-name="Path 1043" d="M603.373,64.524c-9.147-25.021-170.928,7.508-248.208,7.661-88.947.175-231.8-31.363-247.41-7.687,25.83-17.219,125.913,11.948,169.5,20.556,48.016,9.485,120,8.611,177.574-5.918,53.055-13.388,132.4-29.679,148.544-14.612" transform="translate(121.566 62.125)" fill="#9187a0"/>
  </g>
</svg>
