<svg id="octopus" xmlns="http://www.w3.org/2000/svg" xmlns:xlink="http://www.w3.org/1999/xlink" width="372.067" height="389.857" viewBox="0 0 372.067 389.857">
  <defs>
    <clipPath id="clip-path">
      <rect id="Rectangle_35" data-name="Rectangle 35" width="372.067" height="389.857" fill="#012d74"/>
    </clipPath>
  </defs>
  <g id="Group_17" data-name="Group 17" clip-path="url(#clip-path)">
    <path id="Path_1044" data-name="Path 1044" d="M87,127a7.272,7.272,0,0,1,3.276-9.786,7.358,7.358,0,0,1,9.845,3.256c1.814,3.6-2.938,1.462-6.561,3.265S88.819,130.6,87,127" transform="translate(22.343 30.171)" fill="#012d74"/>
    <path id="Path_1045" data-name="Path 1045" d="M203.227,119.29A7.364,7.364,0,0,1,213.345,117a7.268,7.268,0,0,1,2.3,10.058c-2.158,3.407-2.779-1.74-6.207-3.887s-8.368-.477-6.209-3.886" transform="translate(52.523 30.027)" fill="#012d74"/>
    <path id="Path_1046" data-name="Path 1046" d="M345.531,325.923c-55.941-9.078-82.593-29.72-78.729-38.36.9-2.017,2.982-1.8,6.249-.428a4.594,4.594,0,0,0,4.3,6.309,4.628,4.628,0,0,0,4-2.281c1.35.669,2.793,1.37,4.325,2.078a4.57,4.57,0,0,0-.344,1.739,4.636,4.636,0,0,0,8.891,1.807c1.9.69,3.891,1.345,5.981,1.944a4.626,4.626,0,1,0,9,2.046q2.688.453,5.546.733a4.567,4.567,0,0,0-.088.886,4.631,4.631,0,1,0,9.229-.533c2.346-.043,4.761-.184,7.253-.449a4.628,4.628,0,1,0,9.091-1.464c1.238-.264,2.489-.553,3.758-.878.429-.111.85-.227,1.265-.346a4.633,4.633,0,0,0,9.025-1.444,4.558,4.558,0,0,0-.554-2.186,28.936,28.936,0,0,0,5.412-4.174,4.611,4.611,0,1,0,5.419-7.45c5.481-10.831,3.359-22.761,3.359-22.761s-14.665,26.43-61.748,10.318c-21.154-7.239-34.941-14.633-33.961-24.9.468-4.916,3.165-3.527,8.2-.509a4.547,4.547,0,0,0-.486,2.044,4.634,4.634,0,0,0,8.519,2.494c1.179.587,2.421,1.161,3.731,1.7a4.562,4.562,0,0,0-.157,1.172A4.632,4.632,0,0,0,301,254.59a43.968,43.968,0,0,0,4.659.69,4.627,4.627,0,0,0,9.248-.112c1.255-.142,2.463-.332,3.633-.559a4.632,4.632,0,0,0,8.979-1.571,4.565,4.565,0,0,0-.165-1.2,35.863,35.863,0,0,0,4.155-2.214,4.633,4.633,0,0,0,8.361-2.721,4.563,4.563,0,0,0-1.235-3.121,38.739,38.739,0,0,0,2.693-3.178,4.607,4.607,0,1,0,4.748-7.895c.554-1.172,1.05-2.339,1.492-3.485a4.7,4.7,0,0,0,.534.033,4.6,4.6,0,0,0,2.037-8.733,49.036,49.036,0,0,0,1.073-7.543s-28.757,32.422-53.125,8.64c-14.845-14.486-28.151-25.738-37.459-24.375,22.527-24.743,30.312-42.862,20.748-57.553-7.083-10.881-14.936-13.818-25.389-11.537-18.6,4.058-32.063,31.541-32.063,31.541s4.31-30.944,33.629-37.6C263.229,77.039,243.483,0,185.889,0S108.8,94.883,119.06,121.974c30.639,4.472,34.5,38.229,34.5,38.229s-11.192-24.55-27.4-29.729c-12.684-4.053-31.26,2.686-32.811,19.615-1.758,19.2,15.6,41.318,27.158,51.179,0,0-15.116-4.613-41.678,21.309-24.369,23.781-47.33,5.76-47.33,5.76a17.885,17.885,0,0,0,1.021,7.307,4.607,4.607,0,1,0,5.18,7.6,20.264,20.264,0,0,0,2.581,1.9A4.6,4.6,0,0,0,44.7,251.12a4.631,4.631,0,0,0,4.156-2.584,42.865,42.865,0,0,0,5.142.832,4.63,4.63,0,0,0,9.156.214c.7-.031,1.414-.069,2.148-.121,1.279-.092,2.513-.224,3.723-.375a4.629,4.629,0,0,0,9.249-.268,4.552,4.552,0,0,0-.247-1.472c2.083-.551,4.035-1.172,5.86-1.833a4.634,4.634,0,0,0,8.859-1.874,4.575,4.575,0,0,0-.364-1.793c1.631-.812,3.092-1.594,4.412-2.3a4.633,4.633,0,0,0,9.076-1.286c1.932,7.041-7.336,21.683-38.637,31.365-46.756,14.46-66.97-3.842-66.97-3.842A26.527,26.527,0,0,0,2.947,281.59a4.61,4.61,0,1,0,5.488,7.288,31.638,31.638,0,0,0,3.227,2.681,4.565,4.565,0,0,0-1.118,2.994,4.635,4.635,0,0,0,9.046,1.393,52.186,52.186,0,0,0,5.094,1.824,4.564,4.564,0,0,0-.247,1.472,4.631,4.631,0,0,0,9.2.744c2.117.41,4.2.733,6.262.98-.013.135-.021.269-.021.407a4.629,4.629,0,0,0,9.252.214q3.356.049,6.588-.142c-.008.1-.016.206-.016.311a4.631,4.631,0,0,0,9.262,0,4.557,4.557,0,0,0-.186-1.284q3.269-.506,6.372-1.191a4.629,4.629,0,0,0,9.252-.209,4.554,4.554,0,0,0-.5-2.076c2.614-.788,5.1-1.631,7.47-2.489a4.631,4.631,0,0,0,9.241-.422,4.567,4.567,0,0,0-.961-2.8c2.074-.851,4.007-1.667,5.786-2.406a4.634,4.634,0,0,0,9.068-1.315,4.569,4.569,0,0,0-.382-1.828c2.97-.7,4.826-.341,5.412,1.811,2.3,8.456-15.745,32.343-75.655,32.241C-.824,319.715,8.319,366.2,8.319,366.2a18.524,18.524,0,0,1,2.975-6.7,4.632,4.632,0,0,0,7.741-3.4,4.573,4.573,0,0,0-1.275-3.167,32.45,32.45,0,0,1,4.956-2.915A4.632,4.632,0,0,0,31.9,349.2a4.561,4.561,0,0,0-.543-2.159,59.409,59.409,0,0,1,8.094-1.294,4.567,4.567,0,0,0-.089.9,4.631,4.631,0,1,0,9.1-1.208q3.267.06,6.9.364a4.538,4.538,0,0,0-.3,1.61,4.631,4.631,0,1,0,9.224-.563q4.055.523,7.762.708c0,.038-.005.074-.005.111a4.631,4.631,0,0,0,9.262,0c0-.052-.006-.1-.008-.152a67.344,67.344,0,0,0,8.135-1,4.631,4.631,0,0,0,9.11-1.15,4.57,4.57,0,0,0-.178-1.253,52.725,52.725,0,0,0,6.156-2.667,4.636,4.636,0,0,0,8.688-2.219,4.564,4.564,0,0,0-.875-2.686c1.605-1.211,3.075-2.454,4.43-3.694a4.616,4.616,0,1,0,6.39-6.531c4.3-4.747,7.142-8.164,10.123-7.293,10.947,3.2,2.316,51.4-66.38,56.775-9.54.745-6.489,4.5,3.654,7.046a4.635,4.635,0,0,0,8.624,1.586c1.73.222,3.562.4,5.477.539l0,.034a4.629,4.629,0,0,0,9.251.224q2.773-.038,5.685-.22c-.005.084-.013.167-.013.253a4.631,4.631,0,1,0,9.1-1.184q3.018-.433,6.119-1.044a4.631,4.631,0,0,0,9.221-.587,4.544,4.544,0,0,0-.285-1.575q3.409-.977,6.848-2.212a4.632,4.632,0,0,0,9.131-1.072,4.564,4.564,0,0,0-.68-2.392c.656-.3,1.311-.612,1.965-.932q2.325-1.137,4.469-2.332a4.636,4.636,0,0,0,8.911-1.76,4.565,4.565,0,0,0-1.186-3.068,76.987,76.987,0,0,0,6.2-4.835A4.619,4.619,0,1,0,165.757,356c1.4-1.563,2.681-3.138,3.863-4.718a4.612,4.612,0,1,0,4.984-7.652c1.059-1.88,2-3.74,2.841-5.567a4.607,4.607,0,1,0,3.422-8.5c.754-2.142,1.406-4.175,2-6.07a4.606,4.606,0,1,0,2.97-8.679c1.362-3.14,2.9-5,5.32-5,2.324,0,4.144,1.719,5.9,4.622a4.6,4.6,0,1,0,3.994,8.242c.763,1.758,1.57,3.641,2.446,5.619a4.6,4.6,0,1,0,3.8,8.022c.822,1.6,1.7,3.233,2.656,4.875a4.606,4.606,0,1,0,4.793,7.411q1.6,2.215,3.427,4.4a4.608,4.608,0,1,0,6.071,6.41q1.83,1.705,3.853,3.335a4.594,4.594,0,0,0,3.2,7.927,4.628,4.628,0,0,0,4.218-2.711c1.831,1.123,3.756,2.2,5.794,3.212a4.536,4.536,0,0,0-.494,2.056,4.636,4.636,0,0,0,8.907,1.772q3.09,1.281,6.111,2.351a4.625,4.625,0,1,0,8.794,2.775c2.141.585,4.242,1.093,6.306,1.536a4.564,4.564,0,0,0-.271,1.541,4.631,4.631,0,0,0,9.261.016q3.186.415,6.195.623c-.01.127-.019.254-.019.383a4.631,4.631,0,0,0,9.262,0c0-.058-.006-.115-.009-.172,2.727-.076,5.285-.276,7.662-.569a4.629,4.629,0,0,0,9.046-1.784c12.43-3.562,14.713-9.913.282-10.516-61.016-2.555-80.414-58.178-69.467-61.378,2.546-.744,4.165,1.808,6.551,5.82a4.608,4.608,0,1,0,5,7.742c.885,1.191,1.863,2.4,2.959,3.619a4.757,4.757,0,0,0-.455.509,4.585,4.585,0,0,0,.912,6.447,4.648,4.648,0,0,0,6.375-.774,46.393,46.393,0,0,0,3.923,2.577,4.583,4.583,0,0,0,1.279,5.869,4.649,4.649,0,0,0,6.486-.907,4.524,4.524,0,0,0,.575-1.01q2.491.935,5.3,1.719a4.588,4.588,0,0,0,1.692,4.845,4.65,4.65,0,0,0,6.486-.907,4.559,4.559,0,0,0,.869-2.025q2.977.453,6.25.739a4.591,4.591,0,0,0,1.832,3.983,4.65,4.65,0,0,0,6.486-.908,4.556,4.556,0,0,0,.927-2.666q3.148.021,6.541-.111a4.584,4.584,0,0,0,1.838,3.9,4.649,4.649,0,0,0,6.486-.907,4.558,4.558,0,0,0,.909-3.169q4.153.049,7.818.351a4.587,4.587,0,0,0,1.768,4.493,4.649,4.649,0,0,0,6.486-.908,4.546,4.546,0,0,0,.912-2.385c2.323.438,4.455.956,6.422,1.534a4.585,4.585,0,0,0,1.619,5.083,4.639,4.639,0,0,0,6.973-1.709,35.726,35.726,0,0,1,5.082,3.152,4.588,4.588,0,0,0,1.58,5.206,4.65,4.65,0,0,0,4.268.684,16.364,16.364,0,0,1,2.892,6.124s18.435-33.271-22.383-39.9m-217.7-150.952c-6.576,3.774-16.024-.253-21.1-9s-3.863-18.888,2.712-22.662,16.022.254,21.1,9,3.863,18.887-2.712,22.66m119.255-23.846c5.8-8.288,15.553-11.511,21.787-7.2s6.585,14.52.787,22.808-15.553,11.511-21.787,7.2-6.585-14.521-.787-22.808" transform="translate(0 0)" fill="#012d74"/>
  </g>
</svg>
