<svg id="sticker3" xmlns="http://www.w3.org/2000/svg" xmlns:xlink="http://www.w3.org/1999/xlink" width="983.854" height="309.808" viewBox="0 0 983.854 309.808">
  <rect id="Rectangle_59" data-name="Rectangle 59" width="916.2" height="41.444" transform="translate(33.263 39.286)" fill="#f48164"/>
  <rect id="Rectangle_60" data-name="Rectangle 60" width="916.2" height="41.444" transform="translate(33.263 80.73)" fill="#fffaca"/>
  <rect id="Rectangle_61" data-name="Rectangle 61" width="916.2" height="41.444" transform="translate(33.263 122.174)" fill="#06c3b5"/>
  <rect id="Rectangle_62" data-name="Rectangle 62" width="916.2" height="41.444" transform="translate(33.263 163.619)" fill="#9187a0"/>
  <g>
    <path id="Path_1357" data-name="Path 1357" d="M0,309.807H983.854V0H0ZM943.829,40.024V204.5c-108.069-2.015-84.52-58.54-84.52-58.54-76.631,0-85.647,51.218-164.532,51.218s-61.73-52.228-61.73-52.228c-76.884,0-103.93,53.725-171.546,53.725-75.5,0-54.094-53.841-54.094-53.841-76.632,0-118.257,59.175-185.943,50.711-54.094-6.76-28.68-52.713-28.68-52.713-76.475,0-110.695,49.831-152.759,52.877V40.024Z" transform="translate(0 -0.001)" fill="#082d74"/>
    <path id="Path_1358" data-name="Path 1358" d="M19.277,132.488c0-.34-.042-.68-.042-1.021.042-.382.17-.68.212-1.023a12.926,12.926,0,0,1,.426-2.041c.086-.34.17-.638.256-.981.126-.34.17-.68.3-.979a10.32,10.32,0,0,1,.426-.981,9.635,9.635,0,0,1,.51-.891,9.973,9.973,0,0,1,.638-.809,5.532,5.532,0,0,1,.6-.811c.214-.3.34-.638.554-.895.256-.254.468-.552.682-.766.252-.254.594-.382.849-.6a5.92,5.92,0,0,1,.81-.68c.256-.212.51-.468.764-.68.3-.17.6-.384.9-.554s.594-.342.893-.51a8.611,8.611,0,0,1,.937-.424c.34-.13.722-.13,1.023-.256.338-.128.638-.214.979-.34.34-.084.638-.17.979-.256a9.257,9.257,0,0,1,1.023-.3,7.916,7.916,0,0,1,1.021-.042,7.98,7.98,0,0,1,1.021-.086,8.615,8.615,0,0,1,1.067,0c.338,0,.678-.168,1.019-.168.342.04.682.168,1.023.21s.682.172,1.023.214c.34.084.68-.042,1.021.042s.68.214,1.021.3c.3.084.64.168.981.3s.638.34.937.47a8.769,8.769,0,0,1,.937.422,9.657,9.657,0,0,1,.937.426c.3.17.552.426.853.6.3.214.552.426.806.638s.6.382.853.6.552.426.809.68c.212.214.426.556.638.811s.468.468.68.764c.214.254.426.554.64.811.168.3.424.552.594.851a7.237,7.237,0,0,1,.3,1.021,6.31,6.31,0,0,1,.552.895,6.415,6.415,0,0,1,.256.979,8.782,8.782,0,0,1,.34.981c.086.34.256.636.342.977.04.342.084.682.126,1.025s-.042.722,0,1.063c0,.34.084.68.084,1.021a8.037,8.037,0,0,1-.084,1.025,8.794,8.794,0,0,1-.126,1.019,8.555,8.555,0,0,1-.13,1.023c-.084.34,0,.724-.084,1.065a6.228,6.228,0,0,1-.424.935,9.115,9.115,0,0,1-.384.981,9.015,9.015,0,0,1-.34.979,8.909,8.909,0,0,1-.468.895c-.17.3-.3.636-.51.937s-.426.552-.638.809c-.214.3-.512.466-.724.766-.256.256-.382.552-.638.809s-.512.468-.766.682c-.256.254-.638.34-.895.55s-.552.426-.851.64c-.256.17-.512.468-.808.638s-.64.214-.979.382c-.3.13-.554.426-.853.554-.34.126-.68.126-1.021.256-.342.086-.638.254-.979.34a8.426,8.426,0,0,1-.981.3,9.836,9.836,0,0,0-1.021.3,8.714,8.714,0,0,1-1.023,0c-.34.04-.68.04-1.023.084-.34,0-.68.086-1.019.086a8.985,8.985,0,0,1-1.067.042,7.98,7.98,0,0,1-1.021-.086c-.34-.042-.68-.254-1.021-.3a8.361,8.361,0,0,1-1.023-.086c-.34-.086-.638-.3-.979-.384a7.409,7.409,0,0,1-1.023-.17,6.541,6.541,0,0,1-.979-.382c-.3-.128-.6-.384-.895-.51-.3-.172-.638-.256-.935-.426s-.512-.512-.811-.68a9.472,9.472,0,0,0-.935-.468c-.256-.214-.556-.426-.811-.68a5.969,5.969,0,0,1-.638-.808c-.256-.216-.6-.384-.853-.642-.212-.254-.34-.592-.552-.891a5.893,5.893,0,0,1-.68-.766,6.2,6.2,0,0,1-.468-.895,9.016,9.016,0,0,1-.51-.895,10.279,10.279,0,0,1-.512-.935c-.128-.3-.084-.682-.214-1.025a9.676,9.676,0,0,1-.466-.935c-.086-.34-.086-.68-.17-1.023-.042-.34,0-.724-.042-1.065s-.214-.636-.256-1.019c0-.342.042-.682.042-1.025m25.03,0a8.46,8.46,0,0,0-.126-1.021,8.988,8.988,0,0,0-.044-1.063,8.475,8.475,0,0,0-.212-1.025c-.128-.3-.214-.68-.34-.977a9.991,9.991,0,0,0-.468-.939c-.212-.3-.468-.552-.638-.809-.256-.254-.468-.51-.722-.766-.256-.21-.512-.466-.768-.68-.3-.212-.554-.468-.851-.636-.3-.13-.638-.3-.979-.426a7.279,7.279,0,0,0-1.023-.128,7.841,7.841,0,0,0-1.023-.17c-.34,0-.68-.17-1.019-.17-.384,0-.726.086-1.067.086a8.26,8.26,0,0,0-1.021.254c-.34.086-.638.212-.981.3a6.541,6.541,0,0,0-.935.426c-.3.172-.6.34-.895.512-.256.21-.638.34-.895.552-.212.256-.466.552-.68.806a4.7,4.7,0,0,0-.552.9,8.624,8.624,0,0,0-.384.937,9.7,9.7,0,0,0-.468.935c-.084.342-.17.682-.256,1.025-.04.34-.126.68-.17,1.021,0,.34.13.722.13,1.063s-.044.682-.044,1.025c.044.382,0,.722.044,1.063.084.34.338.636.422.979a6.586,6.586,0,0,0,.3.979c.17.34.34.594.51.895a6.368,6.368,0,0,0,.512.937c.212.254.466.51.722.764a5.634,5.634,0,0,0,.809.6c.3.212.554.468.851.638a6.617,6.617,0,0,0,.939.468,7.238,7.238,0,0,0,1.021.21,8.473,8.473,0,0,0,1.021.13c.34,0,.682.128,1.067.128a8.485,8.485,0,0,0,1.019-.128,4.319,4.319,0,0,0,1.023-.17,8.7,8.7,0,0,0,.979-.3c.34-.126.724-.126,1.023-.252a6.626,6.626,0,0,0,.809-.682,6.619,6.619,0,0,0,.895-.6,4.111,4.111,0,0,0,.638-.809,5.971,5.971,0,0,0,.51-.895,6.881,6.881,0,0,0,.512-.937,6.16,6.16,0,0,0,.424-.937,8.227,8.227,0,0,0,.17-1.021,8.363,8.363,0,0,0,.212-1.023,9,9,0,0,0,0-1.065" transform="translate(19.259 116.544)" fill="#fff"/>
    <path id="Path_1359" data-name="Path 1359" d="M42.928,116.57c.468,0,.468-.042.979-.042h1.023c.51,0,.51.168,1.023.168.466,0,.466-.126.979-.126h1.023c.51,0,.51.042,1.021.042.468,0,.468.084.979.084s.512-.084,1.023-.084.508-.042,1.021-.042.51.042.981.042c.508,0,.508.044,1.019.044s.512-.086,1.023-.086.512.086.979.086h1.023c.51,0,.51-.086,1.023-.086s.51-.042.979-.042c.51,0,.51.128,1.021.128s.512-.044,1.023-.044.51-.042.979-.042a1.173,1.173,0,0,1,1.107,1.063v2c0,.47-.084.47-.084.981,0,.466.084.466.084.979s-.128.512-.128.979a1.089,1.089,0,0,1-.17.766,1.209,1.209,0,0,1-.808.382c-.468,0-.468-.084-.979-.084-.468,0-.468.042-.981.042-.466,0-.466-.128-.979-.128h-.979c-.468,0-.468.044-.981.044h-.979c-.466,0-.466.126-.979.126h-.979c-.468,0-.468-.042-.981-.042-.466,0-.466-.128-.979-.128-.466,0-.466.128-.979.128a1.168,1.168,0,0,0-.766.212,1.315,1.315,0,0,0-.254.809c0,.512.044.512.044,1.021,0,.556.04.556.04,1.065,0,.554-.126.554-.126,1.067v1.063a1.01,1.01,0,0,0,.382.682.943.943,0,0,0,.68.382c.512,0,.512-.042,1.023-.042.552,0,.552.084,1.065.084s.51-.042,1.021-.042.512.084,1.021.084.512-.126,1.023-.126.51.042,1.023.042.51.042,1.023.042c.552,0,.552-.084,1.063-.084h1.023a1.053,1.053,0,0,1,.764.342,1.157,1.157,0,0,1,.34.764c0,.468-.084.468-.084.979V133c0,.508-.086.508-.086.977v.979c0,.51.128.51.128,1.023a1.116,1.116,0,0,1-.3.724,1.064,1.064,0,0,1-.764.338c-.512,0-.512-.042-1.023-.042H58.467c-.512,0-.512.042-1.023.042H56.422c-.51,0-.51-.084-1.023-.084s-.508.042-1.021.042H53.358c-.512,0-.512-.042-1.065-.042-.51,0-.51.084-1.023.084a.93.93,0,0,0-.722.3,1,1,0,0,0-.254.724c0,.468-.086.468-.086.977,0,.47-.044.47-.044.981,0,.468.044.468.044.979,0,.468.042.468.042.939,0,.508-.042.508-.042.977,0,.512.042.512.042.981s.044.468.044.979c0,.468-.044.468-.044.979,0,.468.044.468.044.979a1.149,1.149,0,0,1-.342.722,1.1,1.1,0,0,1-.766.384H47.1c-.51,0-.51-.128-1.065-.128-.51,0-.51.044-1.021.044-.554,0-.554-.044-1.065-.044s-.51.044-1.023.044a1.106,1.106,0,0,1-.766-.256,1.145,1.145,0,0,1-.34-.766c0-.51.086-.51.086-1.021s-.042-.512-.042-1.023c0-.468-.086-.468-.086-.979s.086-.512.086-1.021-.044-.51-.044-1.023v-.977c0-.512-.042-.512-.042-1.025s.17-.51.17-.977c0-.512-.128-.512-.128-1.023s.128-.51.128-1.023v-.979c0-.51-.17-.51-.17-1.023s.042-.51.042-1.021c0-.468-.042-.468-.042-.981s.128-.51.128-1.021-.086-.512-.086-1.021v-2c0-.51.086-.51.086-.981,0-.51.042-.51.042-1.021s-.042-.51-.042-1.021-.128-.51-.128-.981c0-.51.17-.51.17-1.021v-1.023c0-.466-.042-.466-.042-.977s.042-.512.042-1.025-.042-.508-.042-1.021c0-.468-.086-.468-.086-.979s-.042-.51-.042-1.023c0-.3.256-.51.426-.68a.95.95,0,0,1,.722-.382" transform="translate(41.831 116.673)" fill="#fff"/>
    <path id="Path_1360" data-name="Path 1360" d="M59.56,116.57c.468,0,.468-.042.979-.042h1.023c.51,0,.51.168,1.023.168.466,0,.466-.126.979-.126h1.023c.51,0,.51.042,1.021.042.468,0,.468.084.979.084s.512-.084,1.023-.084.508-.042,1.021-.042.51.042.981.042c.508,0,.508.044,1.019.044s.512-.086,1.023-.086.512.086.979.086H73.65c.51,0,.51-.086,1.023-.086s.51-.042.979-.042c.51,0,.51.128,1.021.128s.512-.044,1.023-.044.51-.042.979-.042a1.173,1.173,0,0,1,1.107,1.063v2c0,.47-.084.47-.084.981,0,.466.084.466.084.979s-.128.512-.128.979a1.09,1.09,0,0,1-.17.766,1.209,1.209,0,0,1-.809.382c-.468,0-.468-.084-.979-.084-.468,0-.468.042-.981.042-.466,0-.466-.128-.979-.128h-.979c-.468,0-.468.044-.981.044H72.8c-.466,0-.466.126-.979.126h-.979c-.468,0-.468-.042-.981-.042-.466,0-.466-.128-.979-.128-.466,0-.466.128-.979.128a1.168,1.168,0,0,0-.766.212,1.315,1.315,0,0,0-.254.809c0,.512.042.512.042,1.021,0,.556.042.556.042,1.065,0,.554-.126.554-.126,1.067v1.063a1.01,1.01,0,0,0,.382.682.943.943,0,0,0,.68.382c.512,0,.512-.042,1.023-.042.552,0,.552.084,1.065.084s.51-.042,1.023-.042.51.084,1.019.084.512-.126,1.023-.126.51.042,1.023.042.51.042,1.021.042c.554,0,.554-.084,1.065-.084h1.023a1.053,1.053,0,0,1,.764.342,1.157,1.157,0,0,1,.34.764c0,.468-.084.468-.084.979V133c0,.508-.086.508-.086.977v.979c0,.51.128.51.128,1.023a1.116,1.116,0,0,1-.3.724,1.064,1.064,0,0,1-.764.338c-.512,0-.512-.042-1.023-.042H75.1c-.51,0-.51.042-1.021.042H73.054c-.51,0-.51-.084-1.023-.084s-.508.042-1.019.042H69.99c-.512,0-.512-.042-1.065-.042-.51,0-.51.084-1.023.084a.93.93,0,0,0-.722.3,1,1,0,0,0-.256.724c0,.468-.084.468-.084.977,0,.47-.044.47-.044.981,0,.468.044.468.044.979,0,.468.042.468.042.939,0,.508-.042.508-.042.977,0,.512.042.512.042.981s.042.468.042.979c0,.468-.042.468-.042.979,0,.468.042.468.042.979a1.146,1.146,0,0,1-.34.722,1.1,1.1,0,0,1-.766.384H63.732c-.51,0-.51-.128-1.065-.128-.51,0-.51.044-1.021.044-.554,0-.554-.044-1.065-.044s-.51.044-1.023.044a1.106,1.106,0,0,1-.766-.256,1.145,1.145,0,0,1-.34-.766c0-.51.086-.51.086-1.021s-.042-.512-.042-1.023c0-.468-.086-.468-.086-.979s.086-.512.086-1.021-.044-.51-.044-1.023v-.977c0-.512-.042-.512-.042-1.025s.17-.51.17-.977c0-.512-.128-.512-.128-1.023s.128-.51.128-1.023v-.979c0-.51-.17-.51-.17-1.023s.042-.51.042-1.021c0-.468-.042-.468-.042-.981s.128-.51.128-1.021-.086-.512-.086-1.021v-2c0-.51.086-.51.086-.981,0-.51.042-.51.042-1.021s-.042-.51-.042-1.021-.128-.51-.128-.981c0-.51.17-.51.17-1.021v-1.023c0-.466-.042-.466-.042-.977s.042-.512.042-1.025-.042-.508-.042-1.021c0-.468-.086-.468-.086-.979s-.042-.51-.042-1.023c0-.3.256-.51.426-.68a.95.95,0,0,1,.722-.382" transform="translate(58.483 116.673)" fill="#fff"/>
    <path id="Path_1361" data-name="Path 1361" d="M82.493,123.615c-.51,0-.51.042-1.065.042s-.554.042-1.063.042H79.259c-.512,0-.512-.042-1.065-.042s-.554-.084-1.065-.084H76.023a.827.827,0,0,1-.851-.853c0-.51-.13-.51-.13-1.021,0-.554.17-.554.17-1.065s-.04-.51-.04-1.023v-1.061c0-.514-.086-.514-.086-1.025a1.012,1.012,0,0,1,.937-.977c.51,0,.51.042,1.021.042s.51.084,1.023.084c.466,0,.466-.042.979-.042s.51-.13,1.021-.13.512.13.979.13c.512,0,.512.042,1.023.042s.512-.126,1.023-.126c.468,0,.468-.046.979-.046s.51.13,1.023.13.51-.042,1.021-.042c.468,0,.468-.042.979-.042h2c.51,0,.51.126,1.023.126s.508-.172,1.021-.172c.468,0,.468.13.981.13s.508-.042,1.019-.042.512-.088.981-.088c.51,0,.51.172,1.021.172h4a.84.84,0,0,1,.9.851c0,.51-.044.51-.044,1.025s.044.508.044,1.061c0,.512.084.512.084,1.023V121.7c0,.51-.042.51-.042,1.021a.982.982,0,0,1-.939.979c-.508,0-.508-.126-1.063-.126s-.552.084-1.065.084H94.838c-.512,0-.512-.084-1.065-.084H92.707a1.02,1.02,0,0,0-.977.979c0,.51-.042.51-.042,1.023s.084.51.084,1.019.086.512.086,1.023-.086.512-.086,1.023.042.51.042,1.021-.126.51-.126,1.023c0,.468.084.468.084.979s.086.51.086,1.021-.128.51-.128,1.023-.042.51-.042,1.021.042.512.042,1.025.084.506.084,1.019.044.512.044,1.023-.086.51-.086,1.023.042.51.042,1.021.044.51.044,1.021-.128.51-.128,1.023-.042.51-.042,1.021.042.512.042,1.023.084.508.084,1.021-.042.512-.042,1.023-.084.51-.084,1.023a.831.831,0,0,1-.811.893c-.552,0-.552.084-1.1.084s-.556-.084-1.067-.084c-.552,0-.552.042-1.1.042s-.554-.042-1.109-.042-.552.042-1.063.042H84.324a.975.975,0,0,1-.939-.935c0-.512.044-.512.044-1.023s.042-.51.042-1.023-.042-.512-.042-1.021-.044-.51-.044-1.023v-1.021c0-.512-.04-.512-.04-1.023s.04-.51.04-1.021v-1.021c0-.512.044-.512.044-1.023s-.044-.51-.044-1.023-.04-.512-.04-1.019.04-.512.04-1.025.044-.51.044-1.021.042-.512.042-1.023-.126-.51-.126-1.021c0-.47.084-.47.084-.979s-.084-.512-.084-1.023.04-.51.04-1.021-.04-.51-.04-1.023.126-.51.126-1.023-.126-.508-.126-1.019.126-.512.126-1.023a.983.983,0,0,0-.979-.937" transform="translate(75.135 116.65)" fill="#fff"/>
    <path id="Path_1362" data-name="Path 1362" d="M113.873,116.613c.552,0,.552.042,1.063.042s.512-.042,1.023-.042c.552,0,.552-.086,1.065-.086s.51.044,1.063.044c.51,0,.51-.044,1.023-.044s.51.086,1.063.086a1,1,0,0,1,.726.3,1.1,1.1,0,0,1,.382.724c0,.512-.086.512-.086.979v1.023c0,.512.044.512.044,1.021s.042.51.042.981c0,.51-.086.51-.086,1.021v1.021c0,.47-.042.47-.042.981s-.044.51-.044,1.021.044.51.044,1.023c0,.468.086.468.086.977s.042.512.042,1.025-.128.508-.128.977c0,.512.086.512.086,1.023v2c0,.51-.044.51-.044,1.023v1.021c0,.468.086.468.086.981s-.086.508-.086,1.021-.042.51-.042,1.021c0,.468.042.468.042.981v2c0,.508-.042.508-.042,1.019v5.023a1.184,1.184,0,0,1-.254.767,1.075,1.075,0,0,1-.726.256c-.552,0-.552.084-1.063.084h-1.023c-.552,0-.552.042-1.063.042s-.512-.168-1.065-.168c-.51,0-.51.126-1.023.126h-1.063a.929.929,0,0,1-.682-.384.94.94,0,0,1-.382-.722c0-.51-.044-.51-.044-1.021v-.981c0-.508.086-.508.086-1.021s.084-.512.084-1.021-.17-.51-.17-1.023.13-.51.13-1.021v-2c0-.512-.13-.512-.13-1.023s.13-.51.13-1.021c0-.3-.214-.468-.426-.68-.17-.17-.384-.426-.682-.426h-.979c-.468,0-.468.086-.979.086-.468,0-.468-.086-.979-.086-.468,0-.468.042-.939.042-.508,0-.508-.042-.979-.042-.51,0-.51.128-.979.128-.51,0-.51-.042-.979-.042s-.468-.044-.981-.044c-.466,0-.466.044-.979.044a.947.947,0,0,0-.766.254.97.97,0,0,0-.3.766c0,.51-.044.51-.044,1.021s.128.51.128,1.023-.042.512-.042,1.021-.086.512-.086.981c0,.51.128.51.128,1.021s-.084.512-.084,1.023.084.508.084,1.021-.128.512-.128,1.021v.981c0,.51.044.51.044,1.021a1.289,1.289,0,0,1-.212.809,1.3,1.3,0,0,1-.811.256c-.51,0-.51-.084-1.063-.084-.512,0-.512.084-1.023.084H97.781c-.51,0-.51.084-1.021.084-.554,0-.554-.126-1.065-.126H94.673a1.106,1.106,0,0,1-.766-.256.991.991,0,0,1-.338-.767v-.977c0-.512-.044-.512-.044-1.025s.128-.508.128-1.021c0-.468-.128-.468-.128-.979s.086-.51.086-1.023.042-.51.042-.977c0-.512-.084-.512-.084-1.025v-1.019c0-.512.042-.512.042-.981,0-.51.042-.51.042-1.021s-.042-.512-.042-1.021c0-.47-.086-.47-.086-.981s.128-.51.128-1.021-.084-.512-.084-1.023c0-.468.126-.468.126-.979v-2c0-.512-.084-.512-.084-1.021v-1.025c0-.508.042-.508.042-.977,0-.512.042-.512.042-1.023s-.042-.51-.042-1.021c0-.47-.084-.47-.084-.981s.126-.51.126-1.021-.17-.51-.17-1.021c0-.47.044-.47.044-.981s-.044-.508-.044-1.021.086-.512.086-.979v-1.023a1.013,1.013,0,0,1,1.063-1.021c.512,0,.512.042,1.023.042s.51-.084,1.065-.084c.51,0,.51.084,1.021.084h1.065c.51,0,.51-.042,1.023-.042h1.063a.876.876,0,0,1,.724.3,1.029,1.029,0,0,1,.3.724v.979c0,.51-.044.51-.044.979,0,.512.044.512.044,1.023v.979c0,.512.126.512.126.981,0,.508-.084.508-.084.979,0,.51.084.51.084,1.021,0,.468-.042.468-.042.981s-.128.51-.128.977c0,.512.044.512.044,1.025,0,.254.212.466.382.68a1.057,1.057,0,0,0,.68.34c.512,0,.512-.086.979-.086h.981c.468,0,.468.086.979.086h.979c.47,0,.47.086.979.086.47,0,.47-.044.939-.044.51,0,.51-.042.979-.042.51,0,.51-.044.979-.044h.979a1.105,1.105,0,0,0,.766-.21,1.159,1.159,0,0,0,.342-.766c0-.512-.044-.512-.044-1.025,0-.466-.086-.466-.086-.977v-.981c0-.51.13-.51.13-1.021v-.979c0-.468-.086-.468-.086-.981s.086-.512.086-.979c0-.51-.086-.51-.086-1.023,0-.468.126-.468.126-.979,0-.466-.126-.466-.126-.979a1.13,1.13,0,0,1,.3-.766.994.994,0,0,1,.766-.254" transform="translate(93.64 116.672)" fill="#fff"/>
    <path id="Path_1363" data-name="Path 1363" d="M114.5,116.654c.51,0,.51-.084,1.023-.084.552,0,.552.042,1.065.042H117.6c.554,0,.554-.042,1.065-.042s.508.042,1.023.042c.552,0,.552-.042,1.063-.042s.512.042,1.023.042c.552,0,.552-.042,1.063-.042h2.085c.512,0,.512.126,1.063.126.514,0,.514-.042,1.023-.042h2.085c.514,0,.514-.042,1.067-.042.51,0,.51-.042,1.021-.042.552,0,.552.126,1.065.126s.51-.084,1.021-.084c.552,0,.552-.042,1.065-.042a1.017,1.017,0,0,1,.724.382,1.058,1.058,0,0,1,.34.724c0,.468.044.468.044.979s.04.51.04.979c0,.51-.212.51-.212.979,0,.51.172.51.172,1.023,0,.468-.172.468-.172.979a.766.766,0,0,1-.254.68.91.91,0,0,1-.682.424c-.512,0-.512-.04-1.065-.04-.51,0-.51.04-1.021.04s-.512-.124-1.065-.124c-.51,0-.51.124-1.021.124h-1.067c-.508,0-.508-.04-1.019-.04s-.512-.044-1.067-.044c-.508,0-.508-.084-1.023-.084s-.508.084-1.063.084c-.51,0-.51.128-1.021.128s-.51-.168-1.065-.168a1.059,1.059,0,0,0-.766.34.967.967,0,0,0-.3.766c0,.508-.046.508-.046,1.019s.046.512.046,1.023.084.51.084,1.023a.925.925,0,0,0,.3.68,1.084,1.084,0,0,0,.68.424c.512,0,.512-.084,1.023-.084.552,0,.552.084,1.063.084s.512-.126,1.025-.126.508.084,1.019.084.512.042,1.021.042.512-.042,1.023-.042.512-.042,1.023-.042.512.084,1.021.084.512-.042,1.023-.042a1.021,1.021,0,0,1,1.021,1.025c0,.594-.042.594-.042,1.149s.126.55.126,1.149v2.3a.992.992,0,0,1-.424.678.866.866,0,0,1-.68.384h-1.023c-.508,0-.508-.044-1.021-.044h-1.023c-.51,0-.51.044-1.023.044s-.508.042-1.021.042-.51-.042-1.019-.042-.512-.044-1.025-.044-.51.044-1.063.044c-.51,0-.51-.044-1.023-.044a1.059,1.059,0,0,0-.722.34,1.035,1.035,0,0,0-.3.726c0,.552.084.552.084,1.1v1.067c0,.552-.124.552-.124,1.1a1.125,1.125,0,0,0,.3.766,1.14,1.14,0,0,0,.766.34c.512,0,.512-.126,1.023-.126s.51.126,1.021.126.51.044,1.023.044c.466,0,.466-.044.979-.044H127.9c.514,0,.514-.126,1.025-.126s.512.17.977.17c.514,0,.514-.128,1.025-.128s.51.042,1.023.042.508-.042,1.019-.042c.47,0,.47-.042.981-.042h1.021a.992.992,0,0,1,.766.34.982.982,0,0,1,.254.766v2c0,.468-.04.468-.04.981v.979c0,.51.04.51.04.979a1.014,1.014,0,0,1-.3.722.946.946,0,0,1-.724.384c-.51,0-.51-.128-1.021-.128s-.51.17-1.021.17-.512-.042-1.025-.042-.508-.086-1.021-.086-.51.128-1.021.128h-1.021c-.512,0-.512-.086-1.025-.086s-.51.086-1.021.086c-.552,0-.552-.128-1.065-.128h-1.021c-.51,0-.51.042-1.021.042h-1.023c-.51,0-.51-.084-1.023-.084s-.51.042-1.021.042h-2.043c-.51,0-.51.086-1.023.086s-.51-.044-1.021-.044-.51-.042-1.021-.042-.512.086-1.023.086a.942.942,0,0,1-.722-.384.981.981,0,0,1-.426-.722c0-.512.17-.512.17-.979,0-.51-.128-.51-.128-1.023s.128-.51.128-1.021v-.981c0-.51-.084-.51-.084-1.021s.084-.512.084-.979v-2.041c0-.512-.084-.512-.084-.983,0-.51.04-.51.04-1.019s-.04-.512-.04-1.023c0-.468.084-.468.084-.979s-.084-.512-.084-1.023.084-.51.084-1.023c0-.466-.128-.466-.128-.977s-.042-.512-.042-1.025.17-.508.17-.977c0-.512-.044-.512-.044-1.023s-.084-.51-.084-1.023.044-.51.044-.979c0-.51.04-.51.04-1.023s-.126-.51-.126-1.019c0-.47.126-.47.126-.983V120.7c0-.51-.084-.51-.084-1.021s.128-.512.128-.981c0-.51-.044-.51-.044-1.021a.9.9,0,0,1,1.023-1.023" transform="translate(113.488 116.715)" fill="#fff"/>
    <path id="Path_1364" data-name="Path 1364" d="M130.744,117.719a1.012,1.012,0,0,1,.3-.722.868.868,0,0,1,.724-.3c.508,0,.508-.084.979-.084.512,0,.512.126,1.023.126s.508-.168,1.021-.168c.468,0,.468.042.977.042s.512.084,1.025.084.51-.126.977-.126h1.023c.512,0,.512.084,1.021.084.47,0,.47-.084.981-.084s.508.126,1.021.126h2.045c.336,0,.68.042,1.021.042A9,9,0,0,1,145.9,117a8.19,8.19,0,0,1,1.019.168,8.782,8.782,0,0,1,1.023.256,6.424,6.424,0,0,1,.979.3,6.446,6.446,0,0,1,1.915.808c.344.168.6.384.9.552a6.505,6.505,0,0,1,.893.512c.3.212.552.468.81.68s.592.382.851.638a6.055,6.055,0,0,1,.6.853c.21.256.554.424.766.722a6.285,6.285,0,0,1,.466.937,32.457,32.457,0,0,1,1.065,1.787,6.812,6.812,0,0,1,.342.981,9.577,9.577,0,0,1,.3.979c.086.342.212.682.3,1.023a8.354,8.354,0,0,1,.254.977,8.708,8.708,0,0,1,.086,1.067c.044.34.13.68.168,1.021,0,.34-.038.68-.038,1.023a9.932,9.932,0,0,1,0,1.065,8.083,8.083,0,0,1-.13,1.021c-.042.34,0,.722-.042,1.063s-.084.682-.13,1.025c-.086.338-.336.636-.422.977-.13.34-.216.682-.3.981a10.16,10.16,0,0,1-.34,1.021,10.018,10.018,0,0,1-.514.895,10.254,10.254,0,0,1-.55.893,5.968,5.968,0,0,1-.51.895c-.212.3-.512.512-.724.766l-.724.722c-.254.258-.508.468-.764.724-.3.214-.554.424-.853.638-.254.168-.51.468-.806.638a8.358,8.358,0,0,1-.941.382c-.34.172-.638.34-.937.512-.34.128-.594.34-.935.468a8.571,8.571,0,0,0-1.023.254c-.338.086-.638.214-.979.3a10.332,10.332,0,0,0-1.063.172c-.344.042-.684.042-1.023.084s-.684.126-1.021.17h-1.065c-.47,0-.47-.086-.981-.086s-.512.042-1.021.042-.51.13-.981.13c-.508,0-.508-.086-1.021-.086s-.51.042-1.023.042c-.466,0-.466-.042-.977-.042s-.512.042-1.025.042-.508-.086-.977-.086h-1.021c-.51,0-.51-.042-1.023-.042-.47,0-.47.042-.979.042a.949.949,0,0,1-.768-.254.925.925,0,0,1-.212-.764c0-.512-.042-.512-.042-.981,0-.51.042-.51.042-1.021s-.128-.512-.128-1.021c0-.47.086-.47.086-.981v-2.043c0-.468.042-.468.042-.979s-.128-.512-.128-1.023.086-.51.086-.979v-2.045c0-.508-.128-.508-.128-.977,0-.512.128-.512.128-1.023s.042-.51.042-1.021c0-.47-.128-.47-.128-.981v-1.021c0-.51.044-.51.044-1.021,0-.47.084-.47.084-.983v-1.019c0-.512-.128-.512-.128-.981,0-.508.044-.508.044-1.021v-1.021c0-.512-.044-.512-.044-.981,0-.51.086-.51.086-1.021v-1.023c0-.466-.042-.466-.042-.979V119.72c0-.512.042-.512.042-1.025a7.562,7.562,0,0,0,0-.977m11.153,23.2a8.355,8.355,0,0,0,1.023-.084,8.073,8.073,0,0,0,1.019-.17,8.587,8.587,0,0,0,.983-.3c.34-.128.68-.17.979-.3.294-.168.552-.466.808-.636a6.747,6.747,0,0,0,.849-.636,9.925,9.925,0,0,0,.724-.682c.212-.256.3-.64.512-.937a8.342,8.342,0,0,0,.466-.895,5.959,5.959,0,0,0,.384-.937,8.26,8.26,0,0,0,.172-1.023c.04-.3.208-.636.254-.977,0-.342.04-.682.04-1.065a7.631,7.631,0,0,0-.086-1.023,8.082,8.082,0,0,0-.126-1.021c-.082-.342-.082-.682-.168-1.025a6.538,6.538,0,0,0-.382-.933,6.325,6.325,0,0,0-.47-.939c-.17-.3-.384-.554-.6-.853a9.894,9.894,0,0,0-.724-.68,6.144,6.144,0,0,0-.806-.68,3.675,3.675,0,0,0-.85-.554,7.2,7.2,0,0,0-.979-.34c-.344-.086-.642-.254-.983-.34-.336-.042-.678.044-1.019,0a8.759,8.759,0,0,0-1.023-.212c-.466,0-.466.126-.893.126s-.426-.126-.853-.126a1.242,1.242,0,0,0-.808.3,1.083,1.083,0,0,0-.254.809c0,.508-.086.508-.086,1.021v2c0,.47.086.47.086.977s-.046.512-.046,1.025c0,.468.046.468.046.979s-.086.51-.086,1.021c0,.47.086.47.086.981s-.086.51-.086,1.021c0,.468.126.468.126.979s.044.512.044,1.021-.17.512-.17.981c0,.51.04.51.04,1.021s.086.512.086.983c0,.506-.04.506-.04,1.019a1.032,1.032,0,0,0,.294.766,1.1,1.1,0,0,0,.768.214c.426,0,.426.084.853.084a6.07,6.07,0,0,0,.893.042" transform="translate(130.778 116.715)" fill="#fff"/>
    <path id="Path_1365" data-name="Path 1365" d="M150.181,132.488c0-.34-.04-.68-.04-1.021.04-.382.17-.68.212-1.023a12.345,12.345,0,0,1,.426-2.041c.086-.34.17-.638.256-.981.124-.34.17-.68.3-.979a9.4,9.4,0,0,1,.426-.981,8.8,8.8,0,0,1,.51-.891,9.562,9.562,0,0,1,.638-.809,5.519,5.519,0,0,1,.594-.811c.216-.3.342-.638.556-.895.256-.254.466-.552.682-.766a10.23,10.23,0,0,1,.849-.6,5.684,5.684,0,0,1,.811-.68c.256-.212.51-.468.764-.68.3-.17.6-.384.9-.554s.6-.342.893-.51a8.44,8.44,0,0,1,.937-.424c.34-.13.72-.13,1.023-.256.336-.128.638-.214.979-.34.34-.084.638-.17.979-.256a9.132,9.132,0,0,1,1.023-.3,7.9,7.9,0,0,1,1.019-.042,7.981,7.981,0,0,1,1.023-.086,8.583,8.583,0,0,1,1.065,0c.34,0,.68-.168,1.021-.168.342.04.682.168,1.023.21s.682.172,1.023.214c.34.084.68-.042,1.019.042s.68.214,1.023.3c.3.084.64.168.979.3s.638.34.939.47a8.77,8.77,0,0,1,.937.422,10.113,10.113,0,0,1,.937.426c.3.17.552.426.853.6.294.214.552.426.806.638s.6.382.851.6.552.426.811.68c.212.214.426.556.638.811s.466.468.678.764c.216.254.426.554.642.811.168.3.422.552.594.851a7.231,7.231,0,0,1,.3,1.021,6.5,6.5,0,0,1,.552.895,6.415,6.415,0,0,1,.254.979,8.037,8.037,0,0,1,.34.981c.088.34.258.636.344.977.04.342.084.682.126,1.025s-.042.722,0,1.063c0,.34.082.68.082,1.021a8.034,8.034,0,0,1-.082,1.025,8.794,8.794,0,0,1-.126,1.019,8.993,8.993,0,0,1-.132,1.023c-.082.34,0,.724-.082,1.065a6.435,6.435,0,0,1-.424.935,8.732,8.732,0,0,1-.386.981,8.591,8.591,0,0,1-.338.979,9.348,9.348,0,0,1-.468.895c-.17.3-.3.636-.51.937s-.426.552-.638.809c-.214.3-.512.466-.724.766-.258.256-.382.552-.638.809s-.512.468-.767.682c-.256.254-.638.34-.895.55s-.552.426-.853.64c-.254.17-.51.468-.807.638s-.642.214-.979.382c-.3.13-.556.426-.855.554-.34.126-.678.126-1.019.256-.344.086-.638.254-.979.34a8.572,8.572,0,0,1-.983.3,9.955,9.955,0,0,0-1.019.3,8.713,8.713,0,0,1-1.023,0c-.34.04-.68.04-1.023.084-.34,0-.68.086-1.021.086a8.952,8.952,0,0,1-1.065.042,7.981,7.981,0,0,1-1.023-.086c-.338-.042-.678-.254-1.019-.3a8.327,8.327,0,0,1-1.023-.086c-.34-.086-.638-.3-.979-.384a7.407,7.407,0,0,1-1.023-.17,6.54,6.54,0,0,1-.979-.382c-.3-.128-.6-.384-.9-.51-.3-.172-.638-.256-.933-.426s-.512-.512-.811-.68a9.469,9.469,0,0,0-.935-.468c-.256-.214-.556-.426-.812-.68a6.124,6.124,0,0,1-.638-.808c-.254-.216-.594-.384-.851-.642-.214-.254-.34-.592-.554-.891a6.026,6.026,0,0,1-.678-.766,6.2,6.2,0,0,1-.468-.895,9.013,9.013,0,0,1-.51-.895,9.82,9.82,0,0,1-.512-.935c-.13-.3-.084-.682-.216-1.025s-.38-.594-.466-.935-.086-.68-.168-1.023c-.042-.34,0-.724-.042-1.065s-.216-.636-.256-1.019c0-.342.04-.682.04-1.025m25.032,0a8.457,8.457,0,0,0-.128-1.021,8.978,8.978,0,0,0-.044-1.063,7.756,7.756,0,0,0-.21-1.025c-.13-.3-.216-.68-.34-.977s-.3-.638-.468-.939c-.214-.3-.468-.552-.638-.809-.258-.254-.468-.51-.722-.766-.256-.21-.514-.466-.768-.68-.3-.212-.556-.468-.85-.636-.3-.13-.638-.3-.979-.426a7.316,7.316,0,0,0-1.023-.128,7.842,7.842,0,0,0-1.023-.17c-.34,0-.68-.17-1.021-.17-.384,0-.724.086-1.065.086a8.2,8.2,0,0,0-1.023.254c-.338.086-.638.212-.979.3a6.57,6.57,0,0,0-.937.426l-.893.512c-.256.21-.638.34-.895.552-.214.256-.466.552-.68.806a4.6,4.6,0,0,0-.552.9,7.877,7.877,0,0,0-.384.937,9.69,9.69,0,0,0-.468.935c-.084.342-.17.682-.256,1.025-.042.34-.126.68-.172,1.021,0,.34.13.722.13,1.063s-.044.682-.044,1.025c.044.382,0,.722.044,1.063.086.34.34.636.422.979a6.359,6.359,0,0,0,.3.979c.168.34.34.594.508.895a6.38,6.38,0,0,0,.514.937c.21.254.466.51.722.764a5.638,5.638,0,0,0,.808.6c.3.212.554.468.849.638a6.534,6.534,0,0,0,.941.468,7.27,7.27,0,0,0,1.019.21,8.454,8.454,0,0,0,1.023.13c.34,0,.68.128,1.065.128a8.467,8.467,0,0,0,1.021-.128,4.319,4.319,0,0,0,1.023-.17,8.7,8.7,0,0,0,.979-.3c.338-.126.724-.126,1.023-.252a9.438,9.438,0,0,1,1.7-1.279,4.114,4.114,0,0,0,.638-.809,6.151,6.151,0,0,0,.51-.895,7.108,7.108,0,0,0,.512-.937,6.161,6.161,0,0,0,.424-.937,8.613,8.613,0,0,0,.172-1.021,9.191,9.191,0,0,0,.21-1.023,9.451,9.451,0,0,0,0-1.065" transform="translate(150.327 116.544)" fill="#fff"/>
    <path id="Path_1366" data-name="Path 1366" d="M188.733,148.495c-.342,0-.682.042-1.023.042-.34-.042-.638-.126-.979-.168s-.682-.128-1.023-.17c-.34-.086-.636-.17-.979-.254s-.68-.13-.979-.216c-.34-.126-.68-.126-1.021-.254-.3-.128-.554-.382-.895-.512a7.863,7.863,0,0,1-.937-.382c-.3-.168-.552-.382-.853-.552-.254-.17-.636-.256-.937-.424-.256-.216-.466-.512-.722-.726a5.648,5.648,0,0,1-.766-.68,10.229,10.229,0,0,1-.766-.68c-.212-.214-.424-.512-.638-.766s-.51-.468-.722-.722-.3-.6-.512-.9c-.17-.3-.34-.552-.51-.851a6.469,6.469,0,0,1-.468-.935c-.128-.3-.384-.556-.51-.9a7.985,7.985,0,0,1-.214-.979c-.084-.34-.17-.682-.256-.979-.084-.34-.254-.636-.34-.977-.042-.342-.084-.684-.126-1.025s-.042-.68-.086-1.021c0-.34.086-.68.086-1.023v-.979c.042-.34-.086-.68-.042-1.021a6.524,6.524,0,0,1,.212-.981c.042-.34.126-.68.17-.977.086-.342.126-.682.212-.981.128-.34.3-.638.426-.937a7.875,7.875,0,0,1,.426-.893,6.259,6.259,0,0,1,.384-.939c.17-.3.338-.594.508-.851a5.735,5.735,0,0,1,.6-.809,5.512,5.512,0,0,1,.6-.808,5.622,5.622,0,0,1,.6-.809,9.492,9.492,0,0,1,.766-.64c.256-.212.466-.468.722-.724a5.88,5.88,0,0,1,.766-.636c.256-.212.6-.3.853-.512.3-.17.552-.426.851-.594.254-.128.594-.214.895-.382.34-.128.638-.214.937-.342a8.984,8.984,0,0,1,.935-.424,6.78,6.78,0,0,1,.981-.214,8.557,8.557,0,0,1,.935-.3,8.317,8.317,0,0,1,1.023-.17c.3-.042.638,0,.979-.042.34,0,.682-.128,1.023-.128s.68.044,1.023.044a8.033,8.033,0,0,1,1.063.168,8.328,8.328,0,0,1,1.023.042c.382.044.68.256,1.023.3.34.084.678.17,1.019.256a6.383,6.383,0,0,1,.981.3c.342.13.724.17,1.021.3.34.128.682.254.981.382.3.172.552.468.85.638.3.214.6.342.895.554.256.214.552.426.809.638.3.212.468.552.722.766a6.13,6.13,0,0,1,.726.766c.21.256.466.51.678.766a1.064,1.064,0,0,1,.214.766,1.129,1.129,0,0,1-.384.809c-.424.3-.552.17-.979.468-.468.3-.468.34-.937.638-.424.3-.424.34-.851.68a7.07,7.07,0,0,0-.895.636c-.468.3-.468.3-.935.642a1.223,1.223,0,0,1-.768.168,1.07,1.07,0,0,1-.638-.426,6.241,6.241,0,0,0-.724-.766,6.443,6.443,0,0,0-.806-.68,6.9,6.9,0,0,0-.939-.51,6.069,6.069,0,0,0-.893-.552,8.582,8.582,0,0,0-1.023-.256,9.162,9.162,0,0,0-1.063-.126c-.342,0-.682-.044-1.065-.044a6.965,6.965,0,0,0-.981.128,7.654,7.654,0,0,0-.979.17,7.317,7.317,0,0,0-.937.212c-.34.17-.552.384-.851.552a5.358,5.358,0,0,0-.767.6,5.726,5.726,0,0,0-.808.594,27.093,27.093,0,0,1-1.065,1.705c-.126.3-.256.592-.382.893a6.693,6.693,0,0,0-.214.979c-.084.3-.256.6-.34.937-.042.3,0,.638-.042.979,0,.34.042.638.042.979a8.3,8.3,0,0,0,0,1.023,6.931,6.931,0,0,0,.044.977c.084.342.084.682.17,1.025.126.3.212.638.34.935.126.342.3.64.426.939.17.3.426.51.638.809a5.049,5.049,0,0,0,.594.809,3.692,3.692,0,0,0,.724.68,5.232,5.232,0,0,0,.766.638,6.4,6.4,0,0,0,.979.34,7.82,7.82,0,0,0,.895.384,8.976,8.976,0,0,0,1.021.17,6.919,6.919,0,0,0,.981.128c.382,0,.678-.172,1.021-.172.34-.042.638-.084.981-.126.338-.084.678-.042.979-.128.34-.128.6-.34.893-.468a11.034,11.034,0,0,0,1.745-1.021c.214-.214.47-.468.682-.724a5.878,5.878,0,0,0,.594-.809,1.391,1.391,0,0,1,.6-.51,1.055,1.055,0,0,1,.764.21c.47.3.512.216.981.512s.468.34.895.638c.466.3.466.34.937.64s.468.254.937.55.51.258.979.554a1.5,1.5,0,0,1,.382.724.961.961,0,0,1-.126.767c-.17.3-.384.554-.6.85-.214.254-.468.51-.682.766-.254.254-.466.512-.722.724-.214.254-.384.594-.64.85-.254.212-.592.34-.849.554a5.929,5.929,0,0,1-.853.552c-.3.172-.51.468-.851.638a6.91,6.91,0,0,1-.979.3c-.3.124-.6.254-.939.382a9.712,9.712,0,0,1-.979.384,6.923,6.923,0,0,1-.979.254,8.359,8.359,0,0,1-1.021.086,8.927,8.927,0,0,1-1.023.21c-.34.042-.682,0-1.023.042-.34,0-.68-.042-1.063-.042" transform="translate(172.685 116.501)" fill="#fff"/>
    <path id="Path_1367" data-name="Path 1367" d="M211.662,116.57c.552,0,.552.042,1.063.042.554,0,.554-.084,1.065-.084H214.9c.51,0,.51.084,1.063.084h2.129c.554,0,.554-.084,1.109-.084a.7.7,0,0,1,.51,1.063c-.34.382-.384.34-.68.722-.3.426-.342.384-.64.809-.3.384-.3.384-.594.81-.3.382-.214.426-.554.851-.3.384-.34.34-.638.724-.3.426-.34.382-.64.766-.3.426-.168.51-.466.895-.3.426-.382.382-.682.766s-.254.426-.552.809c-.34.426-.384.34-.68.766-.3.382-.342.382-.638.766s-.34.382-.64.764-.3.426-.594.81a9.487,9.487,0,0,1-.6.809c-.3.426-.3.382-.6.809a1.091,1.091,0,0,0,.042,1.361,8.734,8.734,0,0,0,.47.895c.256.426.34.384.638.811.254.424.17.508.424.893a10.309,10.309,0,0,1,.6.851c.3.426.3.382.6.809.256.426.3.426.594.853.256.426.214.426.47.853.3.424.3.424.6.851.254.426.34.384.6.811.3.424.3.424.594.849l.51.851a9.506,9.506,0,0,1,.51.895c.3.426.214.426.512.853.254.426.34.384.636.811.256.422.3.422.556.849.3.426.17.468.466.895.256.426.426.34.682.764.3.426.17.512.424.939a9.791,9.791,0,0,1,.554.853.584.584,0,0,1-.426.935h-1.021c-.51,0-.51-.044-1.023-.044s-.51.044-1.021.044c-.468,0-.468-.044-.979-.044h-1.023c-.512,0-.512-.124-1.023-.124H213.45c-.51,0-.51.168-1.021.168a1.208,1.208,0,0,1-.979-.638,9.04,9.04,0,0,1-.512-.895c-.3-.426-.426-.34-.724-.766a9.418,9.418,0,0,0-.51-.893,10.091,10.091,0,0,0-.594-.851c-.256-.426-.214-.468-.47-.895-.3-.426-.256-.426-.552-.895-.256-.426-.34-.384-.6-.811-.3-.422-.3-.422-.6-.849s-.256-.426-.552-.85a9.921,9.921,0,0,0-.64-.809c-.254-.426-.168-.512-.424-.939a1.365,1.365,0,0,0-1.021-.47,1.308,1.308,0,0,0-1.023.342c-.3.426-.3.426-.6.851a6.623,6.623,0,0,0-.682.809,1.035,1.035,0,0,0-.3.766c0,.556.126.556.126,1.065,0,.554-.126.554-.126,1.109s-.044.552-.044,1.063c0,.554.044.554.044,1.107s.042.554.042,1.063c0,.556.042.556.042,1.109a1.318,1.318,0,0,1-.382.893,1.25,1.25,0,0,1-.851.34c-.512,0-.512-.084-1.023-.084-.468,0-.468.084-.979.084s-.51.044-.979.044c-.51,0-.51-.044-1.023-.044h-2a1.364,1.364,0,0,1-.811-.424,1.166,1.166,0,0,1-.424-.808c0-.51-.044-.51-.044-1.023v-1.019c0-.556.13-.556.13-1.067s-.13-.51-.13-1.021.044-.51.044-1.021v-1.023c0-.51.042-.51.042-1.065,0-.51-.042-.51-.042-1.021v-1.025c0-.508.042-.508.042-1.019s.044-.512.044-1.065c0-.51.04-.51.04-1.023s-.084-.508-.084-1.021-.042-.512-.042-1.023.126-.51.126-1.023c0-.55-.084-.55-.084-1.063s-.086-.512-.086-1.023.13-.508.13-1.021-.044-.51-.044-1.021.084-.512.084-1.065c0-.51-.126-.51-.126-1.023s.086-.51.086-1.021.04-.512.04-1.023-.126-.508-.126-1.065c0-.51.086-.51.086-1.021s-.044-.51-.044-1.021.044-.51.044-1.023.04-.512.04-1.021a1.162,1.162,0,0,1,.3-.853,1.128,1.128,0,0,1,.811-.3c.51,0,.51-.128,1.019-.128h.981c.512,0,.512.084,1.023.084.468,0,.468.044.979.044h2a1.059,1.059,0,0,1,.766.34,1.162,1.162,0,0,1,.424.809c0,.508.042.508.042.977,0,.512-.084.512-.084,1.023s.084.51.084,1.023v3.064c0,.512-.042.512-.042,1.023s.084.51.084,1.023a1.293,1.293,0,0,0,.256.935,1.314,1.314,0,0,0,.981.256,1.161,1.161,0,0,0,.809-.468c.34-.426.3-.426.6-.853s.382-.382.68-.766c.3-.424.3-.382.638-.809.3-.426.212-.468.51-.893.3-.384.3-.426.6-.809.3-.424.382-.34.724-.766.3-.384.254-.426.552-.81.34-.422.34-.382.638-.807.342-.426.342-.426.638-.809l.6-.853c.3-.382.212-.468.51-.853l.6-.853a.829.829,0,0,1,.554-.21" transform="translate(193.469 116.673)" fill="#fff"/>
    <path id="Path_1368" data-name="Path 1368" d="M232.639,144.273c-.512,0-.512-.044-1.065-.044-.51,0-.51.13-1.065.13-.51,0-.51-.086-1.065-.086H227.36c-.554,0-.554-.084-1.065-.084s-.51.17-1.063.17c-.512,0-.512-.044-1.065-.044H223.1a1.019,1.019,0,0,0-.937.638c-.17.424-.214.384-.384.809s-.17.426-.34.808l-.338.853a1.1,1.1,0,0,1-.937.722c-.556,0-.556-.084-1.109-.084s-.552-.084-1.107-.084-.552.168-1.1.168-.554-.084-1.109-.084h-1.107c-.552,0-.552.042-1.107.042a.465.465,0,0,1-.468-.68c.212-.47.3-.426.512-.895a8.937,8.937,0,0,0,.34-.935l.426-.939c.21-.466.3-.426.51-.893.212-.426.084-.51.3-.937a9.136,9.136,0,0,0,.468-.895c.214-.468.256-.468.47-.895.212-.466.084-.552.3-1.021s.3-.384.51-.853.172-.508.382-.935c.214-.468.172-.468.384-.939s.212-.468.426-.937.212-.466.426-.935a7.9,7.9,0,0,1,.34-.939c.212-.466.34-.382.554-.851s.17-.466.382-.937.17-.468.384-.937.3-.424.51-.893.086-.512.3-.981.3-.426.512-.893.17-.468.382-.937c.214-.426.214-.426.426-.895s.254-.426.468-.895.212-.466.426-.935a8.541,8.541,0,0,0,.338-.939c.214-.466.3-.426.512-.893.724-1.573,1.533-2.852,2.213-4.427.426-.853,1.235-3.4,2.724-2.6a1.736,1.736,0,0,1,.724,1.191c.384,1.021.809,1.745,1.277,2.766.17.3.3.64.468.937a5.7,5.7,0,0,1,.68,1.063c.17.384.256.811.384,1.193a12.389,12.389,0,0,0,.895,1.491,8.954,8.954,0,0,1,.424,1.107c.212.466.128.466.342.937.17.468.34.426.552.895.17.426.17.468.384.937a5.971,5.971,0,0,1,.3.937,8.787,8.787,0,0,1,.382.937c.214.468.342.424.554.893.212.426.086.51.3.981a8.522,8.522,0,0,0,.47.893c.21.426.126.468.338.937s.34.426.554.852c.212.468.042.552.256,1.019a8.635,8.635,0,0,1,.424.9c.212.468.342.426.554.895a8.116,8.116,0,0,1,.382.893c.214.468.17.51.384.981s.212.424.424.895l.426.935a10.949,10.949,0,0,0,.68,1.915c.214.426.34.382.554.851a6.536,6.536,0,0,1,.853,2.9.322.322,0,0,1-.086.21c-.086.172-.3.172-.47.172-.552.042-1.1,0-1.659,0-.51,0-.51.168-.979.168-.51,0-.51-.084-1.023-.084H237.7c-.508,0-.508.084-1.019.084s-.512-.042-1.023-.042a1.072,1.072,0,0,1-.979-.638,8.048,8.048,0,0,0-.426-.853c-.17-.424-.044-.466-.256-.893-.17-.382-.254-.382-.424-.808a1.016,1.016,0,0,0-.937-.638m-7.407-6.044c.466,0,.68.042,1.149.042s.468-.084.979-.084c.468,0,.468.084.937.084s.468-.042.981-.042c.338,0,1.531.21,1.489-.382a.784.784,0,0,0-.128-.342c-.17-.34-.3-.682-.426-.981-.256-.592-.468-1.191-.682-1.785a6.979,6.979,0,0,1-.382-1.321,2.409,2.409,0,0,0-.126-.554,2.2,2.2,0,0,0-.3-.724,4.224,4.224,0,0,1-.256-1.233c-.042-.3-.086-.724-.426-.851a.645.645,0,0,0-.6.34,5.258,5.258,0,0,0-.638,1.829c-.126.382-.34.722-.466,1.107A4.847,4.847,0,0,0,226,134.7a2.8,2.8,0,0,1-.172.853c-.084.168-.212.3-.3.468a4.966,4.966,0,0,0-.338,1.319c-.086.212-.554.895.042.895" transform="translate(213.267 116.466)" fill="#fff"/>
    <path id="Path_1369" data-name="Path 1369" d="M233.938,117.719a1.019,1.019,0,0,1,.3-.722.87.87,0,0,1,.724-.3c.51,0,.51-.084.979-.084.512,0,.512.126,1.023.126s.508-.168,1.021-.168c.468,0,.468.042.979.042s.51.084,1.023.084.51-.126.979-.126h1.021c.512,0,.512.084,1.023.084.468,0,.468-.084.979-.084s.51.126,1.023.126h2.043c.338,0,.68.042,1.021.042a8.791,8.791,0,0,1,1.023.258,8.222,8.222,0,0,1,1.021.168,8.991,8.991,0,0,1,1.023.256,6.5,6.5,0,0,1,.979.3,6.445,6.445,0,0,1,1.915.808c.342.168.6.384.895.552a6.268,6.268,0,0,1,.893.512c.3.212.554.468.811.68s.594.382.85.638a6.055,6.055,0,0,1,.6.853c.212.256.554.424.766.722a6.094,6.094,0,0,1,.466.937,6.21,6.21,0,0,1,.554.895,6.365,6.365,0,0,1,.512.893,6.8,6.8,0,0,1,.34.981,8.651,8.651,0,0,1,.3.979c.086.342.214.682.3,1.023a7.99,7.99,0,0,1,.256.977,9.124,9.124,0,0,1,.084,1.067c.044.34.13.68.17,1.021,0,.34-.04.68-.04,1.023a9.422,9.422,0,0,1,0,1.065,8.091,8.091,0,0,1-.13,1.021c-.042.34,0,.722-.042,1.063s-.084.682-.128,1.025c-.084.338-.338.636-.424.977-.128.34-.214.682-.3.981a9.649,9.649,0,0,1-.34,1.021,9.969,9.969,0,0,1-.512.895,10.288,10.288,0,0,1-.552.893,5.8,5.8,0,0,1-.51.895c-.212.3-.512.512-.724.766-.254.254-.468.468-.724.722s-.508.468-.764.724c-.3.214-.554.424-.853.638-.254.168-.51.468-.806.638a8.179,8.179,0,0,1-.939.382c-.34.172-.638.34-.937.512-.34.128-.6.34-.937.468a8.535,8.535,0,0,0-1.021.254c-.34.086-.638.214-.981.3a10.509,10.509,0,0,0-1.063.172c-.342.042-.682.042-1.023.084s-.682.126-1.021.17h-1.065c-.468,0-.468-.086-.979-.086s-.512.042-1.023.042-.51.13-.979.13c-.51,0-.51-.086-1.023-.086s-.51.042-1.021.042c-.468,0-.468-.042-.979-.042s-.512.042-1.023.042-.51-.086-.979-.086H236.96c-.51,0-.51-.042-1.023-.042-.468,0-.468.042-.979.042a.943.943,0,0,1-.766-.254c-.214-.172-.214-.468-.214-.764,0-.512-.04-.512-.04-.981,0-.51.04-.51.04-1.021s-.126-.512-.126-1.021c0-.47.086-.47.086-.981v-2.043c0-.468.04-.468.04-.979s-.126-.512-.126-1.023.086-.51.086-.979v-2.045c0-.508-.13-.508-.13-.977,0-.512.13-.512.13-1.023s.04-.51.04-1.021c0-.47-.126-.47-.126-.981v-1.021c0-.51.042-.51.042-1.021,0-.47.084-.47.084-.983v-1.019c0-.512-.126-.512-.126-.981,0-.508.042-.508.042-1.021v-1.021c0-.512-.042-.512-.042-.981,0-.51.086-.51.086-1.021v-1.023c0-.466-.044-.466-.044-.979V119.72c0-.512.044-.512.044-1.025a7.933,7.933,0,0,0,0-.977m11.151,23.2a8.355,8.355,0,0,0,1.023-.084,8.165,8.165,0,0,0,1.021-.17,8.318,8.318,0,0,0,.981-.3c.34-.128.68-.17.979-.3.3-.168.552-.466.808-.636a6.626,6.626,0,0,0,.851-.636c.214-.216.512-.426.722-.682s.3-.64.512-.937a8.706,8.706,0,0,0,.468-.895,5.947,5.947,0,0,0,.382-.937,8.263,8.263,0,0,0,.172-1.023c.042-.3.212-.636.254-.977,0-.342.042-.682.042-1.065a8.343,8.343,0,0,0-.084-1.023,8.08,8.08,0,0,0-.128-1.021c-.084-.342-.084-.682-.17-1.025a6.306,6.306,0,0,0-.382-.933,6.129,6.129,0,0,0-.47-.939,9.991,9.991,0,0,0-.6-.853c-.21-.254-.508-.466-.722-.68a6.163,6.163,0,0,0-.809-.68,3.632,3.632,0,0,0-.85-.554,7.2,7.2,0,0,0-.979-.34c-.34-.086-.64-.254-.981-.34-.338-.042-.68.044-1.021,0a8.759,8.759,0,0,0-1.023-.212c-.466,0-.466.126-.893.126s-.426-.126-.853-.126a1.242,1.242,0,0,0-.808.3,1.092,1.092,0,0,0-.254.809c0,.508-.086.508-.086,1.021v2c0,.47.086.47.086.977s-.044.512-.044,1.025c0,.468.044.468.044.979s-.086.51-.086,1.021c0,.47.086.47.086.981s-.086.51-.086,1.021c0,.468.128.468.128.979s.042.512.042,1.021-.17.512-.17.981c0,.51.042.51.042,1.021s.086.512.086.983c0,.506-.042.506-.042,1.019a1.026,1.026,0,0,0,.3.766,1.087,1.087,0,0,0,.766.214c.426,0,.426.084.853.084a6.07,6.07,0,0,0,.893.042" transform="translate(234.098 116.715)" fill="#fff"/>
    <path id="Path_1370" data-name="Path 1370" d="M266.406,148.07a1.418,1.418,0,0,1-1.021-.128,2.422,2.422,0,0,1-1.065-1.107c-.084-.17-.17-.34-.256-.512a5.623,5.623,0,0,0-.34-.55,1.769,1.769,0,0,1-.256-.47c-.51-1.361-1.063-2.724-1.7-4.045-.426-.895-.81-1.787-1.193-2.726-.212-.424-.382-.893-.6-1.317-.126-.3-.17-.6-.3-.853-.17-.468-.3-.424-.51-.895a8.081,8.081,0,0,1-.384-.937c-.212-.466-.172-.466-.384-.935a8.437,8.437,0,0,0-.382-.937c-.17-.47-.084-.51-.254-.979-.214-.47-.17-.512-.384-.981a8.211,8.211,0,0,0-.426-.893c-.17-.468-.3-.426-.468-.895-.212-.47-.128-.512-.34-.981-.17-.466-.212-.466-.382-.935-.214-.47-.128-.47-.34-.939s-.13-.508-.34-.977-.3-.426-.512-.9a8.216,8.216,0,0,0-.34-.935,8,8,0,0,0-.34-.937c-.17-.47-.256-.47-.426-.937-.212-.468-.17-.468-.382-.937l-.34-.937c-.214-.468-.172-.51-.384-.979-.17-.468-.254-.426-.424-.895-.13-.3-.426-.382-.256-.6a1.024,1.024,0,0,1,.809-.424c.51,0,.51.042,1.023.042.466,0,.466.042.979.042h.979c.468,0,.468-.042.979-.042s.51.042.979.042c.512,0,.512-.126.979-.126h.979a.855.855,0,0,1,.766.636c.214.468.342.426.554.853a8.365,8.365,0,0,1,.384.937,8.544,8.544,0,0,1,.3.979c.214.468.17.468.384.937s.212.426.426.893l.424.939a8.166,8.166,0,0,1,.468.853l.426.933a5.606,5.606,0,0,0,.426.9,11.516,11.516,0,0,1,.382,1.149,8.842,8.842,0,0,1,.6,1.445c.042.172.042.342.086.512a3.44,3.44,0,0,1,.424.638,4.169,4.169,0,0,1,.212,1.235c.086.3.342.895.682.895.552.086.6-.853.638-1.235a6.09,6.09,0,0,1,1.021-2.552,21.078,21.078,0,0,0,.895-2c.214-.47.128-.512.34-.983a5.559,5.559,0,0,0,.426-.893,8.424,8.424,0,0,0,.426-.893,8.57,8.57,0,0,0,.34-.939c.212-.466.254-.424.466-.893a8.382,8.382,0,0,1,.384-.937c.212-.468.042-.512.256-.979.17-.468.34-.384.552-.85.17-.47.044-.512.256-.981a.947.947,0,0,1,.893-.552c.512,0,.512-.042,1.067-.042s.552.084,1.063.084c.554,0,.554-.042,1.109-.042.508,0,.508-.042,1.063-.042s.552.126,1.065.126c.552,0,.552-.042,1.107-.042a.932.932,0,0,1,.809.382c.126.256.3.51.17.808-.212.468-.084.384-.3.851s-.172.47-.384.939-.342.426-.554.893a8.015,8.015,0,0,0-.34.937c-.214.468-.256.468-.468.895-.17.47-.212.47-.382.937a8.672,8.672,0,0,0-.3.979c-.214.47-.256.426-.47.9a9.3,9.3,0,0,0-.34.977c-.212.468-.254.426-.466.895s-.256.426-.468.893-.086.51-.3.981-.212.468-.426.937c-.17.468-.3.424-.512.893s-.04.512-.254.981c-.17.466-.34.426-.51.853-.214.466-.17.508-.384.977a9.054,9.054,0,0,0-.426.895c-.21.468-.21.468-.424.937s-.086.51-.3.979-.212.47-.426.937c-.212.426-.3.384-.51.851-.17.468-.042.554-.256,1.025-.212.424-.254.424-.466.891s-.13.468-.342.939a9.221,9.221,0,0,1-.424.937,7.9,7.9,0,0,1-.853,1.235,6.785,6.785,0,0,0-.766,1.573,6.283,6.283,0,0,1-.424,1.151c-.128.3-.34.552-.468.806a7.629,7.629,0,0,1-.6.983,1.351,1.351,0,0,1-.724.382" transform="translate(251.94 116.715)" fill="#fff"/>
    <path id="Path_1371" data-name="Path 1371" d="M273.261,116.654c.512,0,.512-.084,1.023-.084.552,0,.552.042,1.065.042h1.021c.554,0,.554-.042,1.065-.042s.51.042,1.023.042c.552,0,.552-.042,1.063-.042s.512.042,1.023.042c.552,0,.552-.042,1.063-.042h2.087c.51,0,.51.126,1.063.126.512,0,.512-.042,1.023-.042h2.085c.512,0,.512-.042,1.065-.042.51,0,.51-.042,1.023-.042.552,0,.552.126,1.063.126s.51-.084,1.023-.084c.552,0,.552-.042,1.063-.042a1.013,1.013,0,0,1,.724.382,1.058,1.058,0,0,1,.34.724c0,.468.044.468.044.979s.04.51.04.979c0,.51-.21.51-.21.979,0,.51.17.51.17,1.023,0,.468-.17.468-.17.979a.767.767,0,0,1-.256.68.906.906,0,0,1-.682.424c-.51,0-.51-.04-1.063-.04-.512,0-.512.04-1.023.04s-.51-.124-1.063-.124c-.512,0-.512.124-1.023.124h-1.065c-.51,0-.51-.04-1.021-.04s-.512-.044-1.065-.044c-.51,0-.51-.084-1.023-.084s-.51.084-1.063.084c-.512,0-.512.128-1.023.128s-.51-.168-1.065-.168a1.059,1.059,0,0,0-.767.34.967.967,0,0,0-.3.766c0,.508-.044.508-.044,1.019s.044.512.044,1.023.084.51.084,1.023a.925.925,0,0,0,.3.68,1.089,1.089,0,0,0,.68.424c.512,0,.512-.084,1.023-.084.552,0,.552.084,1.065.084s.51-.126,1.023-.126.51.084,1.019.084.512.042,1.023.042.51-.042,1.023-.042.51-.042,1.021-.042.512.084,1.021.084.512-.042,1.023-.042a1.021,1.021,0,0,1,1.023,1.025c0,.594-.044.594-.044,1.149s.128.55.128,1.149v2.3a1,1,0,0,1-.426.678.863.863,0,0,1-.68.384h-1.023c-.508,0-.508-.044-1.021-.044h-1.021c-.512,0-.512.044-1.023.044s-.51.042-1.023.042-.508-.042-1.019-.042-.512-.044-1.023-.044-.512.044-1.065.044c-.51,0-.51-.044-1.023-.044a1.059,1.059,0,0,0-.722.34,1.034,1.034,0,0,0-.3.726c0,.552.084.552.084,1.1v1.067c0,.552-.126.552-.126,1.1a1.086,1.086,0,0,0,1.063,1.107c.512,0,.512-.126,1.023-.126s.512.126,1.021.126.51.044,1.023.044c.468,0,.468-.044.979-.044h1.021c.512,0,.512-.126,1.023-.126s.512.17.979.17c.512,0,.512-.128,1.023-.128s.51.042,1.023.042.51-.042,1.019-.042c.47,0,.47-.042.981-.042h1.021a1.021,1.021,0,0,1,1.023,1.107v2c0,.468-.042.468-.042.981v.979c0,.51.042.51.042.979a1.016,1.016,0,0,1-.3.722.943.943,0,0,1-.724.384c-.508,0-.508-.128-1.021-.128s-.51.17-1.021.17-.512-.042-1.023-.042-.51-.086-1.023-.086-.508.128-1.021.128h-1.021c-.512,0-.512-.086-1.023-.086s-.512.086-1.023.086c-.552,0-.552-.128-1.063-.128h-1.023c-.51,0-.51.042-1.021.042h-1.023c-.51,0-.51-.084-1.021-.084s-.512.042-1.023.042h-2.043c-.51,0-.51.086-1.021.086s-.512-.044-1.023-.044-.51-.042-1.021-.042-.51.086-1.023.086a.945.945,0,0,1-.722-.384.987.987,0,0,1-.426-.722c0-.512.17-.512.17-.979,0-.51-.128-.51-.128-1.023s.128-.51.128-1.021v-.981c0-.51-.084-.51-.084-1.021s.084-.512.084-.979v-2.041c0-.512-.084-.512-.084-.983,0-.51.042-.51.042-1.019s-.042-.512-.042-1.023c0-.468.084-.468.084-.979s-.084-.512-.084-1.023.084-.51.084-1.023c0-.466-.128-.466-.128-.977s-.042-.512-.042-1.025.17-.508.17-.977c0-.512-.042-.512-.042-1.023s-.086-.51-.086-1.023.044-.51.044-.979c0-.51.042-.51.042-1.023s-.128-.51-.128-1.019c0-.47.128-.47.128-.983V120.7c0-.51-.086-.51-.086-1.021s.128-.512.128-.981c0-.51-.042-.51-.042-1.021a.9.9,0,0,1,1.021-1.023" transform="translate(272.45 116.715)" fill="#fff"/>
    <path id="Path_1372" data-name="Path 1372" d="M297.428,133.406c0,.508-.17.508-.17,1.063,0,.51.044.51.044,1.021s.04.512.04,1.025c0,.55.086.55.086,1.063s-.126.512-.126,1.021v2.087c0,.552.126.552.126,1.063v1.023c0,.552-.17.552-.17,1.065s.128.51.128,1.021c0,.554-.128.554-.128,1.065s.17.51.17,1.023a1.1,1.1,0,0,1-1.023,1.019c-.466,0-.466-.084-.979-.084s-.51.084-1.023.084-.51-.168-.979-.168c-.51,0-.51.126-1.021.126s-.512.042-.979.042c-.512,0-.512-.168-1.023-.168a.913.913,0,0,1-.979-.851c0-.512.126-.512.126-1.023s-.126-.51-.126-1.023.086-.51.086-1.021-.044-.51-.044-1.023-.086-.508-.086-1.021.17-.512.17-1.021-.17-.512-.17-1.025.086-.508.086-1.019c0-.556.084-.556.084-1.067s-.126-.508-.126-1.021v-1.021c0-.512-.044-.512-.044-1.023s.214-.51.214-1.023V132.6c0-.512-.214-.512-.214-1.025s.17-.508.17-1.021-.126-.512-.126-1.023.086-.508.086-1.021-.044-.51-.044-1.021c0-.554.084-.554.084-1.065s-.126-.51-.126-1.023-.044-.51-.044-1.021.044-.512.044-1.023.126-.508.126-1.021-.084-.51-.084-1.021v-1.025c0-.977-.086-1.957-.042-2.978a.764.764,0,0,1,.256-.68,1.062,1.062,0,0,1,.34-.042,1.775,1.775,0,0,1,.68.126,2.51,2.51,0,0,0,.342.342c.466.382,1.019.55,1.489.891.382.342.34.384.722.682a9.846,9.846,0,0,0,.767.682c.382.34.382.382.766.68.382.34.426.256.851.6.384.3.3.382.682.724.384.3.468.21.85.55a9.944,9.944,0,0,0,.767.642c.426.34.382.34.808.68a9.41,9.41,0,0,1,.766.636c.426.3.382.342.766.64a5.879,5.879,0,0,0,.809.638c.384.338.34.382.722.722s.47.212.852.554.3.424.724.724c.382.338.382.3.764.636s.384.34.766.638c.426.342.512.214.895.554.384.3.3.426.724.722a9.985,9.985,0,0,0,.808.6c.382.34.34.382.722.722.384.3.47.212.853.552a.456.456,0,0,0,.767-.382c0-.51.126-.51.126-1.023,0-.552-.084-.552-.084-1.063s.042-.512.042-1.065c0-.51.042-.51.042-1.023,0-.552.044-.552.044-1.063s-.086-.512-.086-1.063c0-.512-.084-.512-.084-1.025v-1.063c0-.512.126-.512.126-1.065,0-.51-.126-.51-.126-1.023,0-.552.17-.552.17-1.065s-.17-.508-.17-1.019c0-.556.17-.556.17-1.067a.911.911,0,0,1,.808-.979c.51,0,.51.13,1.023.13s.51-.13,1.021-.13h2c.51,0,.51-.042.979-.042.51,0,.51.086,1.023.086a.874.874,0,0,1,.851.935c0,.51.042.51.042,1.023s.086.51.086,1.021-.17.512-.17,1.023.17.51.17,1.021v1.021c0,.556.042.556.042,1.065s-.042.51-.042,1.023-.128.512-.128,1.021v1.025c0,.51.17.51.17,1.019s-.042.512-.042,1.023.042.51.042,1.023-.17.51-.17,1.063v1.023c0,.51.086.51.086,1.023s-.044.51-.044,1.019-.042.512-.042,1.023.042.51.042,1.023.086.512.086,1.021v1.023c0,.51.042.51.042,1.065,0,.51-.17.51-.17,1.019v1.025c0,.51.128.51.128,1.021V143.2c0,.508-.042.508-.042,1.021v1.021c0,.682-.044,1.321-.044,1.959a.645.645,0,0,1-.084.426.614.614,0,0,1-.638.212,4.984,4.984,0,0,1-2.215-1.363c-.382-.34-.426-.3-.809-.6-.382-.338-.382-.338-.766-.68a5.7,5.7,0,0,1-.807-.594c-.426-.3-.384-.34-.809-.64-.384-.34-.342-.382-.726-.722-.382-.3-.34-.342-.766-.682-.382-.3-.424-.21-.848-.552-.384-.3-.342-.34-.767-.638-.384-.34-.384-.34-.766-.638-.382-.34-.468-.256-.853-.6-.382-.3-.3-.424-.682-.722-.382-.34-.466-.21-.893-.55-.382-.3-.3-.426-.68-.766-.382-.3-.382-.3-.767-.64-.384-.3-.468-.254-.851-.552-.384-.342-.3-.426-.724-.724-.382-.34-.468-.214-.85-.554l-.767-.678c-.384-.3-.3-.384-.682-.726-.424-.34-.424-.3-.807-.638s-.47-.254-.853-.55a.455.455,0,0,0-.766.382" transform="translate(289.74 116.651)" fill="#fff"/>
    <path id="Path_1373" data-name="Path 1373" d="M316.952,123.615c-.51,0-.51.042-1.065.042s-.554.042-1.063.042h-1.107c-.512,0-.512-.042-1.065-.042s-.554-.084-1.065-.084h-1.107a.827.827,0,0,1-.851-.853c0-.51-.13-.51-.13-1.021,0-.554.17-.554.17-1.065s-.04-.51-.04-1.023v-1.061c0-.514-.086-.514-.086-1.025a1.012,1.012,0,0,1,.937-.977c.51,0,.51.042,1.021.042s.51.084,1.023.084c.466,0,.466-.042.979-.042s.51-.13,1.021-.13.512.13.979.13c.512,0,.512.042,1.023.042s.512-.126,1.023-.126c.468,0,.468-.046.979-.046s.51.13,1.023.13.51-.042,1.021-.042c.468,0,.468-.042.979-.042h2c.51,0,.51.126,1.023.126s.508-.172,1.021-.172c.468,0,.468.13.981.13s.508-.042,1.019-.042.512-.088.981-.088c.51,0,.51.172,1.021.172h4a.84.84,0,0,1,.9.851c0,.51-.044.51-.044,1.025s.044.508.044,1.061c0,.512.084.512.084,1.023V121.7c0,.51-.042.51-.042,1.021a.982.982,0,0,1-.939.979c-.508,0-.508-.126-1.063-.126s-.552.084-1.065.084H329.3c-.512,0-.512-.084-1.065-.084h-1.067a1.02,1.02,0,0,0-.977.979c0,.51-.042.51-.042,1.023s.084.51.084,1.019.086.512.086,1.023-.086.512-.086,1.023.042.51.042,1.021-.126.51-.126,1.023c0,.468.084.468.084.979s.086.51.086,1.021-.128.51-.128,1.023-.042.51-.042,1.021.042.512.042,1.025.084.506.084,1.019.044.512.044,1.023-.086.51-.086,1.023.042.51.042,1.021.044.51.044,1.021-.128.51-.128,1.023-.042.51-.042,1.021.042.512.042,1.023.084.508.084,1.021-.042.512-.042,1.023-.084.51-.084,1.023a.831.831,0,0,1-.811.893c-.552,0-.552.084-1.1.084s-.556-.084-1.067-.084c-.552,0-.552.042-1.1.042s-.554-.042-1.109-.042-.552.042-1.063.042h-1.107a.975.975,0,0,1-.939-.935c0-.512.044-.512.044-1.023s.042-.51.042-1.023-.042-.512-.042-1.021-.044-.51-.044-1.023v-1.021c0-.512-.04-.512-.04-1.023s.04-.51.04-1.021v-1.021c0-.512.044-.512.044-1.023s-.044-.51-.044-1.023-.04-.512-.04-1.019.04-.512.04-1.025.044-.51.044-1.021.042-.512.042-1.023-.126-.51-.126-1.021c0-.47.084-.47.084-.979s-.084-.512-.084-1.023.04-.51.04-1.021-.04-.51-.04-1.023.126-.51.126-1.023-.126-.508-.126-1.019.126-.512.126-1.023a.983.983,0,0,0-.979-.937" transform="translate(309.885 116.65)" fill="#fff"/>
    <path id="Path_1374" data-name="Path 1374" d="M328.069,135.852c0-.51-.042-.51-.042-1.021s.126-.512.126-.981c0-.508-.042-.508-.042-1.021s-.042-.512-.042-1.023.042-.508.042-1.021-.084-.51-.084-1.021-.044-.512-.044-1.023.17-.51.17-1.023c0-.468-.042-.468-.042-.979s.042-.51.042-1.023V124.7c0-.512-.126-.512-.126-1.023s.084-.51.084-1.023-.084-.51-.084-1.021.084-.51.084-.981c0-.51.042-.51.042-1.021s-.084-.51-.084-1.021-.042-.51-.042-1.023a.881.881,0,0,1,.979-.809c.552,0,.552-.212,1.065-.212.552,0,.552.168,1.107.168s.552-.04,1.1-.04.554.04,1.067.04h1.1c.554,0,.554-.124,1.107-.124a.98.98,0,0,1,.937.977c0,.512-.128.512-.128,1.023s.17.51.17.979c0,.512-.084.512-.084,1.021s.084.512.084,1.023-.042.51-.042,1.021c0,.47-.084.47-.084.979s.126.51.126,1.023-.17.512-.17,1.021.044.512.044,1.025c0,.466-.044.466-.044.977s.17.512.17,1.023-.084.51-.084,1.021-.086.512-.086.981c0,.51.128.51.128,1.021s-.084.51-.084,1.021.084.512.084,1.023c0,.466.042.466.042.979s-.126.512-.126,1.023a7.583,7.583,0,0,0,.17.979,7.161,7.161,0,0,0,.126.937,6.675,6.675,0,0,0,.172.979,5.222,5.222,0,0,0,.594.766,5.108,5.108,0,0,0,.6.722c.256.214.426.512.724.64a4.035,4.035,0,0,0,.937.3,6.1,6.1,0,0,0,.937.254,7.4,7.4,0,0,0,1.957-.042,6.032,6.032,0,0,0,.937-.254c.3-.13.64-.172.895-.3a7.879,7.879,0,0,0,.851-.468,3.73,3.73,0,0,0,.554-.853,5.119,5.119,0,0,0,.51-.809c.084-.3.3-.594.384-.893.042-.3.042-.64.084-.981a7.59,7.59,0,0,0,0-.979c0-.51-.042-.51-.042-1.023v-.979c0-.51.042-.51.042-1.023s.042-.51.042-1.021-.126-.51-.126-1.021c0-.468.126-.468.126-.981s-.084-.51-.084-1.021-.042-.51-.042-1.023.042-.51.042-.977c0-.512-.042-.512-.042-1.025v-1.021c0-.512.17-.512.17-1.023v-2c0-.51-.128-.51-.128-1.023s.042-.508.042-1.021c0-.468.042-.468.042-.979v-1.023a.841.841,0,0,1,.9-.853c.552,0,.552-.124,1.063-.124.552,0,.552.084,1.107.084s.554-.084,1.107-.084c.51,0,.51.084,1.065.084s.552-.084,1.107-.084.554.168,1.107.168a.868.868,0,0,1,.937.809c0,.512-.044.512-.044,1.023s.044.51.044,1.021v1.021c0,.47-.128.47-.128.981s.17.51.17,1.021-.17.512-.17,1.023.128.51.128,1.023-.128.51-.128,1.019.084.512.084,1.023-.042.51-.042.979c0,.512.128.512.128,1.023s-.086.51-.086,1.023v1.021c0,.512.086.512.086,1.021s-.042.51-.042,1.023-.044.512-.044,1.021c0,.468-.084.468-.084.981s.042.51.042,1.021c0,.34-.042.682-.042,1.023-.042.342.084.682.042.979-.042.34-.254.638-.3.979a7.732,7.732,0,0,1-.212.981,8.162,8.162,0,0,1-.3.937,8.813,8.813,0,0,1-.256.979,9.6,9.6,0,0,1-.47.895c-.17.3-.382.552-.552.809-.214.254-.468.468-.68.722s-.426.51-.638.766c-.256.212-.426.51-.682.724a6.239,6.239,0,0,1-.893.51c-.256.168-.6.3-.895.468a5.44,5.44,0,0,1-.809.552,6.039,6.039,0,0,1-.937.384,8.024,8.024,0,0,1-.979.172c-.342.084-.638.21-.979.3a6.29,6.29,0,0,1-.981.21,6.894,6.894,0,0,1-.979.13,7.692,7.692,0,0,1-.979.086c-.34,0-.682-.13-1.023-.13s-.68.172-.979.172c-.34-.042-.68-.172-.979-.214-.34-.044-.68-.044-1.023-.084a7.4,7.4,0,0,1-.979-.084c-.34-.086-.638-.3-.937-.382a6.379,6.379,0,0,1-.937-.342,6.158,6.158,0,0,1-.937-.34,9.6,9.6,0,0,1-.895-.468,4.531,4.531,0,0,1-.851-.512,8.33,8.33,0,0,1-.853-.51c-.254-.212-.466-.468-.678-.68a5.711,5.711,0,0,1-.727-.68,3.878,3.878,0,0,1-.68-.766,3.465,3.465,0,0,1-.508-.853,5.5,5.5,0,0,1-.426-.895,8.878,8.878,0,0,1-.47-.893c-.084-.3-.042-.682-.126-.979a8.514,8.514,0,0,1-.342-.981c-.042-.3-.084-.638-.128-.979s-.084-.636-.126-.979Z" transform="translate(328.39 116.715)" fill="#fff"/>
    <path id="Path_1375" data-name="Path 1375" d="M355.086,147.876c-.512,0-.512-.04-1.067-.04s-.552.126-1.063.126c-.552,0-.552.044-1.109.044-.508,0-.508-.086-1.063-.086H349.72c-.552,0-.552.086-1.107.086a1.022,1.022,0,0,1-.935-1.021c0-.512.084-.512.084-1.025s-.128-.51-.128-1.021.086-.512.086-1.021c0-.468-.128-.468-.128-.981s.128-.512.128-1.021V140.9c0-.51.042-.51.042-1.021s-.042-.512-.042-1.023c0-.466-.086-.466-.086-.979v-1.021c0-.512-.042-.512-.042-1.023V134.81c0-.512.128-.512.128-1.023v-.979c0-.51-.086-.51-.086-1.021s-.042-.512-.042-1.025.17-.508.17-1.019-.128-.512-.128-1.023c0-.468.044-.468.044-.979s.084-.51.084-1.021-.042-.512-.042-1.025.042-.508.042-1.021-.17-.512-.17-.979c0-.51.086-.51.086-1.023s-.086-.51-.086-1.021.17-.51.17-1.023v-1.021c0-.512-.17-.512-.17-1.023,0-.466.086-.466.086-.979a.881.881,0,0,1,.935-.893c.554,0,.554-.17,1.067-.17.552,0,.552.042,1.063.042h1.065c.552,0,.552-.042,1.063-.042.554,0,.554.126,1.065.126.554,0,.554.044,1.065.044.552,0,.552-.128,1.065-.128h1.063c.554,0,.554.084,1.065.084.554,0,.554.044,1.065.044.552,0,.552-.17,1.065-.17a9.372,9.372,0,0,1,1.023.21c.382,0,.723.044,1.063.044a7.944,7.944,0,0,1,1.023.042,5.34,5.34,0,0,1,.979.384c.382.086.722.128,1.023.212.34.128.678.256.979.382a6.821,6.821,0,0,1,.937.468c.3.172.6.342.893.554a8.576,8.576,0,0,1,.808.638c.256.214.554.424.767.64.256.254.468.55.682.807.21.3.382.554.552.853.214.3.426.6.6.893.128.3.3.64.424.939a8.644,8.644,0,0,1,.256,1.021c.086.34.212.68.3,1.023a8.282,8.282,0,0,1,.042,1.021,8.993,8.993,0,0,1,0,1.065c0,.338.086.678.086,1.021a7.452,7.452,0,0,1-.34,1.023,9.06,9.06,0,0,1-.086,1.063,6.8,6.8,0,0,1-.34.981,6.177,6.177,0,0,1-.468.935,10.044,10.044,0,0,1-.51.939c-.214.254-.51.466-.766.722-.214.254-.382.554-.638.811-.256.21-.6.382-.895.594a8.276,8.276,0,0,1-.895.51,1.081,1.081,0,0,0-.34,1.363c.256.466.256.426.51.893a8.867,8.867,0,0,1,.554.81c.254.426.17.468.424.895.256.468.384.382.64.809s.212.426.468.893c.254.424.17.468.426.895a8.417,8.417,0,0,0,.552.809c.254.468.214.468.468.895l.51.851c.214.47.3.384.554.853.256.424.256.424.51.85a.489.489,0,0,1-.468.722c-.554,0-.554.086-1.107.086h-2.171c-.554,0-.554-.042-1.107-.042s-.552-.084-1.063-.084c-.556,0-.556.126-1.109.126s-.552-.086-1.107-.086a.942.942,0,0,1-.853-.424c-.252-.426-.3-.426-.552-.851-.212-.426-.084-.512-.34-.981-.256-.426-.256-.426-.51-.853-.256-.466-.342-.382-.6-.849-.254-.424-.212-.424-.468-.895-.256-.426-.256-.426-.51-.895a8.756,8.756,0,0,0-.512-.853c-.254-.424-.212-.424-.466-.893-.256-.424-.17-.468-.426-.937-.256-.426-.3-.426-.552-.853a.908.908,0,0,0-.853-.426c-.638,0-.638.044-1.319.044a.841.841,0,0,0-.9.853c0,.512-.04.512-.04.979v1.023c0,.468.04.468.04.977,0,.468-.084.468-.084.981s-.042.51-.042.979c0,.51.126.51.126.981,0,.51.044.51.044,1.021,0,.468-.17.468-.17.981a.847.847,0,0,1-.892.891m4.809-16.088a7.29,7.29,0,0,0,.979-.042,6.294,6.294,0,0,0,.937-.34,3.183,3.183,0,0,0,.853-.384,5.241,5.241,0,0,0,.766-.554,5.616,5.616,0,0,0,.51-.853,5.879,5.879,0,0,0,.168-.935,3.305,3.305,0,0,0,.17-.937,7.275,7.275,0,0,0,0-.981,3.378,3.378,0,0,0-.422-.893,2.768,2.768,0,0,0-.426-.853,2.532,2.532,0,0,0-.766-.552,5.652,5.652,0,0,0-.853-.51,5.84,5.84,0,0,0-.937-.214,7.048,7.048,0,0,0-.979-.084h-.979c-.47,0-.47.084-.937.084H357a.911.911,0,0,0-.9.937V125.7c0,.512-.126.512-.126,1.025s.042.51.042,1.021.044.51.044,1.021.04.51.04,1.023-.126.51-.126.977A.992.992,0,0,0,357,131.7c.468,0,.468.044.979.044.466,0,.466.084.937.084.51,0,.51-.042.979-.042" transform="translate(348.024 116.694)" fill="#fff"/>
    <path id="Path_1376" data-name="Path 1376" d="M367.479,116.654c.512,0,.512-.084,1.023-.084.552,0,.552.042,1.065.042h1.021c.554,0,.554-.042,1.065-.042s.51.042,1.023.042c.552,0,.552-.042,1.063-.042s.512.042,1.023.042c.552,0,.552-.042,1.063-.042h2.087c.51,0,.51.126,1.063.126.512,0,.512-.042,1.023-.042h2.085c.512,0,.512-.042,1.065-.042.51,0,.51-.042,1.023-.042.552,0,.552.126,1.063.126s.512-.084,1.023-.084c.552,0,.552-.042,1.063-.042a1.013,1.013,0,0,1,.725.382,1.058,1.058,0,0,1,.34.724c0,.468.044.468.044.979s.042.51.042.979c0,.51-.212.51-.212.979,0,.51.17.51.17,1.023,0,.468-.17.468-.17.979a.768.768,0,0,1-.256.68.906.906,0,0,1-.682.424c-.51,0-.51-.04-1.063-.04-.51,0-.51.04-1.023.04s-.51-.124-1.063-.124c-.512,0-.512.124-1.023.124H382.08c-.51,0-.51-.04-1.021-.04s-.512-.044-1.065-.044c-.51,0-.51-.084-1.023-.084s-.51.084-1.063.084c-.512,0-.512.128-1.023.128s-.51-.168-1.065-.168a1.059,1.059,0,0,0-.766.34.973.973,0,0,0-.3.766c0,.508-.044.508-.044,1.019s.044.512.044,1.023.086.51.086,1.023a.923.923,0,0,0,.3.68,1.089,1.089,0,0,0,.68.424c.512,0,.512-.084,1.023-.084.552,0,.552.084,1.065.084s.51-.126,1.021-.126.512.084,1.021.084.512.042,1.023.042.51-.042,1.023-.042.51-.042,1.023-.042.51.084,1.019.084.512-.042,1.023-.042a1.022,1.022,0,0,1,1.023,1.025c0,.594-.044.594-.044,1.149s.128.55.128,1.149v2.3a1,1,0,0,1-.424.678.869.869,0,0,1-.682.384h-1.023c-.508,0-.508-.044-1.019-.044H382c-.512,0-.512.044-1.023.044s-.51.042-1.023.042-.508-.042-1.021-.042-.51-.044-1.021-.044-.512.044-1.065.044c-.51,0-.51-.044-1.023-.044a1.059,1.059,0,0,0-.722.34,1.034,1.034,0,0,0-.3.726c0,.552.084.552.084,1.1v1.067c0,.552-.126.552-.126,1.1a1.086,1.086,0,0,0,1.063,1.107c.512,0,.512-.126,1.023-.126s.512.126,1.021.126.51.044,1.023.044c.468,0,.468-.044.979-.044h1.021c.512,0,.512-.126,1.023-.126s.512.17.979.17c.512,0,.512-.128,1.023-.128s.51.042,1.023.042.51-.042,1.019-.042c.47,0,.47-.042.981-.042h1.021a1.02,1.02,0,0,1,1.023,1.107v2c0,.468-.042.468-.042.981v.979c0,.51.042.51.042.979a1.016,1.016,0,0,1-.3.722.943.943,0,0,1-.724.384c-.508,0-.508-.128-1.021-.128s-.51.17-1.021.17-.512-.042-1.023-.042-.512-.086-1.023-.086-.508.128-1.021.128h-1.021c-.512,0-.512-.086-1.023-.086s-.51.086-1.023.086c-.552,0-.552-.128-1.063-.128H377.7c-.51,0-.51.042-1.021.042h-1.023c-.51,0-.51-.084-1.021-.084s-.512.042-1.023.042h-2.043c-.51,0-.51.086-1.021.086s-.512-.044-1.023-.044-.51-.042-1.021-.042-.51.086-1.023.086a.946.946,0,0,1-.722-.384.987.987,0,0,1-.426-.722c0-.512.17-.512.17-.979,0-.51-.128-.51-.128-1.023s.128-.51.128-1.021v-.981c0-.51-.084-.51-.084-1.021s.084-.512.084-.979v-2.041c0-.512-.084-.512-.084-.983,0-.51.042-.51.042-1.019s-.042-.512-.042-1.023c0-.468.084-.468.084-.979s-.084-.512-.084-1.023.084-.51.084-1.023c0-.466-.128-.466-.128-.977s-.042-.512-.042-1.025.17-.508.17-.977c0-.512-.042-.512-.042-1.023s-.086-.51-.086-1.023.044-.51.044-.979c0-.51.042-.51.042-1.023s-.128-.51-.128-1.019c0-.47.128-.47.128-.983V120.7c0-.51-.086-.51-.086-1.021s.128-.512.128-.981c0-.51-.042-.51-.042-1.021a.9.9,0,0,1,1.021-1.023" transform="translate(366.784 116.715)" fill="#fff"/>
    <path id="Path_1377" data-name="Path 1377" d="M383.944,142.2a8.545,8.545,0,0,0,.807-.51c.384-.3.342-.34.727-.638s.3-.384.678-.682a5.289,5.289,0,0,0,.853-.468c.384-.3.34-.34.724-.638s.424-.254.808-.552a1.025,1.025,0,0,1,1.277.084,9.834,9.834,0,0,0,.68.722,4.856,4.856,0,0,0,.724.6,9.434,9.434,0,0,0,.766.594,4.085,4.085,0,0,0,.895.426,5.767,5.767,0,0,0,.937.3c.3.042.636.042.979.084a6.719,6.719,0,0,0,.979.086,7.519,7.519,0,0,0,1.021-.128,3.718,3.718,0,0,0,1.023-.168,3.02,3.02,0,0,0,.979-.384,1.965,1.965,0,0,0,.682-.766,2.012,2.012,0,0,0,.212-1.023,1.924,1.924,0,0,0-.3-1.021,2.66,2.66,0,0,0-.766-.766,6.022,6.022,0,0,0-.936-.554c-.34-.126-.682-.254-1.065-.384-.426-.124-.468-.04-.937-.168-.466-.17-.426-.254-.893-.424a7.327,7.327,0,0,0-.937-.214c-.468-.17-.468-.212-.895-.382-.34-.086-.68-.17-.979-.256-.34-.13-.6-.426-.895-.554s-.682-.17-.979-.3c-.3-.168-.512-.466-.808-.636-.3-.214-.6-.34-.853-.556-.3-.21-.466-.51-.722-.722-.214-.254-.554-.426-.766-.68a9.177,9.177,0,0,1-.47-.895,9.724,9.724,0,0,1-.552-.851c-.126-.342-.212-.638-.34-.979a6.833,6.833,0,0,1-.17-.979,8.14,8.14,0,0,1-.128-1.023,4.008,4.008,0,0,1-.084-2,6.838,6.838,0,0,1,.126-.977,8.373,8.373,0,0,1,.256-.983q.192-.444.384-.893a8.131,8.131,0,0,1,.468-.893,8.931,8.931,0,0,1,.552-.81c.214-.256.384-.554.6-.809.254-.212.552-.382.808-.6a5.622,5.622,0,0,1,.809-.6c.3-.17.6-.3.895-.468.254-.126.552-.34.851-.466a8.29,8.29,0,0,1,.939-.342c.338-.084.678-.042,1.019-.126.3-.086.64-.128.939-.214.34-.044.68-.128.979-.168.34,0,.68-.086,1.021-.086a7.292,7.292,0,0,1,.979.042c.34,0,.682.044,1.023.044.3.04.638.084.979.124a6.3,6.3,0,0,1,.937.342,6.384,6.384,0,0,1,.979.214,6.8,6.8,0,0,1,.981.17,7.282,7.282,0,0,1,.851.51,4.421,4.421,0,0,1,.895.424,5.547,5.547,0,0,1,.893.47,5.374,5.374,0,0,1,.808.552c.256.214.426.51.682.722a.94.94,0,0,1,.128,1.277c-.34.384-.34.384-.724.766-.34.382-.426.3-.808.64-.34.384-.34.384-.722.766-.34.34-.3.424-.64.807-.382.342-.426.3-.808.64a.734.734,0,0,1-1.107.086,6.307,6.307,0,0,0-.892-.556,3.954,3.954,0,0,0-.895-.552,7.485,7.485,0,0,0-1.023-.256,4.017,4.017,0,0,0-1.021-.254,8.308,8.308,0,0,0-1.023.044,8.447,8.447,0,0,0-1.065.084,3.249,3.249,0,0,0-.979.342,2.575,2.575,0,0,0-.808.678,2,2,0,0,0-.128,1.021,2.076,2.076,0,0,0,.256,1.065,2.415,2.415,0,0,0,.766.853,6.542,6.542,0,0,0,1.149.3,7.7,7.7,0,0,0,1.023.422,9.829,9.829,0,0,1,1.023.384c.51.17.51.17,1.019.342s.512.168,1.023.34c.34.126.682.3.979.426.34.126.725.126,1.023.254a6.866,6.866,0,0,1,.979.424c.34.17.6.384.895.554.3.212.638.382.893.552.3.214.638.384.895.6a10.559,10.559,0,0,1,.68.809,5.188,5.188,0,0,1,.6.851,5.587,5.587,0,0,1,.638.853,4.709,4.709,0,0,1,.3,1.023,10.041,10.041,0,0,1,.424.979,8.959,8.959,0,0,1,0,1.063,9.03,9.03,0,0,1,.042,1.065,8.361,8.361,0,0,1-.084,1.023,7.983,7.983,0,0,1-.086,1.021c-.086.342-.086.682-.17,1.025a6.628,6.628,0,0,1-.3.977,6.885,6.885,0,0,1-.424.981,5.2,5.2,0,0,1-.554.891c-.17.258-.51.426-.766.682a3.951,3.951,0,0,1-.724.726c-.256.21-.51.466-.765.636a5.175,5.175,0,0,1-.895.554,7.9,7.9,0,0,1-1.021.3c-.3.126-.6.34-.937.468-.3.084-.64.084-.981.168a8.158,8.158,0,0,1-1.065.13c-.3.042-.638.126-.979.168a8.637,8.637,0,0,1-1.063.042c-.3,0-.64.172-1.023.172a9.926,9.926,0,0,1-1.065-.13,8.549,8.549,0,0,1-1.063,0,9.074,9.074,0,0,1-1.023-.252c-.34-.044-.68-.13-1.023-.172-.34-.084-.722-.042-1.063-.126s-.682-.3-.979-.382c-.34-.13-.682-.3-.981-.426-.34-.13-.722-.172-1.021-.3a6.612,6.612,0,0,1-.894-.594,4.529,4.529,0,0,1-.895-.554c-.3-.212-.6-.426-.851-.638a5.941,5.941,0,0,1-.724-.766,5.552,5.552,0,0,1-.68-.808.824.824,0,0,1,.086-1.277" transform="translate(384.072 116.501)" fill="#fff"/>
    <path id="Path_1378" data-name="Path 1378" d="M409.256,131.513a2.274,2.274,0,0,1,.042.552v.172a3.819,3.819,0,0,1-.084.638l-.044.086a.457.457,0,0,1-.042.21,1.6,1.6,0,0,1-.084.468,2.469,2.469,0,0,1-.342.556l-.042.084a6.814,6.814,0,0,1-.468.552,3.067,3.067,0,0,1-.6.426,4.831,4.831,0,0,1-.638.34c-.084,0-.128.042-.214.086a2.416,2.416,0,0,1-.51.168,3.934,3.934,0,0,1-.722.042,4.8,4.8,0,0,1-.724-.084,3.106,3.106,0,0,1-.68-.17,1.435,1.435,0,0,1-.426-.254c-.084-.042-.128-.084-.214-.128s-.126-.086-.212-.128a1.3,1.3,0,0,1-.382-.3,2.1,2.1,0,0,1-.468-.552,2.639,2.639,0,0,1-.3-.6l-.044-.044a.321.321,0,0,0-.084-.212,1.247,1.247,0,0,1-.17-.466,4.293,4.293,0,0,1-.086-.724,2.166,2.166,0,0,1,.086-.512c0-.086.044-.128.044-.212s.04-.17.04-.256a1.528,1.528,0,0,1,.13-.468,1.384,1.384,0,0,1,.254-.424.593.593,0,0,1,.128-.17l.044-.086a4.334,4.334,0,0,1,.424-.51,1.572,1.572,0,0,1,.424-.3c.044-.044.13-.084.17-.128.086-.04.13-.084.214-.126a.987.987,0,0,1,.382-.256,2.057,2.057,0,0,1,.47-.128.541.541,0,0,0,.254-.042,3.768,3.768,0,0,1,.724-.044h.3a1.763,1.763,0,0,1,.47,0,1.537,1.537,0,0,1,.382.172l.256.126c.084,0,.128.042.212.042a5.142,5.142,0,0,1,.468.256c.17.128.382.256.6.426.126.17.256.34.382.51a.146.146,0,0,1,.044.086c.042.042.084.126.17.17a3.589,3.589,0,0,0,.256.424,4.78,4.78,0,0,1,.212.724" transform="translate(402.217 128.716)" fill="#fff"/>
    <path id="Path_1379" data-name="Path 1379" d="M427.722,148.495c-.342,0-.682.042-1.021.042-.342-.042-.638-.126-.981-.168s-.682-.128-1.021-.17c-.342-.086-.638-.17-.981-.254s-.68-.13-.979-.216c-.34-.126-.68-.126-1.021-.254-.3-.128-.554-.382-.895-.512a7.865,7.865,0,0,1-.937-.382c-.3-.168-.552-.382-.852-.552-.254-.17-.636-.256-.937-.424-.256-.216-.464-.512-.723-.726a5.652,5.652,0,0,1-.766-.68,10.223,10.223,0,0,1-.766-.68c-.21-.214-.424-.512-.638-.766s-.51-.468-.722-.722-.3-.6-.512-.9c-.17-.3-.338-.552-.51-.851a6.27,6.27,0,0,1-.466-.935c-.13-.3-.386-.556-.512-.9a8.369,8.369,0,0,1-.212-.979c-.086-.34-.172-.682-.258-.979-.084-.34-.254-.636-.34-.977-.042-.342-.084-.684-.126-1.025s-.042-.68-.086-1.021c0-.34.086-.68.086-1.023v-.979c.042-.34-.086-.68-.042-1.021a6.284,6.284,0,0,1,.214-.981c.04-.34.124-.68.168-.977.086-.342.126-.682.212-.981.128-.34.3-.638.426-.937a7.868,7.868,0,0,1,.426-.893,6.267,6.267,0,0,1,.384-.939c.17-.3.338-.594.508-.851a5.729,5.729,0,0,1,.6-.809,667.963,667.963,0,0,1,1.195-1.617,9.136,9.136,0,0,1,.765-.64c.256-.212.466-.468.722-.724a5.875,5.875,0,0,1,.766-.636c.256-.212.6-.3.853-.512.3-.17.552-.426.851-.594.254-.128.594-.214.895-.382.34-.128.638-.214.937-.342a8.98,8.98,0,0,1,.935-.424,6.781,6.781,0,0,1,.981-.214,8.559,8.559,0,0,1,.935-.3,8.318,8.318,0,0,1,1.023-.17c.3-.042.638,0,.979-.042.342,0,.682-.128,1.023-.128s.682.044,1.023.044a7.98,7.98,0,0,1,1.063.168,8.312,8.312,0,0,1,1.023.042c.382.044.68.256,1.025.3q.507.126,1.017.256a6.389,6.389,0,0,1,.981.3c.342.13.724.17,1.021.3.34.128.682.254.981.382.3.172.552.468.851.638.3.214.6.342.895.554.256.214.552.426.808.638.3.212.468.552.722.766a6.13,6.13,0,0,1,.726.766c.21.256.466.51.678.766a1.064,1.064,0,0,1,.214.766,1.129,1.129,0,0,1-.384.809c-.424.3-.552.17-.979.468-.468.3-.468.34-.937.638-.424.3-.424.34-.851.68a7.061,7.061,0,0,0-.895.636c-.468.3-.468.3-.933.642a1.232,1.232,0,0,1-.771.168,1.07,1.07,0,0,1-.638-.426,6.251,6.251,0,0,0-.725-.766,6.443,6.443,0,0,0-.807-.68,6.9,6.9,0,0,0-.938-.51,6.074,6.074,0,0,0-.893-.552,8.582,8.582,0,0,0-1.023-.256,9.16,9.16,0,0,0-1.063-.126c-.34,0-.682-.044-1.063-.044a6.956,6.956,0,0,0-.983.128,7.655,7.655,0,0,0-.979.17,7.318,7.318,0,0,0-.937.212c-.34.17-.552.384-.851.552a5.355,5.355,0,0,0-.766.6,5.725,5.725,0,0,0-.808.594,27.037,27.037,0,0,1-1.065,1.705c-.126.3-.256.592-.382.893a6.7,6.7,0,0,0-.214.979c-.084.3-.256.6-.34.937-.042.3,0,.638-.042.979,0,.34.042.638.042.979a8.3,8.3,0,0,0,0,1.023,6.935,6.935,0,0,0,.044.977c.084.342.084.682.17,1.025.126.3.212.638.34.935.126.342.3.64.426.939.17.3.426.51.638.809a5.051,5.051,0,0,0,.594.809,3.69,3.69,0,0,0,.724.68,5.23,5.23,0,0,0,.766.638,6.4,6.4,0,0,0,.979.34,7.824,7.824,0,0,0,.895.384,8.936,8.936,0,0,0,1.023.17,6.852,6.852,0,0,0,.979.128c.384,0,.678-.172,1.023-.172.338-.042.638-.084.979-.126.338-.084.678-.042.979-.128.34-.128.6-.34.893-.468a5.715,5.715,0,0,0,.893-.468,5.657,5.657,0,0,0,.852-.552c.214-.214.47-.468.684-.724a6.037,6.037,0,0,0,.592-.809,1.391,1.391,0,0,1,.6-.51,1.055,1.055,0,0,1,.764.21c.47.3.512.216.981.512s.468.34.895.638c.466.3.466.34.937.64s.468.254.937.55.51.258.979.554a1.5,1.5,0,0,1,.382.724.961.961,0,0,1-.126.767c-.17.3-.384.554-.6.85-.214.254-.468.51-.682.766-.254.254-.466.512-.722.724-.214.254-.384.594-.64.85-.254.212-.594.34-.848.554a5.931,5.931,0,0,1-.853.552c-.3.172-.51.468-.851.638a6.911,6.911,0,0,1-.979.3c-.3.124-.6.254-.939.382a9.722,9.722,0,0,1-.979.384,6.857,6.857,0,0,1-.979.254,8.359,8.359,0,0,1-1.021.086,8.924,8.924,0,0,1-1.023.21c-.34.042-.682,0-1.023.042-.34,0-.68-.042-1.063-.042" transform="translate(411.97 116.501)" fill="#fff"/>
    <path id="Path_1380" data-name="Path 1380" d="M431.409,132.488c0-.34-.042-.68-.042-1.021.042-.382.17-.68.212-1.023a12.934,12.934,0,0,1,.426-2.041c.086-.34.17-.638.256-.981.126-.34.17-.68.3-.979a10.33,10.33,0,0,1,.426-.981,9.643,9.643,0,0,1,.51-.891,9.981,9.981,0,0,1,.638-.809,5.539,5.539,0,0,1,.6-.811c.214-.3.34-.638.554-.895.256-.254.468-.552.682-.766.252-.254.594-.382.849-.6a5.928,5.928,0,0,1,.81-.68c.256-.212.51-.468.765-.68.3-.17.6-.384.9-.554s.6-.342.893-.51a8.612,8.612,0,0,1,.937-.424c.34-.13.722-.13,1.023-.256.338-.128.638-.214.979-.34.34-.084.638-.17.979-.256a9.258,9.258,0,0,1,1.023-.3,23.8,23.8,0,0,0,2.041-.128,8.616,8.616,0,0,1,1.067,0c.338,0,.678-.168,1.019-.168.342.04.682.168,1.023.21s.682.172,1.023.214c.34.084.68-.042,1.021.042s.68.214,1.021.3c.3.084.64.168.981.3s.638.34.936.47a8.777,8.777,0,0,1,.937.422,9.666,9.666,0,0,1,.936.426c.3.17.552.426.853.6.3.214.552.426.807.638s.6.382.853.6.552.426.808.68c.212.214.426.556.638.811s.468.468.68.764c.214.254.426.554.64.811.168.3.424.552.594.851a7.225,7.225,0,0,1,.3,1.021,6.312,6.312,0,0,1,.552.895,6.416,6.416,0,0,1,.256.979,8.8,8.8,0,0,1,.34.981c.086.34.256.636.342.977.04.342.084.682.126,1.025s-.042.722,0,1.063c0,.34.084.68.084,1.021a8.03,8.03,0,0,1-.084,1.025,8.8,8.8,0,0,1-.126,1.019,8.563,8.563,0,0,1-.13,1.023c-.084.34,0,.724-.084,1.065a6.231,6.231,0,0,1-.424.935,9.111,9.111,0,0,1-.384.981,9.012,9.012,0,0,1-.34.979,8.917,8.917,0,0,1-.468.895c-.17.3-.3.636-.51.937s-.426.552-.638.809c-.214.3-.512.466-.724.766-.256.256-.382.552-.638.809s-.512.468-.766.682c-.256.254-.638.34-.895.55s-.552.426-.851.64c-.256.17-.512.468-.809.638s-.64.214-.979.382c-.3.13-.554.426-.853.554-.34.126-.68.126-1.021.256-.342.086-.638.254-.979.34a8.418,8.418,0,0,1-.981.3,9.835,9.835,0,0,0-1.021.3,8.714,8.714,0,0,1-1.023,0c-.34.04-.68.04-1.023.084-.34,0-.68.086-1.019.086a8.985,8.985,0,0,1-1.067.042,7.982,7.982,0,0,1-1.021-.086c-.34-.042-.68-.254-1.021-.3a8.362,8.362,0,0,1-1.023-.086c-.34-.086-.638-.3-.979-.384a7.412,7.412,0,0,1-1.023-.17,6.536,6.536,0,0,1-.979-.382c-.3-.128-.6-.384-.895-.51-.3-.172-.638-.256-.935-.426s-.512-.512-.81-.68a9.469,9.469,0,0,0-.935-.468c-.256-.214-.556-.426-.81-.68a5.971,5.971,0,0,1-.638-.808c-.256-.216-.6-.384-.852-.642-.212-.254-.34-.592-.552-.891a5.9,5.9,0,0,1-.68-.766,6.2,6.2,0,0,1-.468-.895,9.032,9.032,0,0,1-.51-.895,10.272,10.272,0,0,1-.512-.935c-.128-.3-.084-.682-.214-1.025a9.668,9.668,0,0,1-.466-.935c-.086-.34-.086-.68-.17-1.023-.042-.34,0-.724-.042-1.065s-.214-.636-.256-1.019c0-.342.042-.682.042-1.025m25.029,0a8.442,8.442,0,0,0-.126-1.021,8.969,8.969,0,0,0-.044-1.063,8.118,8.118,0,0,0-.212-1.025c-.128-.3-.214-.68-.34-.977a9.944,9.944,0,0,0-.468-.939c-.212-.3-.468-.552-.638-.809-.256-.254-.468-.51-.722-.766-.256-.21-.512-.466-.768-.68-.3-.212-.554-.468-.85-.636-.3-.13-.638-.3-.979-.426a7.279,7.279,0,0,0-1.023-.128,7.84,7.84,0,0,0-1.023-.17c-.34,0-.68-.17-1.019-.17-.384,0-.726.086-1.067.086a8.265,8.265,0,0,0-1.021.254c-.34.086-.638.212-.981.3a6.543,6.543,0,0,0-.935.426c-.3.172-.6.34-.895.512-.256.21-.638.34-.895.552-.212.256-.466.552-.68.806a4.691,4.691,0,0,0-.552.9,8.644,8.644,0,0,0-.384.937,9.692,9.692,0,0,0-.468.935c-.084.342-.17.682-.256,1.025-.04.34-.126.68-.17,1.021,0,.34.13.722.13,1.063s-.044.682-.044,1.025c.044.382,0,.722.044,1.063.084.34.338.636.422.979a6.582,6.582,0,0,0,.3.979c.17.34.34.594.51.895a6.364,6.364,0,0,0,.512.937c.212.254.466.51.722.764a5.639,5.639,0,0,0,.808.6c.3.212.554.468.851.638a6.612,6.612,0,0,0,.939.468,7.238,7.238,0,0,0,1.021.21,8.476,8.476,0,0,0,1.021.13c.34,0,.682.128,1.067.128a8.485,8.485,0,0,0,1.019-.128,4.319,4.319,0,0,0,1.023-.17,8.693,8.693,0,0,0,.979-.3c.34-.126.724-.126,1.023-.252a9.443,9.443,0,0,1,1.7-1.279,4.108,4.108,0,0,0,.638-.809,5.963,5.963,0,0,0,.51-.895,6.873,6.873,0,0,0,.512-.937,6.164,6.164,0,0,0,.424-.937,8.607,8.607,0,0,0,.172-1.021,8.742,8.742,0,0,0,.21-1.023,8.992,8.992,0,0,0,0-1.065" transform="translate(431.902 116.544)" fill="#fff"/>
    <path id="Path_1381" data-name="Path 1381" d="M454.425,116.548c.084,0,.124-.042.17-.042.552.042,1.149.895,1.447,1.235.342.382.382.382.724.766s.212.468.552.851.3.426.638.81.426.3.766.678c.34.426.3.426.638.811a9.53,9.53,0,0,1,.6.809c.34.426.382.382.722.766s.426.3.768.722c.3.384.34.384.636.766.342.382.342.382.682.766s.212.512.552.895.34.382.64.766c.34.382.464.3.806.68s.342.382.682.766.3.424.638.808.3.382.636.809l.682.766c.3.382.34.34.68.766.34.382.254.426.6.809.342.426.342.636.682,1.063.338.384.382.34.722.724s.254.468.6.851a.592.592,0,0,0,.808-.042c.34-.382.256-.426.6-.809a3.475,3.475,0,0,0,.72-1.021,2.875,2.875,0,0,1,.642-.809l.68-.766c.342-.384.426-.34.764-.724s.342-.382.682-.764.256-.47.594-.853.386-.384.724-.766l.682-.766c.34-.382.254-.468.594-.853s.47-.254.808-.678c.342-.384.214-.47.554-.853s.468-.3.808-.68.342-.382.682-.766.256-.468.6-.853.426-.3.766-.722c.34-.382.256-.468.594-.853s.384-.34.724-.766c.338-.382.426-.3.766-.678s.34-.384.68-.766.254-.47.6-.853.384-.382.724-.766a10.724,10.724,0,0,1,.849-1.107.232.232,0,0,1,.172-.128.734.734,0,0,1,.3-.042c.086.042.168.042.212.128.128.126.128.51.128.68a7.666,7.666,0,0,1,.086.979c0,.51-.044.51-.044,1.023s.044.51.044,1.021-.044.51-.044,1.021-.042.51-.042.981c0,.51.17.51.17,1.021s-.042.51-.042,1.023-.042.51-.042,1.021-.044.512-.044,1.023.044.508.044,1.021v.981c0,.508.042.508.042,1.021s.042.51.042,1.021-.17.512-.17,1.023.17.51.17,1.023v1.019c0,.512-.084.512-.084.983,0,.508-.086.508-.086,1.019v1.023c0,.51.042.51.042,1.023s-.042.512-.042,1.021.17.51.17,1.023-.042.508-.042.979v2.043c0,.51-.086.51-.086,1.021s-.042.512-.042,1.025.086.506.086,1.019.084.512.084.981a1.256,1.256,0,0,1-.424.849,1.118,1.118,0,0,1-.81.384c-.51,0-.51.042-.979.042-.512,0-.512-.042-1.023-.042h-.979c-.466,0-.466-.126-.979-.126-.466,0-.466.042-.979.042s-.51-.042-.981-.042a1.027,1.027,0,0,1-.809-.258,1.181,1.181,0,0,1-.34-.849c0-.51.044-.51.044-1.023v-2.043c0-.51.04-.51.04-1.021s-.168-.512-.168-1.021c0-.556.128-.556.128-1.065v-1.023c0-.512-.044-.512-.044-1.021s-.042-.512-.042-1.025.512-.893.042-1.063-.34.426-.638.809c-.3.426-.3.47-.594.853-.3.426-.342.384-.638.809-.3.384-.34.34-.642.766s-.168.508-.466.935c-.34.384-.466.3-.766.682a9.4,9.4,0,0,1-.552.893c-.3.384-.34.34-.68.766-.3.382-.216.426-.512.853a9.35,9.35,0,0,0-.636.808c-.3.384-.3.384-.6.809-.342.426-.3.426-.638.81a4.569,4.569,0,0,1-.426.51,2.728,2.728,0,0,1-.468.552,1.666,1.666,0,0,1-.382.212.7.7,0,0,1-.426,0,.694.694,0,0,1-.3-.212,6.612,6.612,0,0,1-.51-.552c-.128-.17-.214-.34-.342-.51-.34-.426-.382-.384-.724-.766-.3-.426-.212-.512-.552-.895-.3-.426-.34-.384-.636-.81-.342-.382-.3-.426-.64-.851-.3-.384-.426-.3-.724-.724-.34-.382-.21-.466-.552-.893-.3-.424-.3-.382-.638-.808a6.088,6.088,0,0,0-.682-.766c-.3-.424-.338-.424-.638-.809-.34-.424-.382-.382-.68-.809-.34-.382-.3-.426-.638-.809-.3-.426-.084-1.065-.552-.895-.51.172.042.554.042,1.063s-.128.512-.128,1.025.172.508.172,1.019v1.067c0,.508-.044.508-.044,1.021s.044.51.044,1.021-.172.512-.172,1.065c0,.51.128.51.128,1.023s-.128.51-.128,1.021.042.512.042,1.023a1.252,1.252,0,0,1-.3.808,1.332,1.332,0,0,1-.811.466H460c-.468,0-.468-.042-.979-.042-.47,0-.47.042-.979.042-.47,0-.47-.084-.981-.084-.468,0-.468.042-.979.042-.468,0-.468.042-.937.042a1.316,1.316,0,0,1-.893-.382,1.294,1.294,0,0,1-.344-.893c0-.51.172-.51.172-1.023s-.086-.51-.086-.977a7.63,7.63,0,0,0-.04-1.025c0-.51-.046-.51-.046-1.021V141.62c0-.51.086-.51.086-1.021v-1.021a6.717,6.717,0,0,0,.046-.981v-1.021a7.98,7.98,0,0,1,.084-1.023,8.719,8.719,0,0,1-.044-1.023,7.874,7.874,0,0,1,.044-1.019c0-.512-.084-.512-.084-.983,0-.508.126-.508.126-1.019a7.93,7.93,0,0,0,0-1.023,8.045,8.045,0,0,0-.086-1.023v-1.021c0-.512.13-.512.13-1.021s-.13-.51-.13-.981a7.9,7.9,0,0,0,0-1.021c0-.51.044-.51.044-1.023v-1.021c0-.512.042-.512.042-1.023s.044-.51.044-1.021a7.128,7.128,0,0,0,.084-.981c0-.51-.084-.51-.084-1.021s.042-.51.042-1.021-.086-.512-.086-1.023c0-.382-.212-1.533.256-1.745" transform="translate(454.474 116.651)" fill="#fff"/>
  </g>
</svg>
