<?xml version="1.0" standalone="no"?>
<!DOCTYPE svg PUBLIC "-//W3C//DTD SVG 20010904//EN"
 "http://www.w3.org/TR/2001/REC-SVG-20010904/DTD/svg10.dtd">
<svg version="1.0" xmlns="http://www.w3.org/2000/svg"
 width="291.000000pt" height="291.000000pt" viewBox="0 0 291.000000 291.000000"
 preserveAspectRatio="xMidYMid meet">
<metadata>
Created by potrace 1.14, written by Peter Selinger 2001-2017
</metadata>
<g transform="translate(0.000000,291.000000) scale(0.100000,-0.100000)"
fill="#000000" stroke="none">
<path d="M199 2898 c-89 -13 -144 -53 -179 -131 -19 -41 -20 -82 -20 -1307 0
-869 3 -1277 11 -1304 15 -55 80 -122 137 -140 41 -12 220 -14 1307 -14 693 0
1273 4 1289 9 51 15 102 58 131 111 l28 51 0 1277 0 1277 -22 46 c-12 26 -37
59 -54 73 -71 60 8 56 -1343 58 -682 0 -1261 -2 -1285 -6z m2513 -107 c23 -1
75 -56 80 -84 2 -12 3 -582 3 -1268 0 -1171 -1 -1247 -18 -1272 -41 -64 58
-59 -1320 -59 -1134 0 -1257 2 -1286 16 -65 34 -61 -53 -61 1334 l0 1259 22
28 c12 15 33 32 48 39 20 8 363 11 1271 10 684 -1 1252 -2 1261 -3z"/>
<path d="M1868 1429 c-17 -9 -18 -39 -18 -393 l0 -383 26 -12 c20 -9 32 -8 52
1 l27 13 1 378 c2 320 0 380 -13 392 -17 17 -50 19 -75 4z"/>
<path d="M2190 1325 c-7 -9 -12 -36 -12 -60 2 -45 2 -45 -32 -45 -39 0 -58
-19 -58 -56 0 -34 15 -48 54 -48 l33 -1 2 -178 c2 -159 4 -183 23 -222 26 -53
83 -85 153 -85 41 0 49 4 59 24 19 43 -1 65 -74 80 -45 10 -52 36 -54 217 l-2
165 51 -1 c55 -2 87 18 87 54 0 34 -28 51 -84 51 l-53 0 0 45 c0 24 -6 51 -13
60 -16 20 -64 19 -80 0z"/>
<path d="M1390 1221 c-128 -39 -209 -142 -218 -276 -11 -177 115 -316 291
-322 104 -3 210 44 243 109 13 25 13 29 -6 48 -28 28 -53 25 -104 -14 -167
-127 -386 56 -297 249 55 120 206 152 305 64 19 -16 42 -29 52 -29 33 1 56 26
52 56 -4 36 -83 98 -144 113 -48 12 -136 13 -174 2z"/>
</g>
</svg>
